<svg width="50" height="50" viewBox="0 0 50 50" fill="none" xmlns="http://www.w3.org/2000/svg">
<circle cx="25" cy="25" r="24.75" stroke="#A3AC6F" stroke-width="0.5"/>
<circle cx="25.0011" cy="25.0011" r="22.3214" fill="#E7C800"/>
<path d="M24.9994 14.1758C19.0927 14.1758 14.2852 18.9833 14.2852 24.8901C14.2852 30.7968 19.0927 35.6044 24.9994 35.6044C30.9062 35.6044 35.7137 30.7968 35.7137 24.8901C35.7137 18.9833 30.9062 14.1758 24.9994 14.1758ZM28.2343 16.5736C31.5681 17.8669 33.928 21.0918 33.928 24.8901C33.928 25.1842 33.912 25.4735 33.8844 25.7603C32.6086 24.0458 30.7177 23.1738 29.4289 22.7521C29.2971 21.7776 28.6401 20.9656 27.7495 20.6159C28.0034 19.5097 28.2651 17.9297 28.2343 16.5736ZM21.3426 16.748C22.5368 17.644 24.2347 19.519 25.1407 21.0117C24.6142 21.4276 24.247 22.0292 24.1449 22.719C21.092 23.2407 18.3328 24.7744 16.3307 27.0001C16.1672 26.3229 16.0709 25.6185 16.0709 24.8901C16.0709 21.2541 18.2336 18.1424 21.3426 16.748ZM26.7852 22.2115C27.2888 22.2115 27.678 22.6007 27.678 23.1044C27.678 23.608 27.2888 23.9972 26.7852 23.9972C26.2815 23.9972 25.8923 23.608 25.8923 23.1044C25.8923 22.6007 26.2815 22.2115 26.7852 22.2115ZM28.0076 25.469C29.0444 27.1876 30.0218 30.1103 30.3932 31.9998C28.895 33.137 27.0313 33.8186 24.9994 33.8186C23.816 33.8186 22.6905 33.5839 21.6582 33.1682C23.1751 31.1679 25.1513 27.7504 25.9185 25.6242C26.1922 25.7198 26.4806 25.7829 26.7852 25.7829C27.227 25.7829 27.6385 25.6621 28.0076 25.469Z" fill="white"/>
<circle opacity="0.5" cx="24.9983" cy="24.9983" r="19.3929" stroke="white" stroke-width="0.5"/>
</svg>
