<svg width="56" height="56" viewBox="0 0 56 56" fill="none" xmlns="http://www.w3.org/2000/svg">
<circle cx="28" cy="28" r="27.75" stroke="#A3AC6F" stroke-width="0.5"/>
<circle cx="28" cy="28" r="25" fill="#A3AC6F"/>
<path d="M23.9969 20C23.1129 20 22.3969 20.716 22.3969 21.6V34.4C22.3969 35.284 23.1129 36 23.9969 36H31.9969C32.8809 36 33.5969 35.284 33.5969 34.4V21.6C33.5969 20.716 32.8809 20 31.9969 20H23.9969ZM18.3969 21.6C17.5129 21.6 16.7969 22.316 16.7969 23.2V32.8C16.7969 33.684 17.5129 34.4 18.3969 34.4H20.7969V32H18.3969C18.3969 29.6496 20.4601 30.3167 20.7969 29.3063V28.6312C20.7969 28.6312 20.169 28.0407 20.1234 27.6375C20.1234 27.6375 19.7969 27.515 19.7969 27.0062C19.7969 26.7439 19.9219 26.6828 19.9219 26.6828C19.9219 26.6828 19.6469 26.3013 19.6469 25.8109C19.6469 24.9581 20.1208 24.3855 20.7984 24.1391V21.6H18.3969ZM35.1969 21.6V24.4C35.8865 24.4 36.2969 25.0293 36.2969 25.8469C36.2969 26.2549 36.0719 26.6828 36.0719 26.6828C36.0719 26.6828 36.1969 26.7254 36.1969 27.0062C36.1969 27.4111 35.8703 27.6375 35.8703 27.6375C35.8247 28.0415 35.1969 28.6312 35.1969 28.6312V29.3047C35.5337 30.3151 37.5969 29.6408 37.5969 31.9984H35.1969V34.3984H37.5969C38.4809 34.3984 39.1969 33.6824 39.1969 32.7984V23.2C39.1969 22.316 38.4809 21.6 37.5969 21.6H35.1969ZM27.9969 24C28.5041 24 28.7969 24.4 28.7969 24.4C29.4865 24.4 29.8969 25.0293 29.8969 25.8469C29.8969 26.2549 29.6719 26.6828 29.6719 26.6828C29.6719 26.6828 29.7969 26.7254 29.7969 27.0062C29.7969 27.4111 29.4703 27.6375 29.4703 27.6375C29.4247 28.0415 28.7969 28.6312 28.7969 28.6312V29.3047C29.1337 30.3151 31.1969 29.6408 31.1969 31.9984H24.7969C24.7979 29.65 26.8602 30.3164 27.1969 29.3063V28.6312C27.1969 28.6312 26.569 28.0407 26.5234 27.6375C26.5234 27.6375 26.1969 27.515 26.1969 27.0062C26.1969 26.7439 26.3219 26.6828 26.3219 26.6828C26.3219 26.6828 26.0469 26.3013 26.0469 25.8109C26.0461 24.6493 26.9201 24 27.9969 24Z" fill="white"/>
<circle opacity="0.5" cx="28" cy="28" r="21.75" stroke="white" stroke-width="0.5"/>
</svg>
