<svg width="56" height="56" viewBox="0 0 56 56" fill="none" xmlns="http://www.w3.org/2000/svg">
<circle cx="28" cy="28" r="27.75" stroke="#A3AC6F" stroke-width="0.5"/>
<circle cx="28" cy="28" r="25" fill="#A3AC6F"/>
<circle opacity="0.5" cx="28" cy="28" r="21.75" stroke="white" stroke-width="0.5"/>
<path d="M20.6075 18.9648C19.6999 18.9648 18.9648 19.6999 18.9648 20.6075V35.3915C18.9648 36.2991 19.6999 37.0342 20.6075 37.0342H35.3915C36.2991 37.0342 37.0342 36.2991 37.0342 35.3915V20.6075C37.0342 19.6999 36.2991 18.9648 35.3915 18.9648H20.6075ZM24.6596 23.0715H28.9764C31.0938 23.0715 32.5281 24.4512 32.5281 26.5686C32.5289 28.6655 31.0186 30.0384 28.8257 30.0384H27.1653V32.9275H24.6596V23.0715ZM27.1669 24.9981V28.1471H28.2995C29.3648 28.1471 29.9935 27.6 29.9935 26.575C29.9935 25.5368 29.3726 24.9981 28.3139 24.9981H27.1669Z" fill="white"/>
</svg>
