<svg width="56" height="56" viewBox="0 0 56 56" fill="none" xmlns="http://www.w3.org/2000/svg">
<circle cx="28" cy="28" r="27.75" stroke="#A3AC6F" stroke-width="0.5"/>
<circle cx="28" cy="28" r="25" fill="#A3AC6F"/>
<path d="M23.0715 17.3242C22.418 17.3242 21.7913 17.5838 21.3292 18.0459C20.8671 18.508 20.6075 19.1347 20.6075 19.7882C20.6075 20.4417 20.8671 21.0684 21.3292 21.5305C21.7913 21.9926 22.418 22.2522 23.0715 22.2522C23.725 22.2522 24.3517 21.9926 24.8138 21.5305C25.2759 21.0684 25.5355 20.4417 25.5355 19.7882C25.5355 19.1347 25.2759 18.508 24.8138 18.0459C24.3517 17.5838 23.725 17.3242 23.0715 17.3242ZM32.9275 17.3242C32.274 17.3242 31.6473 17.5838 31.1852 18.0459C30.7231 18.508 30.4635 19.1347 30.4635 19.7882C30.4635 20.4417 30.7231 21.0684 31.1852 21.5305C31.6473 21.9926 32.274 22.2522 32.9275 22.2522C33.581 22.2522 34.2077 21.9926 34.6698 21.5305C35.1319 21.0684 35.3915 20.4417 35.3915 19.7882C35.3915 19.1347 35.1319 18.508 34.6698 18.0459C34.2077 17.5838 33.581 17.3242 32.9275 17.3242ZM30.2694 20.6112C29.9095 20.625 29.1265 20.7177 28.6171 21.2272C27.9379 21.9064 28.0011 23.0719 28.0011 23.0719C28.0011 23.0719 29.1667 23.1352 29.8459 22.4559C30.5251 21.7767 30.4619 20.6112 30.4619 20.6112C30.4619 20.6112 30.3894 20.6065 30.2694 20.6112ZM35.3931 20.6112C35.3931 20.6112 35.3299 21.7767 36.0091 22.4559C36.6884 23.1352 37.8539 23.0719 37.8539 23.0719C37.8539 23.0719 37.9171 21.9064 37.2379 21.2272C36.5587 20.5479 35.3931 20.6112 35.3931 20.6112ZM21.4288 23.8949C20.0704 23.8949 18.9648 25.0004 18.9648 26.3589V31.2869C18.9648 31.7411 19.332 32.1082 19.7862 32.1082C20.2404 32.1082 20.6075 31.7411 20.6075 31.2869V29.6442H25.5355V31.2869C25.5355 31.7411 25.9026 32.1082 26.3568 32.1082C26.811 32.1082 27.1782 31.7411 27.1782 31.2869V26.3589C27.1782 25.0004 26.0727 23.8949 24.7142 23.8949H24.4864C24.2014 24.3836 23.6777 24.7162 23.0715 24.7162C22.4654 24.7162 21.9416 24.3836 21.6566 23.8949H21.4288ZM32.9275 23.8949C31.5896 23.8949 30.4143 24.8121 30.0897 26.1102L28.8449 31.088C28.8148 31.2091 28.8126 31.3354 28.8386 31.4575C28.8645 31.5796 28.918 31.6941 28.9948 31.7925C29.0716 31.8908 29.1699 31.9703 29.2821 32.0251C29.3942 32.0798 29.5174 32.1082 29.6422 32.1082H36.1904C36.1979 32.1083 36.2054 32.1083 36.2128 32.1082C36.3376 32.1082 36.4608 32.0798 36.573 32.0251C36.6851 31.9703 36.7834 31.8908 36.8602 31.7925C36.9371 31.6941 36.9905 31.5796 37.0165 31.4575C37.0424 31.3354 37.0403 31.2091 37.0101 31.088L35.7653 26.1102C35.4407 24.8121 34.2654 23.8949 32.9275 23.8949ZM20.6075 32.1082V37.0089C20.6075 37.4771 20.988 37.8576 21.4561 37.8576C21.9029 37.8576 22.2735 37.5111 22.3031 37.0651L22.6336 32.1082H20.6075ZM23.5094 32.1082L23.8399 37.0651C23.8695 37.5103 24.2401 37.8576 24.6869 37.8576C25.1551 37.8576 25.5355 37.4771 25.5355 37.0089V32.1082H23.5094ZM30.4635 33.7509V37.0089C30.4635 37.4771 30.844 37.8576 31.3121 37.8576C31.7589 37.8576 32.1295 37.5103 32.1591 37.0651L32.3789 33.7509H30.4635ZM33.4761 33.7509L33.6959 37.0651C33.7255 37.5111 34.0961 37.8576 34.5429 37.8576C35.0111 37.8576 35.3915 37.4771 35.3915 37.0089V33.7509H33.4761Z" fill="white"/>
<circle opacity="0.5" cx="28" cy="28" r="21.75" stroke="white" stroke-width="0.5"/>
</svg>
