<svg width="50" height="50" viewBox="0 0 50 50" fill="none" xmlns="http://www.w3.org/2000/svg">
<circle cx="25" cy="25" r="24.75" stroke="#A3AC6F" stroke-width="0.5"/>
<circle cx="25.0011" cy="25.0011" r="22.3214" fill="#E28F6D"/>
<path d="M24.1299 14.6445C21.6773 14.8473 19.4694 15.8984 17.7958 17.5069C19.3905 19.2983 20.4251 21.6006 20.6193 24.1339H24.1299V14.6445ZM25.8633 14.6445V24.1339H29.374C29.5681 21.6006 30.6036 19.2991 32.1991 17.5086C30.5247 15.8992 28.3159 14.8482 25.8633 14.6445ZM16.6397 18.8272C15.5234 20.3369 14.8044 22.1544 14.6406 24.1339H18.8859C18.7031 22.118 17.8834 20.2858 16.6397 18.8272ZM33.3535 18.8272C32.1098 20.2858 31.2902 22.1171 31.1073 24.1339H35.3526C35.1888 22.1544 34.4706 20.3369 33.3535 18.8272ZM14.6406 25.8672C14.8044 27.8467 15.5226 29.6641 16.6397 31.1738C17.8834 29.7152 18.7031 27.8831 18.8859 25.8672H14.6406ZM20.6193 25.8672C20.4251 28.4005 19.3897 30.7019 17.7941 32.4924C19.4677 34.1018 21.6756 35.1537 24.1283 35.3565V25.8672H20.6193ZM25.8633 25.8672V35.3565C28.3159 35.1537 30.5239 34.1027 32.1974 32.4941C30.6027 30.7027 29.5681 28.4005 29.374 25.8672H25.8633ZM31.1073 25.8672C31.2902 27.8831 32.1098 29.7152 33.3535 31.1738C34.4706 29.6641 35.1888 27.8475 35.3526 25.8672H31.1073Z" fill="white"/>
<circle opacity="0.5" cx="25.0022" cy="24.9983" r="19.3929" stroke="white" stroke-width="0.5"/>
</svg>
