<svg width="56" height="56" viewBox="0 0 56 56" fill="none" xmlns="http://www.w3.org/2000/svg">
<circle cx="28" cy="28" r="27.75" stroke="#C40D3C" stroke-opacity="0.3" stroke-width="0.5"/>
<circle cx="28" cy="28" r="24.75" fill="#C40D3C" stroke="#C40D3C" stroke-width="0.5"/>
<circle opacity="0.5" cx="28" cy="28" r="21.75" fill="#C40D3C" stroke="white" stroke-width="0.5"/>
<path d="M28.1023 17.0191C29.957 17.5048 31.8705 18.8296 32.5329 21.3171C33.107 23.4955 32.1944 25.1146 31.1787 26.0713C30.1483 27.0428 28.7499 27.4843 28.7499 27.4843C29.427 27.5874 30.8843 28.0437 31.7969 29.3095C32.6212 30.4723 33.0776 32.3416 33.5191 34.2257C33.9902 36.2274 35.3297 36.4777 36.2276 36.4041C36.7133 36.3599 37.1991 36.1833 37.6701 35.6092C39.0832 33.8871 40.3197 31.0463 40.3197 27.9995C40.305 21.1846 34.7998 15.6797 27.9992 15.6797C26.1887 15.6797 24.4812 16.0771 22.9356 16.7836C24.0396 16.5481 25.909 16.4304 28.1023 17.0191Z" fill="white"/>
<path d="M32.079 35.7112C30.975 34.4454 31.3871 31.8107 30.4451 29.9266C29.503 28.0426 27.2214 27.4833 27.2214 27.4833C30.7689 26.085 30.9308 22.6407 30.1065 20.6095C29.1203 18.1809 26.8829 17.2536 24.6896 17.0475C22.8497 16.8709 21.6721 17.4891 21.3777 17.651C21.1569 17.7687 20.9508 17.9012 20.833 17.9895C22.7172 17.4007 24.4688 17.6804 26.1322 19.0198C27.4717 20.0943 28.2518 22.0667 27.6042 24.304C27.0448 26.2469 23.9978 27.4686 23.9978 27.4686C25.3962 27.6305 27.3686 28.911 27.8985 31.531C28.3107 33.5917 29.2086 35.461 29.9446 36.2852C31.7698 38.3165 34.3753 37.9338 35.3468 37.5658C35.7148 37.4186 36.2888 37.1095 36.5685 36.8151C34.1545 37.4775 32.7414 36.4913 32.079 35.7259" fill="white"/>
<path d="M29.0747 37.5967C26.1602 35.9187 26.381 32.3567 25.5861 30.5904C24.5116 28.2207 22.7305 27.4847 22.7305 27.4847C23.2457 27.2786 26.4546 25.1444 25.4978 21.7737C24.276 17.4758 20.3753 18.5061 19.551 19.1243C17.4608 20.6845 15.6797 24.4526 15.6797 27.9999C15.6797 34.8001 21.1849 40.3197 28.0001 40.3197C30.5761 40.3197 32.9607 39.5249 34.9332 38.1854C33.3876 38.7153 30.9294 38.6712 29.0894 37.6114" fill="white"/>
</svg>
