<svg width="260" height="240" viewBox="0 0 260 240" fill="none" xmlns="http://www.w3.org/2000/svg">
<path d="M82.652 146.763C54.6012 101.652 109.219 44.3897 155.564 70.3834C157.562 71.5149 160.383 75.5851 162.734 74.0129C162.088 76.9517 164.615 76.0994 166.79 77.6864C175.93 84.3721 184.658 100.109 186.069 111.306C193.416 169.73 120.915 199.676 86.3402 152.626C85.8553 150.863 87.4864 151.303 88.5443 150.422C130.628 208.052 217.675 140.209 169.376 85.386C128.145 38.5856 53.3963 95.0547 87.0749 148.218C86.5019 149.129 86.0904 149.937 84.8708 149.687C84.7239 149.452 84.2978 149.261 84.1361 148.952V146.748H82.6667L82.652 146.763Z" fill="#1A1919"/>
<path d="M60.4359 55.0568C66.5926 54.0576 72.867 66.5035 74.5862 71.4553C82.4769 94.1429 68.6645 100.623 67.2392 119.226C66.622 127.219 66.9894 138.269 68.1649 146.204C69.4433 154.829 72.7201 161.206 71.5592 170.566C70.4719 179.28 62.4048 189.125 54.7639 179.442C46.4618 168.906 53.7354 155.358 54.7346 144.191C55.4399 136.373 55.6309 115.288 52.8978 108.572C47.8578 96.156 42.6414 92.1298 46.1386 76.8334C47.3729 71.426 54.7052 56.0119 60.4359 55.0715V55.0568ZM61.0824 58.6568C50.3705 68.4578 46.4031 83.7689 51.4431 97.5225C52.5158 100.461 54.6758 102.974 55.8219 105.634C59.466 114.039 59.2603 136.021 58.3934 145.645C57.4236 156.416 48.8864 171.801 60.9502 179.809C63.1543 179.53 64.4032 178.016 65.4759 176.253C71.6474 166.158 64.3004 151.611 63.5363 140.503C62.9044 131.26 62.7428 116.022 65.711 107.426C67.0628 103.488 69.7665 99.9323 71.089 95.9062C75.3944 82.8285 72.1764 67.1353 61.0677 58.6568H61.0824Z" fill="#1A1919"/>
<path d="M210.49 66.3133C210.711 65.5198 212.709 64.1827 213.723 64.4472C214.12 64.5206 214.899 66.2105 214.899 66.3133V101.579C214.899 103.269 210.872 112.07 210.123 115.171C205.421 134.596 213.885 143.707 214.928 161.795C215.442 170.744 216.339 185.041 204.26 185.746C188.949 186.628 190.639 169.73 191.476 158.988C192.799 141.914 200.513 134.67 196.164 115.906C195.517 113.128 191.388 103.342 191.388 102.314V65.5786C191.388 64.1974 195.062 64.1974 195.062 65.5786V99.3748C195.062 102.093 198.956 110.16 199.837 113.702C205.568 136.668 192.916 151.083 195.062 172.845C196.252 184.909 209.08 184.012 210.446 176.489C211.122 172.786 210.814 161.56 210.476 157.431C209.491 145.499 203.79 137.476 204.569 124.325C204.965 117.654 210.476 104.841 210.476 102.314V66.3133H210.49Z" fill="#1A1919"/>
<path d="M200.939 60.4354C201.468 58.6574 205.348 59.2305 205.348 60.4354V92.7622C205.348 93.1002 203.526 94.6724 202.776 94.6283L200.939 93.4969V60.4354Z" fill="#1A1919"/>
<path d="M88.5309 150.437C87.473 151.318 85.8419 150.877 86.3268 152.641C85.1072 150.995 85.2101 150.246 84.8574 149.702C86.077 149.952 86.4885 149.143 87.0615 148.232C87.3848 148.747 88.2224 150.01 88.5309 150.437Z" fill="#1A1919"/>
<path d="M82.6523 146.763H84.1217V148.967L82.6523 146.763Z" fill="#1A1919"/>
<path d="M87.0593 148.232C53.3806 95.0545 128.144 38.6001 169.36 85.4005C217.66 140.239 130.612 208.066 88.5287 150.436C88.2201 150.01 87.3826 148.746 87.0593 148.232ZM91.4675 137.212C92.3345 139.313 93.2014 141.194 94.4063 143.089C122.707 187.7 191.269 152.053 170.712 103.151C149.171 51.9275 69.2355 82.9025 91.4675 137.212Z" fill="#C40D3C"/>
<path d="M61.0817 58.6562C72.1904 67.1347 75.4084 82.8279 71.103 95.9056C69.7806 99.9317 67.0769 103.488 65.725 107.426C62.7715 116.022 62.9185 131.259 63.5503 140.502C64.3144 151.611 71.6467 166.158 65.4899 176.252C64.4026 178.016 63.1535 179.529 60.9641 179.808C48.9004 171.815 57.4376 156.43 58.4074 145.645C59.2743 136.006 59.4801 114.038 55.8359 105.633C54.6898 102.973 52.5298 100.461 51.4571 97.5219C46.4024 83.7536 50.3844 68.4572 61.0964 58.6562H61.0817Z" fill="#E28F6D"/>
<path d="M98.0811 143.089H94.4076C93.2026 141.193 92.3357 139.313 91.4688 137.211C93.3643 137.285 93.8786 135.992 93.6729 134.272C93.8786 134.86 97.8019 142.677 98.0811 143.089Z" fill="#1A1919"/>
<path d="M94.666 145.598C94.3566 145.139 90.0097 136.429 89.7818 135.774C74.7547 94.4785 123.89 57.5225 158.551 85.8494C193.213 114.176 169.166 169.684 122.962 163.396C114.17 162.201 99.6479 152.852 94.666 145.598Z" fill="#C40D3C"/>
<path d="M123.012 91.6104C126.789 91.5559 131.118 92.0739 135.271 92.9795C139.427 93.886 143.315 95.1605 146.221 96.5684C147.677 97.2738 148.824 97.983 149.625 98.6514C150.461 99.3489 150.727 99.8417 150.785 100.067C151.386 102.4 153.162 104.081 154.943 105.398C156.691 106.691 159.022 108.018 160.901 109.242C164.95 111.879 167.999 114.656 167.999 119.307C167.999 124.662 166.548 128.37 164.139 131.285C161.826 134.083 158.525 136.282 154.355 138.437L153.512 138.866C148.822 141.216 146.916 142.908 146.06 144.519C145.845 144.922 145.72 145.276 145.635 145.548C145.588 145.698 145.56 145.782 145.544 145.837C145.539 145.839 145.535 145.842 145.53 145.845L144.874 146.162C133.204 151.614 124.288 151.139 118.107 148.947C111.687 146.67 108.131 142.526 107.337 140.885C106.573 139.306 104.992 138.006 103.581 136.922C102.021 135.723 100.419 134.615 98.8525 133.234C95.8233 130.564 93.5074 127.356 94.04 122.434C94.617 117.101 97.542 111.305 101.526 106.031C105.492 100.783 110.355 96.2543 114.517 93.4512C116.199 92.318 119.152 91.666 123.012 91.6104Z" fill="white" stroke="#1A1919" stroke-width="4"/>
<path d="M150.199 117.889C150.199 110.754 143.783 104.979 135.872 104.979C130.95 104.979 126.611 107.221 124.025 110.63C124.705 110.572 125.395 110.534 126.094 110.534C136.255 110.534 144.492 117.056 144.492 125.091C144.492 126.279 144.31 127.438 143.965 128.539C147.729 126.212 150.19 122.314 150.19 117.889H150.199Z" fill="#FA9600"/>
<path d="M126.092 110.536C125.393 110.536 124.703 110.574 124.023 110.632C122.462 112.701 121.543 115.2 121.543 117.891C121.543 125.026 127.96 130.801 135.87 130.801C138.877 130.801 141.664 129.958 143.963 128.541C144.298 127.44 144.49 126.281 144.49 125.093C144.49 117.049 136.253 110.536 126.092 110.536Z" fill="#FA9600"/>
<path d="M158.124 143.442C158.124 144.132 158.076 144.687 158.009 144.687C157.942 144.687 157.895 144.132 157.895 143.442C157.895 142.753 157.942 142.197 158.009 142.197C158.076 142.197 158.124 142.753 158.124 143.442Z" fill="#FA9600"/>
</svg>
