<svg width="50" height="50" viewBox="0 0 50 50" fill="none" xmlns="http://www.w3.org/2000/svg">
<path d="M27.2002 20.5C27.4762 20.5001 27.7002 20.7239 27.7002 21C27.7002 21.2761 27.4762 21.4999 27.2002 21.5H14.5V30.5H35.5V21C35.5 20.7239 35.7239 20.5 36 20.5C36.2761 20.5 36.5 20.7239 36.5 21V31C36.5 31.2761 36.2761 31.5 36 31.5H14C13.7239 31.5 13.5 31.2761 13.5 31V21C13.5 20.7239 13.7239 20.5 14 20.5H27.2002Z" fill="#1A1919"/>
<path d="M32.9951 28.8994C33.1114 28.9282 33.2151 28.9981 33.2852 29.0986L34.4102 30.7139C34.5679 30.9404 34.5125 31.2523 34.2861 31.4102C34.0596 31.5679 33.7477 31.5125 33.5898 31.2861L32.6143 29.8848H17.3857L16.4102 31.2861C16.2523 31.5125 15.9404 31.5679 15.7139 31.4102C15.4875 31.2523 15.4321 30.9404 15.5898 30.7139L16.7148 29.0986L16.7949 29.0088C16.8852 28.9295 17.0022 28.8848 17.125 28.8848H32.875L32.9951 28.8994ZM18.25 23.5C18.5261 23.5 18.75 23.7239 18.75 24C18.75 24.2761 18.5261 24.5 18.25 24.5H16C15.7239 24.5 15.5 24.2761 15.5 24C15.5 23.7239 15.7239 23.5 16 23.5H18.25Z" fill="#1A1919"/>
<path d="M33.5491 18.9502C33.7882 18.8124 34.0937 18.8938 34.2317 19.1328C34.3696 19.3717 34.2877 19.6772 34.0491 19.8154L29.6487 22.3564C29.4095 22.4945 29.1032 22.412 28.9651 22.1729C28.8274 21.9338 28.9097 21.6282 29.1487 21.4902L33.5491 18.9502Z" fill="#1A1919"/>
<path d="M28.9651 19.1289C29.1032 18.8898 29.4095 18.8072 29.6487 18.9453L34.0491 21.4863C34.2877 21.6245 34.3695 21.93 34.2317 22.1689C34.0938 22.4079 33.7881 22.49 33.5491 22.3525L29.1487 19.8115C28.9096 19.6735 28.8273 19.368 28.9651 19.1289Z" fill="#1A1919"/>
<path d="M32 17.5C32.2761 17.5 32.5 17.7239 32.5 18V23C32.5 23.2761 32.2761 23.5 32 23.5C31.7239 23.5 31.5 23.2761 31.5 23V18C31.5 17.7239 31.7239 17.5 32 17.5Z" fill="#1A1919"/>
</svg>
