<svg width="50" height="50" viewBox="0 0 50 50" fill="none" xmlns="http://www.w3.org/2000/svg">
<path d="M31.5 28.5C31.7761 28.5 32 28.7239 32 29C32 29.2761 31.7761 29.5 31.5 29.5H15C14.7239 29.5 14.5 29.2761 14.5 29C14.5 28.7239 14.7239 28.5 15 28.5H31.5ZM35 28.5C35.2761 28.5 35.5 28.7239 35.5 29C35.5 29.2761 35.2761 29.5 35 29.5H33C32.7239 29.5 32.5 29.2761 32.5 29C32.5 28.7239 32.7239 28.5 33 28.5H35Z" fill="#1A1919"/>
<path d="M23.5 31C23.7761 31 24 31.2239 24 31.5C24 31.7761 23.7761 32 23.5 32H18.5C18.2239 32 18 31.7761 18 31.5C18 31.2239 18.2239 31 18.5 31H23.5ZM31 31C31.2761 31 31.5 31.2239 31.5 31.5C31.5 31.7761 31.2761 32 31 32H28.5C28.2239 32 28 31.7761 28 31.5C28 31.2239 28.2239 31 28.5 31H31Z" fill="#1A1919"/>
<path d="M25 17.5C26.1046 17.5 27 18.3954 27 19.5V21.5C27 21.7761 26.7761 22 26.5 22C26.2239 22 26 21.7761 26 21.5V19.5C26 18.9477 25.5523 18.5 25 18.5C24.4477 18.5 24 18.9477 24 19.5V29C24 29.2761 23.7761 29.5 23.5 29.5C23.2239 29.5 23 29.2761 23 29V19.5C23 18.3954 23.8954 17.5 25 17.5Z" fill="#1A1919"/>
<path d="M30.5 17.5C31.6046 17.5 32.5 18.3954 32.5 19.5V21.5C32.5 21.7761 32.2761 22 32 22C31.7239 22 31.5 21.7761 31.5 21.5V19.5C31.5 18.9477 31.0523 18.5 30.5 18.5C29.9477 18.5 29.5 18.9477 29.5 19.5V29C29.5 29.2761 29.2761 29.5 29 29.5C28.7239 29.5 28.5 29.2761 28.5 29V19.5C28.5 18.3954 29.3954 17.5 30.5 17.5Z" fill="#1A1919"/>
<path d="M28.5 26C28.7761 26 29 26.2239 29 26.5C29 26.7761 28.7761 27 28.5 27H24C23.7239 27 23.5 26.7761 23.5 26.5C23.5 26.2239 23.7239 26 24 26H28.5ZM28.5 23.5C28.7761 23.5 29 23.7239 29 24C29 24.2761 28.7761 24.5 28.5 24.5H24C23.7239 24.5 23.5 24.2761 23.5 24C23.5 23.7239 23.7239 23.5 24 23.5H28.5Z" fill="#1A1919"/>
</svg>
