<svg width="50" height="50" viewBox="0 0 50 50" fill="none" xmlns="http://www.w3.org/2000/svg">
<path d="M28.3145 14.6592C28.4987 14.5025 28.7541 14.4584 28.9795 14.541L29.0889 14.5928L31.5742 16.0576C31.6694 16.1137 31.7474 16.1943 31.7949 16.2461C31.852 16.3083 31.9132 16.3836 31.9756 16.4648C32.101 16.6281 32.2506 16.841 32.4131 17.085C32.739 17.5744 33.1344 18.2118 33.5283 18.8779C34.3057 20.1927 35.1175 21.6866 35.3682 22.3867C35.4607 22.6451 35.4822 22.9506 35.5029 23.0957L36.0273 26.7617C36.0387 26.8413 36.0437 26.9363 36.0293 27.0332C36.0177 27.1112 35.9777 27.2962 35.8047 27.4268C35.5855 27.5919 35.346 27.5382 35.2178 27.4736C35.1023 27.4154 35.0202 27.3286 34.9688 27.2656C34.496 26.6872 33.4017 25.0721 32.4189 23.6074C31.9223 22.8672 31.4496 22.1591 31.0859 21.6201C30.9042 21.3508 30.7514 21.126 30.6377 20.9629C30.6137 20.9284 30.5912 20.8972 30.5713 20.8691V33.6611C30.5713 33.8943 30.527 34.1781 30.3115 34.3857C30.0939 34.5952 29.8207 34.6125 29.6572 34.6074C29.4928 34.6023 29.2996 34.5671 29.1602 34.5449C29.002 34.5197 28.8553 34.5 28.709 34.5H23.2559C23.1096 34.5001 22.9629 34.5197 22.8047 34.5449C22.6652 34.5672 22.472 34.6023 22.3076 34.6074C22.144 34.6125 21.8708 34.5953 21.6533 34.3857C21.438 34.1781 21.3936 33.8943 21.3936 33.6611V20.8691C21.3737 20.8972 21.3512 20.9284 21.3271 20.9629C21.2135 21.126 21.0606 21.3508 20.8789 21.6201C20.5152 22.1591 20.0425 22.8673 19.5459 23.6074C18.5631 25.0721 17.4688 26.6873 16.9961 27.2656C16.9446 27.3286 16.8626 27.4154 16.7471 27.4736C16.6187 27.5382 16.3793 27.5919 16.1602 27.4268C15.9872 27.2962 15.9471 27.1111 15.9355 27.0332C15.9212 26.9363 15.9262 26.8413 15.9375 26.7617L16.4619 23.0957C16.4826 22.9506 16.5042 22.6451 16.5967 22.3867C16.8473 21.6867 17.6592 20.1927 18.4365 18.8779C18.8304 18.2118 19.2258 17.5744 19.5518 17.085C19.7142 16.841 19.8639 16.6281 19.9893 16.4648C20.0516 16.3837 20.1128 16.3083 20.1699 16.2461C20.2174 16.1944 20.2955 16.1137 20.3906 16.0576L22.876 14.5928L22.9854 14.541C23.2107 14.4583 23.4661 14.5026 23.6504 14.6592L23.7363 14.7461L23.8467 14.875C25.0222 16.1577 27.1141 16.1143 28.2285 14.7461L28.3145 14.6592ZM28.8145 15.5918C27.2887 17.2089 24.6749 17.2093 23.1494 15.5918L20.9248 16.9023C20.9398 16.8912 20.9347 16.8919 20.9062 16.9229C20.8764 16.9554 20.8352 17.0053 20.7822 17.0742C20.6766 17.2118 20.5414 17.4034 20.3848 17.6387C20.0719 18.1084 19.6862 18.73 19.2979 19.3867C18.511 20.7175 17.751 22.129 17.5381 22.7236C17.4911 22.8551 17.49 22.9724 17.4521 23.2373L17.1494 25.3525C17.6164 24.6795 18.176 23.8544 18.7158 23.0498C19.2099 22.3134 19.6855 21.6006 20.0498 21.0605C20.232 20.7905 20.3886 20.5603 20.5068 20.3906C20.5656 20.3063 20.6172 20.2344 20.6582 20.1787C20.689 20.1369 20.7391 20.0677 20.7871 20.0205C21.3688 19.4491 22.3934 19.8358 22.3936 20.6846V33.5957C22.4574 33.587 22.5377 33.575 22.6465 33.5576C22.8139 33.5309 23.0263 33.5001 23.2559 33.5H28.709C28.9386 33.5 29.1509 33.5309 29.3184 33.5576C29.4271 33.575 29.5074 33.587 29.5713 33.5957V20.6846C29.5714 19.8889 30.4717 19.4997 31.0635 19.9248L31.1777 20.0205L31.3066 20.1787C31.3477 20.2344 31.3992 20.3063 31.458 20.3906C31.5762 20.5603 31.7328 20.7904 31.915 21.0605C32.2794 21.6005 32.7549 22.3134 33.249 23.0498C33.7888 23.8542 34.3475 24.6796 34.8145 25.3525L34.5127 23.2373C34.4748 22.9724 34.4738 22.8552 34.4268 22.7236C34.2138 22.129 33.4538 20.7175 32.667 19.3867C32.2787 18.7299 31.8929 18.1084 31.5801 17.6387C31.4234 17.4034 31.2883 17.2118 31.1826 17.0742C31.1296 17.0053 31.0884 16.9554 31.0586 16.9229C31.0501 16.9136 31.0434 16.9067 31.0391 16.9023L28.8145 15.5918Z" fill="#1A1919"/>
</svg>
