<svg width="50" height="50" viewBox="0 0 50 50" fill="none" xmlns="http://www.w3.org/2000/svg">
<path d="M26.8882 23.5752C27.426 23.5752 27.8759 23.7442 28.2368 24.0811C28.5977 24.418 28.7787 24.8377 28.7788 25.3398V33.2354C28.7788 33.7377 28.5978 34.1571 28.2368 34.4941C27.8758 34.8312 27.4262 35 26.8882 35L23.1099 34.999C22.5719 34.999 22.1224 34.8305 21.7622 34.4941C21.4022 34.1579 21.222 33.7385 21.2212 33.2363V25.3398C21.2213 24.8377 21.4013 24.418 21.7622 24.0811C22.1232 23.744 22.5729 23.5752 23.1108 23.5752H26.8882ZM23.1108 24.668C22.9309 24.668 22.7663 24.7375 22.6167 24.877C22.4671 25.0166 22.391 25.1708 22.3901 25.3389V33.2363C22.3901 33.4038 22.4662 33.5577 22.6167 33.6982C22.7671 33.8386 22.9316 33.9089 23.1108 33.9082L26.8882 33.9072C27.0683 33.9072 27.2336 33.8373 27.3833 33.6982C27.533 33.5592 27.6081 33.405 27.6089 33.2354V25.3398C27.6088 25.1719 27.5338 25.0176 27.3843 24.8779C27.2348 24.7385 27.07 24.6688 26.8901 24.668H23.1108ZM24.9995 18.3682C25.8361 18.3682 26.6366 18.5004 27.3999 18.7646C28.1632 19.0289 28.8678 19.4135 29.5142 19.918C29.652 20.0299 29.7287 20.1586 29.7437 20.3047C29.7585 20.451 29.7012 20.5852 29.5718 20.7061C29.4423 20.8269 29.2947 20.8855 29.1294 20.8818C28.9642 20.8782 28.8121 20.8203 28.6733 20.709C28.1557 20.3159 27.5875 20.0099 26.9692 19.79C26.3509 19.5702 25.6942 19.46 24.9995 19.46C24.3096 19.46 23.6544 19.5702 23.0347 19.79C22.4135 20.0098 21.8444 20.316 21.3276 20.709C21.1897 20.821 21.0375 20.8789 20.8716 20.8818C20.7056 20.8847 20.5574 20.826 20.4272 20.7061C20.297 20.5859 20.24 20.4517 20.2563 20.3047C20.2728 20.1578 20.3497 20.0292 20.4868 19.918C21.1324 19.4127 21.8368 19.0279 22.6001 18.7637C23.3633 18.5002 24.163 18.3682 24.9995 18.3682ZM24.9995 14C26.4263 13.9985 27.8053 14.2319 29.1362 14.6992C30.4671 15.1665 31.6726 15.836 32.7524 16.708C32.8858 16.8245 32.9662 16.9629 32.9927 17.123C33.02 17.2832 32.969 17.4241 32.8403 17.5449C32.7111 17.6647 32.5659 17.7188 32.4048 17.708C32.2426 17.6956 32.0916 17.6311 31.9536 17.5146C30.9729 16.725 29.885 16.1236 28.6899 15.7109C27.4931 15.2982 26.2626 15.0918 24.9995 15.0918C23.7358 15.0918 22.506 15.2983 21.3101 15.7109C20.114 16.1237 19.0255 16.726 18.0454 17.5166C17.9075 17.6329 17.7573 17.6964 17.5952 17.708C17.4338 17.7204 17.2881 17.6667 17.1587 17.5459C17.0301 17.4258 16.98 17.2851 17.0073 17.125C17.0339 16.965 17.1133 16.8264 17.2466 16.71C18.3264 15.8365 19.532 15.1671 20.8628 14.7012C22.1937 14.2353 23.5727 14.0015 24.9995 14Z" fill="#C40D3C"/>
</svg>
