<svg width="50" height="50" viewBox="0 0 50 50" fill="none" xmlns="http://www.w3.org/2000/svg">
<path d="M9.22151 41.4374H40.7801H40.7797C40.9541 41.4374 41.1215 41.3683 41.2447 41.2447C41.3679 41.1215 41.4374 40.9544 41.4374 40.7797V38.1498C41.4374 37.9755 41.368 37.8084 41.2447 37.6852C41.1215 37.5616 40.9541 37.4926 40.7797 37.4926H38.8076V17.7689H40.7797C41.0456 17.7689 41.2856 17.6087 41.387 17.363C41.4889 17.1174 41.4328 16.8347 41.2447 16.6467L33.3552 8.7571C33.232 8.63389 33.0649 8.56445 32.8906 8.56445H17.1113C16.9369 8.56445 16.7699 8.63388 16.6466 8.7571L8.75709 16.6467C8.56902 16.8347 8.51295 17.1174 8.6148 17.363C8.71628 17.6087 8.95622 17.7689 9.22211 17.7689H11.1943V37.4926H9.22211C9.04777 37.4926 8.88031 37.5616 8.7571 37.6852C8.63389 37.8084 8.56445 37.9755 8.56445 38.1502V40.7801V40.7797C8.56445 41.1429 8.85894 41.4374 9.22211 41.4374H9.22151ZM32.8905 20.3983C33.4878 20.3968 34.0535 20.6665 34.4282 21.1319C34.8028 21.5976 34.9454 22.208 34.8157 22.7912C34.6864 23.3745 34.2988 23.8674 33.7625 24.1306C33.4924 24.2683 33.1937 24.3412 32.8905 24.3431C32.1855 24.3431 31.5343 23.9673 31.1823 23.357C30.8298 22.7466 30.8298 21.9947 31.1823 21.3844C31.5344 20.7744 32.1855 20.3983 32.8905 20.3983ZM25.0005 20.3983C25.5239 20.3983 26.0255 20.6062 26.3952 20.9762C26.7652 21.3459 26.9731 21.8475 26.9731 22.3709C26.9731 22.8939 26.7652 23.3955 26.3952 23.7655C26.0255 24.1351 25.5239 24.343 25.0005 24.343C24.4775 24.343 23.9759 24.1351 23.6059 23.7655C23.2363 23.3955 23.0284 22.8938 23.0284 22.3705C23.0287 21.8479 23.237 21.3463 23.6067 20.9766C23.9763 20.607 24.478 20.3991 25.0005 20.3983ZM21.7134 36.6161V31.5754C21.7138 31.0527 21.9221 30.5511 22.2917 30.1815C22.6614 29.8119 23.163 29.604 23.686 29.6032H26.3158H26.3155C26.8385 29.604 27.3401 29.8119 27.7097 30.1815C28.0793 30.5512 28.2876 31.0528 28.288 31.5754V37.4924L21.7134 37.4927L21.7134 36.6161ZM17.111 20.3983C17.8159 20.3983 18.4671 20.7744 18.8192 21.3844C19.1717 21.9948 19.1717 22.7466 18.8192 23.357C18.4671 23.9674 17.8159 24.3431 17.111 24.3431C16.8077 24.3412 16.509 24.2684 16.2385 24.1307C15.7022 23.8671 15.315 23.3746 15.1853 22.7913C15.056 22.208 15.1987 21.5976 15.5733 21.1319C15.9479 20.6665 16.5136 20.3968 17.111 20.3983Z" fill="#C40D3C"/>
</svg>
