<svg width="50" height="50" viewBox="0 0 50 50" fill="none" xmlns="http://www.w3.org/2000/svg">
<path d="M35.3682 32.8567C33.8509 35.3069 33.0476 38.1272 33.0476 41.004H15.9524C15.9525 38.1272 15.1491 35.3069 13.6318 32.8567L13 31.8374V31.4707H36V31.8374L35.3682 32.8567Z" fill="#C40D3C"/>
<path fill-rule="evenodd" clip-rule="evenodd" d="M39 9.9707C39.5523 9.97072 40 10.4184 40 10.9707V28.0371C40 28.5894 39.5523 29.0371 39 29.0371H30.4043V24.6377C30.3815 24.6227 28.1714 23.1709 24.5 23.1709C20.8284 23.1709 18.6182 24.6228 18.5957 24.6377V29.0371H10C9.44772 29.0371 9 28.5894 9 28.0371V10.9707C9 10.4184 9.44772 9.9707 10 9.9707H39ZM24.5 13.9707C22.8431 13.9707 21.5 15.3138 21.5 16.9707C21.5 18.6276 22.8431 19.9707 24.5 19.9707C26.1569 19.9707 27.5 18.6276 27.5 16.9707C27.5 15.3138 26.1569 13.9707 24.5 13.9707Z" fill="#C40D3C"/>
</svg>
