<svg width="50" height="50" viewBox="0 0 50 50" fill="none" xmlns="http://www.w3.org/2000/svg">
<path d="M13.0622 6C12.6885 6 12.3672 6.2723 12.2962 6.65084C11.9523 8.50407 11 13.8368 11 16.2308C11 22.0769 15.2632 23.5385 15.2632 23.5385V41.8077C15.2632 43.0178 16.2181 44 17.3947 44C18.5714 44 19.5263 43.0178 19.5263 41.8077V23.5385C19.5263 23.5385 23.7895 22.0769 23.7895 16.2308C23.7895 13.8368 22.8372 8.50407 22.4933 6.65084C22.4223 6.2723 22.101 6 21.7273 6C21.2967 6 20.9474 6.35929 20.9474 6.80213V15.2888C20.9474 15.8091 20.5373 16.2308 20.0315 16.2308C19.5639 16.2308 19.1723 15.8694 19.1211 15.3915L18.183 6.71079C18.1389 6.30594 17.8065 6 17.4086 6H17.3947H17.3809C16.983 6 16.6505 6.30733 16.6065 6.71364L15.6684 15.3944C15.6172 15.8708 15.2255 16.2308 14.758 16.2308C14.2521 16.2308 13.8421 15.8091 13.8421 15.2888V6.80213C13.8421 6.35929 13.4928 6 13.0622 6ZM36.5789 6C36.3396 6.00025 36.1043 6.06265 35.8947 6.18142C35.685 6.30018 35.508 6.47147 35.3799 6.67939C35.3799 6.67939 30.8947 13.3881 30.8947 20.6154V23.5099C30.8947 24.4701 31.2342 25.3984 31.8495 26.1218L33.7368 28.0059V41.8077C33.7368 43.0178 34.6918 44 35.8684 44C37.0451 44 38 43.0178 38 41.8077V7.46154C38 7.07391 37.8503 6.70217 37.5838 6.42807C37.3173 6.15398 36.9558 6 36.5789 6Z" fill="#C40D3C"/>
</svg>
