<svg width="50" height="50" viewBox="0 0 50 50" fill="none" xmlns="http://www.w3.org/2000/svg">
<path d="M39.4865 26.6471C39.486 26.0661 38.9802 24.9258 38.008 23.9754C37.0412 23.0303 35.8304 22.5348 34.466 22.5294C33.0922 22.524 31.8742 23.0227 30.9052 23.9794C29.9409 24.9317 29.4337 26.1241 29.4324 27.4682C29.4313 28.8146 29.9394 30.009 30.9076 30.9609C31.2538 31.3012 31.6318 31.583 32.0368 31.8054C31.6846 31.8682 31.3328 31.943 30.9821 32.033C29.8303 32.3277 28.6946 32.7673 27.5759 33.3415L27.5694 33.3447L27.5637 33.3479C26.8638 33.7145 26.2944 34.2401 25.879 34.9049L25.8782 34.9057C25.4617 35.5731 25.2433 36.3157 25.2432 37.102V39H14.5608C13.6164 39 12.711 38.631 12.0432 37.9746C11.3754 37.3182 11 36.4283 11 35.5V19.75H39.4865V26.6471Z" fill="#C40D3C"/>
<path d="M34.4595 33.2353C35.4784 33.2353 36.4972 33.3657 37.5154 33.627C38.5338 33.8883 39.5511 34.28 40.5665 34.8011C41.0044 35.0302 41.3529 35.3521 41.6114 35.767C41.8705 36.1812 42 36.6264 42 37.102V39H26.9189V37.102C26.919 36.6264 27.0483 36.1812 27.3067 35.767C27.566 35.352 27.9143 35.0301 28.3516 34.8011C29.3685 34.2792 30.386 33.8875 31.4043 33.627C32.4219 33.3656 33.4404 33.2353 34.4595 33.2353Z" fill="#C40D3C"/>
<path d="M34.4595 24.1765C35.3822 24.1801 36.1711 24.5025 36.8265 25.1432C37.4818 25.7838 37.8101 26.5599 37.8108 27.4714C37.8115 28.3828 37.4833 29.1581 36.8265 29.7972C36.1697 30.4363 35.3807 30.7581 34.4595 30.7647C33.5383 30.7647 32.7492 30.442 32.0924 29.7964C31.4356 29.1507 31.1074 28.3747 31.1081 27.4698C31.1089 26.565 31.4371 25.7887 32.0924 25.1415C32.7477 24.4945 33.5368 24.1728 34.4595 24.1765Z" fill="#C40D3C"/>
<path d="M33.2551 11C33.4912 11 33.7173 11.0925 33.8843 11.2565C34.0512 11.4206 34.1453 11.6429 34.1453 11.875V12.75H35.9257C36.8701 12.75 37.7755 13.119 38.4433 13.7754C39.1111 14.4318 39.4865 15.3217 39.4865 16.25V18H11V16.25C11 15.3217 11.3754 14.4318 12.0432 13.7754C12.711 13.119 13.6164 12.75 14.5608 12.75H16.3412V11.875C16.3412 11.6429 16.4353 11.4206 16.6022 11.2565C16.7692 11.0925 16.9953 11 17.2314 11C17.4675 11 17.6937 11.0925 17.8606 11.2565C18.0276 11.4206 18.1216 11.6429 18.1216 11.875V12.75H32.3649V11.875C32.3649 11.6429 32.4589 11.4206 32.6259 11.2565C32.7928 11.0925 33.019 11 33.2551 11Z" fill="#C40D3C"/>
</svg>
