<svg width="50" height="50" viewBox="0 0 50 50" fill="none" xmlns="http://www.w3.org/2000/svg">
<path d="M16.6445 18.623C16.7779 19.4122 17.0444 20.2075 17.3555 20.9463C17.5166 21.3269 17.6942 21.7134 17.8887 22.0996V36.1709L10.8281 39.0205C9.95045 39.3731 9.00022 38.7238 9 37.7725V22.6143C9.00008 22.0658 9.33338 21.5733 9.83887 21.3662H9.83301L16.6445 18.623ZM30.333 39.1104L19.667 36.0371V25.1553C20.8059 26.9073 22.0168 28.4919 22.7891 29.4658C23.9279 30.8985 26.0721 30.8985 27.2109 29.4658C27.9832 28.4919 29.1941 26.9073 30.333 25.1553V39.1104ZM39.1719 18.1426C40.0497 17.7899 41 18.4391 41 19.3906V34.542C41 35.0905 40.6667 35.5895 40.1611 35.791L32.1113 39.0371V22.0996C32.3058 21.7134 32.4834 21.3269 32.6445 20.9463C32.6723 20.8792 32.6998 20.8064 32.7275 20.7393L39.1719 18.1426ZM25 10.8828C28.6833 10.8828 31.667 13.8886 31.667 17.5996C31.6666 20.6557 27.6056 26.1011 25.8223 28.3457C25.4 28.8831 24.6055 28.8831 24.1777 28.3457C22.3944 26.1011 18.3334 20.6557 18.333 17.5996C18.333 13.8886 21.3167 10.8828 25 10.8828ZM25 15.5879C23.9604 15.5879 23.1172 16.4311 23.1172 17.4707C23.1173 18.5102 23.9604 19.3525 25 19.3525C26.0396 19.3525 26.8827 18.5102 26.8828 17.4707C26.8828 16.4311 26.0396 15.5879 25 15.5879Z" fill="#C40D3C"/>
</svg>
