<svg width="50" height="50" viewBox="0 0 50 50" fill="none" xmlns="http://www.w3.org/2000/svg">
<path d="M25.002 6C25.0702 6.05267 39.4014 17.1266 39.4014 28.2002C39.4013 32.1253 37.8841 35.8895 35.1836 38.665C32.4832 41.4404 28.8209 42.9999 25.002 43C21.1828 43 17.5199 41.4406 14.8193 38.665C12.1189 35.8895 10.6016 32.1253 10.6016 28.2002C10.6016 22.6502 14.2018 17.1 17.8018 12.9375C18.7017 15.2498 19.2416 16.0729 21.4014 17.0996C23.6189 13.0704 24.3036 10.6009 25.002 6ZM31.7432 23.9854C31.3738 23.575 30.7416 23.5419 30.3311 23.9111L18.3311 34.7021C17.9205 35.0715 17.8876 35.7036 18.2568 36.1143C18.6262 36.5245 19.2584 36.5585 19.6689 36.1895L31.6689 25.3975C32.0792 25.0282 32.112 24.3959 31.7432 23.9854ZM29.9775 32C28.873 32 27.9775 32.8954 27.9775 34C27.9775 35.1046 28.873 36 29.9775 36H30C31.1046 36 32 35.1046 32 34C32 32.8954 31.1046 32 30 32H29.9775ZM20 24C18.8954 24 18 24.8954 18 26C18 27.1046 18.8954 28 20 28H20.0225C21.127 28 22.0225 27.1046 22.0225 26C22.0225 24.8954 21.127 24 20.0225 24H20Z" fill="#C40D3C"/>
</svg>
