<svg width="50" height="50" viewBox="0 0 50 50" fill="none" xmlns="http://www.w3.org/2000/svg">
<path d="M33.25 14.3438C33.25 13.0498 32.2086 12 30.925 12H26.275C24.9914 12 23.95 13.0498 23.95 14.3438V16.6875H20.85V13.1719C20.85 12.5225 20.3317 12 19.6875 12C19.0433 12 18.525 12.5225 18.525 13.1719V16.6875H15.425V13.1719C15.425 12.5225 14.9067 12 14.2625 12C13.6183 12 13.1 12.5225 13.1 13.1719V16.6875H12.325C11.0414 16.6875 10 17.7373 10 19.0312V34.6562C10 35.9502 11.0414 37 12.325 37H38.675C39.9586 37 41 35.9502 41 34.6562V23.7188C41 22.4248 39.9586 21.375 38.675 21.375H33.25V14.3438ZM37.9 29.9688V31.5312C37.9 31.9609 37.5512 32.3125 37.125 32.3125H35.575C35.1487 32.3125 34.8 31.9609 34.8 31.5312V29.9688C34.8 29.5391 35.1487 29.1875 35.575 29.1875H37.125C37.5512 29.1875 37.9 29.5391 37.9 29.9688ZM21.625 32.3125H20.075C19.6487 32.3125 19.3 31.9609 19.3 31.5312V29.9688C19.3 29.5391 19.6487 29.1875 20.075 29.1875H21.625C22.0512 29.1875 22.4 29.5391 22.4 29.9688V31.5312C22.4 31.9609 22.0512 32.3125 21.625 32.3125ZM16.2 31.5312C16.2 31.9609 15.8512 32.3125 15.425 32.3125H13.875C13.4487 32.3125 13.1 31.9609 13.1 31.5312V29.9688C13.1 29.5391 13.4487 29.1875 13.875 29.1875H15.425C15.8512 29.1875 16.2 29.5391 16.2 29.9688V31.5312ZM37.125 24.5C37.5512 24.5 37.9 24.8516 37.9 25.2812V26.8438C37.9 27.2734 37.5512 27.625 37.125 27.625H35.575C35.1487 27.625 34.8 27.2734 34.8 26.8438V25.2812C34.8 24.8516 35.1487 24.5 35.575 24.5H37.125ZM22.4 20.5938V22.1562C22.4 22.5859 22.0512 22.9375 21.625 22.9375H20.075C19.6487 22.9375 19.3 22.5859 19.3 22.1562V20.5938C19.3 20.1641 19.6487 19.8125 20.075 19.8125H21.625C22.0512 19.8125 22.4 20.1641 22.4 20.5938ZM15.425 19.8125C15.8512 19.8125 16.2 20.1641 16.2 20.5938V22.1562C16.2 22.5859 15.8512 22.9375 15.425 22.9375H13.875C13.4487 22.9375 13.1 22.5859 13.1 22.1562V20.5938C13.1 20.1641 13.4487 19.8125 13.875 19.8125H15.425ZM22.4 26.8438C22.4 27.2734 22.0512 27.625 21.625 27.625H20.075C19.6487 27.625 19.3 27.2734 19.3 26.8438V25.2812C19.3 24.8516 19.6487 24.5 20.075 24.5H21.625C22.0512 24.5 22.4 24.8516 22.4 25.2812V26.8438ZM15.425 27.625H13.875C13.4487 27.625 13.1 27.2734 13.1 26.8438V25.2812C13.1 24.8516 13.4487 24.5 13.875 24.5H15.425C15.8512 24.5 16.2 24.8516 16.2 25.2812V26.8438C16.2 27.2734 15.8512 27.625 15.425 27.625ZM30.15 25.2812V26.8438C30.15 27.2734 29.8012 27.625 29.375 27.625H27.825C27.3987 27.625 27.05 27.2734 27.05 26.8438V25.2812C27.05 24.8516 27.3987 24.5 27.825 24.5H29.375C29.8012 24.5 30.15 24.8516 30.15 25.2812ZM29.375 15.125C29.8012 15.125 30.15 15.4766 30.15 15.9062V17.4688C30.15 17.8984 29.8012 18.25 29.375 18.25H27.825C27.3987 18.25 27.05 17.8984 27.05 17.4688V15.9062C27.05 15.4766 27.3987 15.125 27.825 15.125H29.375ZM30.15 20.5938V22.1562C30.15 22.5859 29.8012 22.9375 29.375 22.9375H27.825C27.3987 22.9375 27.05 22.5859 27.05 22.1562V20.5938C27.05 20.1641 27.3987 19.8125 27.825 19.8125H29.375C29.8012 19.8125 30.15 20.1641 30.15 20.5938Z" fill="#C40D3C"/>
</svg>
