<svg width="50" height="50" viewBox="0 0 50 50" fill="none" xmlns="http://www.w3.org/2000/svg">
<path d="M23.9867 28.9509H26.2569C27.6617 28.9509 29.0091 28.3928 30.0025 27.3994C30.9959 26.406 31.554 25.0586 31.554 23.6537C31.554 22.2489 30.9959 20.9015 30.0025 19.9081C29.0091 18.9147 27.6617 18.3566 26.2569 18.3566H20.9597V33.4913H23.9867V28.9509ZM13.3924 12.3027H37.6079C38.0093 12.3027 38.3942 12.4622 38.678 12.746C38.9619 13.0298 39.1213 13.4148 39.1213 13.8162V38.0317C39.1213 38.4331 38.9619 38.818 38.678 39.1019C38.3942 39.3857 38.0093 39.5452 37.6079 39.5452H13.3924C12.991 39.5452 12.606 39.3857 12.3222 39.1019C12.0384 38.818 11.8789 38.4331 11.8789 38.0317V13.8162C11.8789 13.4148 12.0384 13.0298 12.3222 12.746C12.606 12.4622 12.991 12.3027 13.3924 12.3027ZM23.9867 21.3835H26.2569C26.8589 21.3835 27.4364 21.6227 27.8621 22.0485C28.2879 22.4742 28.5271 23.0516 28.5271 23.6537C28.5271 24.2558 28.2879 24.8333 27.8621 25.259C27.4364 25.6848 26.8589 25.9239 26.2569 25.9239H23.9867V21.3835Z" fill="#C40D3C"/>
<path d="M41 10.9551H10V8.95508H41V10.9551Z" fill="#C40D3C"/>
</svg>
