<svg width="50" height="50" viewBox="0 0 50 50" fill="none" xmlns="http://www.w3.org/2000/svg">
<mask id="mask0_3036_15471" style="mask-type:luminance" maskUnits="userSpaceOnUse" x="8" y="11" width="35" height="28">
<path d="M8 11.5703H42.001V38.4304H8V11.5703Z" fill="white"/>
</mask>
<g mask="url(#mask0_3036_15471)">
<path d="M13.3196 11.5879C12.0458 11.5879 11.3844 11.8267 11.0654 12.1141C10.7467 12.4017 10.6159 12.829 10.6159 13.5764V24.6687V24.6835H11.2687V24.34C11.2687 23.3738 11.8062 22.5349 12.5918 22.082C12.591 22.0723 12.5905 22.0622 12.5905 22.0525V17.433C12.5905 17.1272 12.5707 16.5717 12.7984 16.0039C13.0273 15.4361 13.67 14.8698 14.5354 14.8698H22.3795C23.224 14.8698 23.8748 15.3448 24.1266 15.8786C24.3789 16.4125 24.3596 16.9318 24.3591 17.2197L24.3494 21.7242H25.6662V17.4332C25.6662 17.1274 25.6464 16.5719 25.8742 16.0041C26.103 15.4363 26.7457 14.87 27.6112 14.87H35.46C36.3044 14.87 36.9503 15.345 37.202 15.8788C37.4543 16.4127 37.435 16.932 37.4345 17.2199L37.4247 22.0526C37.424 22.065 37.4234 22.0774 37.4224 22.0898C38.2008 22.5448 38.7326 23.3791 38.7326 24.3401V24.6836H39.3853V24.6688V13.8668C39.3853 12.962 39.2377 12.4376 38.9269 12.1287C38.6158 11.8195 37.9945 11.5885 36.7633 11.5885L13.3196 11.5879ZM14.5342 16.1729C14.1068 16.1729 14.1023 16.2578 14.008 16.4921C13.9141 16.7265 13.8967 17.1277 13.8967 17.4332V21.7245H19.2045C20.0568 21.7443 20.0568 23.0126 19.2045 23.0324H13.8827C13.147 23.0324 12.5749 23.6044 12.5749 24.3402V25.3019C12.5767 25.3291 12.5767 25.3565 12.5749 25.3836V31.2047C12.5749 31.9405 13.147 32.5125 13.8827 32.5125H36.1166C36.8523 32.5125 37.4244 31.9405 37.4244 31.2047V24.3405C37.4244 23.6048 36.8523 23.0327 36.1166 23.0327H21.7322C20.8404 23.0525 20.8404 21.7051 21.7322 21.7248H23.0401L23.0498 17.2166C23.0504 16.9393 23.0251 16.6124 22.9439 16.4389C22.8621 16.2655 22.8479 16.1732 22.3794 16.1732L14.5342 16.1729ZM27.6106 16.1729C27.1832 16.1729 27.184 16.2578 27.0894 16.4921C26.9955 16.7265 26.9731 17.1277 26.9731 17.4332V21.7245H36.1164L36.1261 17.2163C36.1266 16.9389 36.1013 16.612 36.0201 16.4386C35.9384 16.2651 35.9294 16.1729 35.4607 16.1729H27.6106ZM9.3079 25.9917C8.57215 25.9917 8.00006 26.5637 8.00006 27.2995V34.4768C8.00006 34.8504 8.28293 35.1295 8.65649 35.1295H41.3496C41.7231 35.1295 42.001 34.8506 42.001 34.4768V27.2995C42.001 26.5637 41.4289 25.9917 40.6931 25.9917H38.7328V31.2048C38.7328 32.6426 37.5549 33.8205 36.1171 33.8205H13.8833C12.4455 33.8205 11.2676 32.6426 11.2676 31.2048V25.9917H9.3079ZM8.00006 36.3146V37.1026C8.00006 37.8383 8.57213 38.4117 9.3079 38.4117H40.6931C41.4288 38.4117 42.0009 37.8386 42.0009 37.1026V36.3159C41.7958 36.3895 41.5786 36.4372 41.3495 36.4372H8.65643C8.42575 36.4372 8.20668 36.3889 8 36.3146L8.00006 36.3146Z" fill="#C40D3C"/>
</g>
</svg>
