<svg width="50" height="50" viewBox="0 0 50 50" fill="none" xmlns="http://www.w3.org/2000/svg">
<path d="M32.3643 13.5801C32.592 13.6268 32.7627 13.8288 32.7627 14.0703V32.3857C32.7627 32.6619 32.5388 32.8857 32.2627 32.8857H17C16.7239 32.8857 16.5 32.6619 16.5 32.3857V14.0703C16.5 13.7942 16.7239 13.5703 17 13.5703H32.2627L32.3643 13.5801ZM17.5 31.8857H31.7627V14.5703H17.5V31.8857Z" fill="#C40D3C"/>
<path d="M24.6318 9.5C24.908 9.5 25.1318 9.72386 25.1318 10V12.0352C25.1318 12.3113 24.908 12.5352 24.6318 12.5352C24.3557 12.5352 24.1319 12.3113 24.1318 12.0352V10C24.1318 9.72386 24.3557 9.5 24.6318 9.5Z" fill="#C40D3C"/>
<path d="M32.3643 11.5449C32.592 11.5916 32.7627 11.7936 32.7627 12.0352C32.7627 12.2767 32.592 12.4787 32.3643 12.5254L32.2627 12.5352H17C16.7239 12.5352 16.5 12.3113 16.5 12.0352C16.5 11.759 16.7239 11.5352 17 11.5352H32.2627L32.3643 11.5449Z" fill="#C40D3C"/>
<path d="M21.2183 31.9092C21.4817 31.9907 21.6295 32.2705 21.5483 32.5342L19.5132 39.1475C19.4319 39.4112 19.152 39.5596 18.8882 39.4785C18.6246 39.3972 18.477 39.1173 18.5581 38.8535L20.5933 32.2393C20.6747 31.9756 20.9545 31.828 21.2183 31.9092Z" fill="#C40D3C"/>
<path d="M28.0464 31.9092C28.3101 31.8281 28.59 31.9757 28.6714 32.2393L30.7065 38.8535C30.7875 39.1172 30.64 39.3971 30.3765 39.4785C30.1126 39.5597 29.8328 39.4112 29.7515 39.1475L27.7163 32.5342C27.6352 32.2704 27.7828 31.9906 28.0464 31.9092Z" fill="#C40D3C"/>
</svg>
