<svg width="50" height="50" viewBox="0 0 50 50" fill="none" xmlns="http://www.w3.org/2000/svg">
<path d="M20.0322 21.8242C20.1293 21.5659 20.4173 21.4354 20.6758 21.5322L32.2939 25.8848L32.6191 26.0059V32.9697C32.619 33.2456 32.395 33.4694 32.1191 33.4697C31.8431 33.4697 31.6193 33.2457 31.6191 32.9697V26.6992L20.3242 22.4678C20.066 22.3707 19.9355 22.0826 20.0322 21.8242Z" fill="#C40D3C"/>
<path d="M38.0005 32.4688C38.2763 32.4692 38.5005 32.6929 38.5005 32.9688C38.5005 33.2446 38.2763 33.4683 38.0005 33.4688H20.355C20.0788 33.4688 19.854 33.2449 19.854 32.9688C19.854 32.6926 20.0788 32.4688 20.355 32.4688H38.0005Z" fill="#C40D3C"/>
<path d="M13.1421 18.6699C13.6822 17.454 15.1058 16.9063 16.3218 17.4463L19.5522 18.8809C20.7682 19.421 21.3159 20.8445 20.7759 22.0605C20.2357 23.2765 18.8122 23.8242 17.5962 23.2842L14.3657 21.8496C13.1497 21.3095 12.602 19.886 13.1421 18.6699ZM15.9155 18.3594C15.2044 18.0437 14.3712 18.3642 14.0552 19.0752C13.7393 19.7865 14.0607 20.6196 14.772 20.9355L18.0024 22.3701C18.7138 22.686 19.5459 22.3657 19.8618 21.6543C20.1776 20.943 19.8573 20.1108 19.146 19.7949L15.9155 18.3594Z" fill="#C40D3C"/>
<path d="M34.4121 30.5C34.688 30.5003 34.9121 30.724 34.9121 31C34.9121 31.276 34.688 31.4997 34.4121 31.5H30.001C29.7248 31.5 29.5 31.2761 29.5 31C29.5 30.7239 29.7248 30.5 30.001 30.5H34.4121Z" fill="#C40D3C"/>
</svg>
