<svg width="50" height="50" viewBox="0 0 50 50" fill="none" xmlns="http://www.w3.org/2000/svg">
<path d="M21.8953 14.0049L22.2605 14.0322L22.3191 14.042L31.0291 15.9814C31.2575 16.0325 31.4196 16.2356 31.4197 16.4697V25.8994C31.4196 26.1338 31.2569 26.337 31.0281 26.3877L22.3181 28.3184C22.2996 28.3225 22.2804 28.3252 22.2615 28.3271C21.3621 28.4208 20.4543 28.3368 19.5896 28.0811L19.2214 27.9609C18.3609 27.6533 17.5679 27.1813 16.8865 26.5723L16.8855 26.5713C16.1609 25.9187 15.5814 25.1211 15.1843 24.2305C14.7872 23.3398 14.581 22.3756 14.5798 21.4004V21C14.5751 20.0226 14.7762 19.0549 15.1697 18.1602C15.5635 17.2647 16.1416 16.4621 16.866 15.8047C17.5905 15.1473 18.4453 14.6491 19.3748 14.3438C20.1879 14.0767 21.0425 13.9626 21.8953 14.0049ZM22.1375 15.0254C21.311 14.9437 20.4764 15.0348 19.6873 15.2939C18.8912 15.5554 18.1584 15.9818 17.5378 16.5449C16.9174 17.108 16.422 17.7955 16.0847 18.5625C15.7474 19.3295 15.5755 20.1592 15.5798 20.9971V21.3994L15.5886 21.7119C15.6277 22.4399 15.7998 23.1557 16.0974 23.8232C16.4373 24.5856 16.9334 25.2684 17.5535 25.8271L17.7771 26.0176C18.3095 26.449 18.9118 26.7874 19.5583 27.0186V27.0195C20.3821 27.3144 21.2612 27.4207 22.1316 27.334L30.4197 25.498V16.8701L22.1375 15.0254Z" fill="#1A1919"/>
<path d="M34.9707 16.3818C35.2258 16.408 35.4199 16.6225 35.4199 16.8789V25.4785C35.4197 25.7348 35.2257 25.9504 34.9707 25.9766L30.9707 26.3857C30.8301 26.4 30.6899 26.3544 30.585 26.2598C30.48 26.165 30.42 26.03 30.4199 25.8887V16.4688C30.4199 16.3274 30.4801 16.1924 30.585 16.0977C30.6899 16.0029 30.8301 15.9574 30.9707 15.9717L34.9707 16.3818ZM31.4199 25.335L34.4199 25.0273V17.3291L31.4199 17.0215V25.335Z" fill="#1A1919"/>
<path d="M20.3984 17.7695C21.0726 17.4903 21.8146 17.4172 22.5303 17.5596C23.2459 17.702 23.903 18.0534 24.4189 18.5693C24.9348 19.0853 25.2873 19.7424 25.4297 20.458C25.572 21.1737 25.498 21.9167 25.2188 22.5908C24.9395 23.2646 24.4668 23.8408 23.8604 24.2461C23.2537 24.6514 22.5401 24.8681 21.8105 24.8682C20.832 24.8682 19.8932 24.479 19.2012 23.7871C18.5094 23.0953 18.1203 22.157 18.1201 21.1787C18.1201 20.449 18.3368 19.7347 18.7422 19.1279C19.1476 18.5213 19.7243 18.0488 20.3984 17.7695ZM22.335 18.54C21.8132 18.4362 21.2718 18.4898 20.7803 18.6934C20.289 18.897 19.8687 19.2414 19.5732 19.6836C19.2778 20.1259 19.1201 20.6468 19.1201 21.1787C19.1203 21.8918 19.404 22.5758 19.9082 23.0801C20.4127 23.5844 21.0972 23.8682 21.8105 23.8682C22.3424 23.8681 22.8625 23.7105 23.3047 23.415C23.7468 23.1196 24.0913 22.6992 24.2949 22.208C24.4985 21.7166 24.5519 21.175 24.4482 20.6533C24.3444 20.1317 24.088 19.6525 23.7119 19.2764C23.3358 18.9002 22.8567 18.6438 22.335 18.54Z" fill="#1A1919"/>
<path d="M24.1006 26.8906C24.2485 26.8575 24.404 26.8936 24.5225 26.9883C24.641 27.0831 24.7099 27.2271 24.71 27.3789V33.0791C24.71 33.0896 24.7096 33.1008 24.709 33.1113C24.6612 33.854 24.3328 34.5513 23.79 35.0605C23.247 35.5698 22.5296 35.8535 21.7852 35.8535C21.0408 35.8535 20.3243 35.5697 19.7812 35.0605C19.2383 34.5513 18.9091 33.8542 18.8613 33.1113C18.8606 33.0999 18.8603 33.0877 18.8604 33.0762L18.8906 27.4863L18.9053 27.3672C18.9343 27.2519 19.004 27.1488 19.1035 27.0791C19.2363 26.9863 19.4061 26.964 19.5586 27.0186C20.3817 27.3132 21.2602 27.4212 22.1299 27.335L24.1006 26.8906ZM22.3203 28.3164C22.3013 28.3207 22.2811 28.3241 22.2617 28.3262C21.4645 28.4092 20.6612 28.3503 19.8867 28.1582L19.8604 33.0566C19.894 33.5423 20.1096 33.9978 20.4648 34.3311C20.8225 34.6665 21.2948 34.8535 21.7852 34.8535C22.2755 34.8535 22.7478 34.6664 23.1055 34.3311C23.4609 33.9976 23.6765 33.5416 23.71 33.0557V28.0039L22.3203 28.3164Z" fill="#1A1919"/>
</svg>
