<svg width="50" height="50" viewBox="0 0 50 50" fill="none" xmlns="http://www.w3.org/2000/svg">
<path d="M33.834 14.5C34.4086 14.5 34.9599 14.7285 35.3662 15.1348C35.7725 15.5411 36.001 16.0924 36.001 16.667V27.3896L38.3115 32.4492L38.3135 32.4541C38.4598 32.7836 38.5216 33.1445 38.4932 33.5039C38.4647 33.8636 38.347 34.2111 38.1504 34.5137C37.9538 34.8163 37.6843 35.0651 37.3672 35.2373C37.0502 35.4094 36.6947 35.4998 36.334 35.5H14.667C14.3061 35.5 13.9511 35.4094 13.6338 35.2373C13.3167 35.0653 13.0473 34.8171 12.8506 34.5146C12.6539 34.212 12.5354 33.8647 12.5068 33.5049C12.4783 33.1452 12.5401 32.7839 12.6865 32.4541L12.6885 32.4492L15 27.3916V16.667C15 16.0924 15.2285 15.5411 15.6348 15.1348C16.0411 14.7285 16.5924 14.5 17.167 14.5H33.834ZM13.5986 32.8643C13.5212 33.0407 13.4887 33.2337 13.5039 33.4258C13.5193 33.6193 13.5827 33.8059 13.6885 33.9688C13.7944 34.1317 13.9396 34.2657 14.1104 34.3584C14.2812 34.4511 14.4726 34.5 14.667 34.5H36.334L36.4785 34.4912C36.6224 34.4732 36.7625 34.428 36.8906 34.3584C37.0612 34.2657 37.2058 34.1316 37.3115 33.9688C37.4173 33.8059 37.4807 33.6193 37.4961 33.4258C37.5113 33.2337 37.4788 33.0406 37.4014 32.8643L35.1797 28H15.8213L13.5986 32.8643ZM27.167 31.167C27.4431 31.167 27.667 31.3909 27.667 31.667C27.6668 31.943 27.443 32.167 27.167 32.167H23.834C23.558 32.167 23.3342 31.943 23.334 31.667C23.334 31.3908 23.5578 31.167 23.834 31.167H27.167ZM17.167 15.5C16.8576 15.5 16.5606 15.623 16.3418 15.8418C16.1231 16.0606 16 16.3576 16 16.667V27H35.001V16.667C35.001 16.3576 34.8779 16.0606 34.6592 15.8418C34.4404 15.623 34.1434 15.5 33.834 15.5H17.167Z" fill="#C40D3C"/>
</svg>
