<svg width="50" height="50" viewBox="0 0 50 50" fill="none" xmlns="http://www.w3.org/2000/svg">
<path d="M40 13.5C40.2761 13.5 40.5 13.7239 40.5 14V34C40.5 34.2761 40.2761 34.5 40 34.5H10C9.72386 34.5 9.5 34.2761 9.5 34V14C9.5 13.7239 9.72386 13.5 10 13.5H40ZM10.5 33.5H39.5V14.5H10.5V33.5Z" fill="#C40D3C"/>
<path d="M15 19.5C15.2761 19.5 15.5 19.7239 15.5 20V27.5H20C20.2761 27.5 20.5 27.7239 20.5 28C20.5 28.2761 20.2761 28.5 20 28.5H15C14.7239 28.5 14.5 28.2761 14.5 28V20C14.5 19.7239 14.7239 19.5 15 19.5Z" fill="#C40D3C"/>
<path d="M25.1172 19.5C25.5975 19.5 26.0622 19.5718 26.499 19.7051C26.763 19.7857 26.9116 20.065 26.8311 20.3291C26.7504 20.5932 26.4711 20.7417 26.207 20.6611C25.864 20.5565 25.4977 20.5 25.1172 20.5C23.1057 20.5002 21.5 22.0807 21.5 24C21.5 25.9193 23.1057 27.4998 25.1172 27.5C26.1079 27.5 27.0032 27.1151 27.6553 26.4941C27.8553 26.3039 28.1719 26.3118 28.3623 26.5117C28.5527 26.7117 28.5447 27.0283 28.3447 27.2188C27.5113 28.0124 26.3709 28.5 25.1172 28.5C22.5809 28.4998 20.5 26.4987 20.5 24C20.5 21.5013 22.5809 19.5002 25.1172 19.5Z" fill="#C40D3C"/>
<path d="M30 19.5C31.0276 19.5 32.386 19.634 33.502 20.2852C34.6617 20.9619 35.4999 22.1634 35.5 24.1338C35.5 25.1039 35.2971 25.8878 34.9307 26.5107C34.5632 27.1352 34.0497 27.5668 33.4795 27.8613C32.362 28.4385 31.002 28.5 30 28.5C29.7239 28.5 29.5 28.2761 29.5 28V20C29.5 19.7239 29.7239 19.5 30 19.5ZM30.5 27.4912C31.3645 27.4646 32.2825 27.3538 33.0205 26.9727C33.4502 26.7507 33.8118 26.4407 34.0693 26.0029C34.3277 25.5635 34.5 24.9634 34.5 24.1338C34.4999 22.5044 33.8382 21.6387 32.998 21.1484C32.2619 20.7189 31.3469 20.5565 30.5 20.5137V27.4912Z" fill="#C40D3C"/>
</svg>
