<svg width="50" height="50" viewBox="0 0 50 50" fill="none" xmlns="http://www.w3.org/2000/svg">
<path d="M16.875 18.875L23.6756 24.1644C24.3075 24.6559 25.1925 24.6559 25.8244 24.1644L32.625 18.875M18.8 32H30.7C31.6801 32 32.1701 32 32.5445 31.8093C32.8738 31.6415 33.1415 31.3738 33.3093 31.0445C33.5 30.6701 33.5 30.1801 33.5 29.2V20.8C33.5 19.8199 33.5 19.3299 33.3093 18.9555C33.1415 18.6262 32.8738 18.3585 32.5445 18.1907C32.1701 18 31.6801 18 30.7 18H18.8C17.8199 18 17.3299 18 16.9555 18.1907C16.6262 18.3585 16.3585 18.6262 16.1907 18.9555C16 19.3299 16 19.8199 16 20.8V29.2C16 30.1801 16 30.6701 16.1907 31.0445C16.3585 31.3738 16.6262 31.6415 16.9555 31.8093C17.3299 32 17.8199 32 18.8 32Z" stroke="#1A1919" stroke-width="2"/>
</svg>
