<svg width="50" height="50" viewBox="0 0 50 50" fill="none" xmlns="http://www.w3.org/2000/svg">
<path d="M25 27.5039C26.113 27.5039 27.2357 27.6128 28.2012 27.8359C29.0887 28.0411 29.9092 28.3574 30.4492 28.8281L30.5537 28.9238L30.5547 28.9248C30.7389 29.1062 30.8486 29.3792 30.9238 29.6172C31.006 29.8775 31.0754 30.1941 31.1338 30.5381C31.2508 31.228 31.3348 32.0842 31.3965 32.9502C31.52 34.6849 31.5547 36.5102 31.5664 37.2412C31.5685 37.375 31.5166 37.5051 31.4229 37.6006C31.3291 37.6957 31.2009 37.7498 31.0674 37.75H18.9336C18.6576 37.75 18.4338 37.5259 18.4336 37.25C18.4336 36.5114 18.4692 34.6844 18.5957 32.9492C18.6589 32.0828 18.7454 31.2261 18.8643 30.5361C18.9235 30.1923 18.9934 29.8763 19.0762 29.6162C19.152 29.3782 19.2624 29.1057 19.4463 28.9248L19.4473 28.9238C19.9824 28.3999 20.8526 28.0547 21.7988 27.8359C22.7642 27.6129 23.8871 27.5039 25 27.5039ZM23.1289 28.6172C22.7413 28.666 22.3697 28.7308 22.0244 28.8105C21.1289 29.0175 20.4806 29.3115 20.1465 29.6387C20.1395 29.6492 20.0913 29.7223 20.0283 29.9199C19.9651 30.1185 19.9051 30.3842 19.8496 30.7061C19.7389 31.3487 19.655 32.1675 19.5928 33.0215C19.4913 34.4136 19.4514 35.8702 19.4395 36.75H25.3281V30.7959L23.1289 28.6172ZM24.4453 28.5146L26.1807 30.2324C26.2753 30.3262 26.328 30.4546 26.3281 30.5879V36.75H30.5547C30.5364 35.8653 30.4984 34.4105 30.3994 33.0205C30.3386 32.1662 30.2564 31.3477 30.1475 30.7051C30.0928 30.3831 30.0334 30.1174 29.9707 29.9189C29.9081 29.7207 29.8599 29.6485 29.8535 29.6387L29.7139 29.5176C29.3539 29.2392 28.7595 28.9917 27.9756 28.8105C27.0987 28.6079 26.0538 28.5039 25 28.5039C24.8146 28.5039 24.6293 28.5082 24.4453 28.5146ZM25 12.2422C25.5612 12.2422 26.1082 12.4223 26.5596 12.7559C26.8657 12.9822 27.1154 13.2726 27.2969 13.6025C27.5195 13.5405 27.7506 13.5085 27.9834 13.5098H27.9902C28.6513 13.5074 29.2897 13.7545 29.7764 14.2021C30.2645 14.6513 30.564 15.2693 30.6152 15.9307C30.6664 16.592 30.4649 17.2487 30.0518 17.7676C29.7425 18.1558 29.3312 18.4451 28.8691 18.6074C28.9895 19.4974 29.0659 20.3931 29.0918 21.291C29.1534 21.5854 29.1855 21.8857 29.1865 22.1865V22.1875C29.1865 23.2977 28.7458 24.3633 27.9609 25.1484C27.1758 25.9335 26.1103 26.3749 25 26.375C23.8898 26.3749 22.8251 25.9334 22.04 25.1484C21.2549 24.3633 20.8135 23.2978 20.8135 22.1875V22.1865C20.8145 21.8854 20.8465 21.5846 20.9082 21.29C20.9341 20.3925 21.0096 19.497 21.1299 18.6074C20.6682 18.445 20.2573 18.1556 19.9482 17.7676C19.535 17.2487 19.3336 16.592 19.3848 15.9307C19.436 15.2693 19.7364 14.6513 20.2246 14.2021C20.7109 13.755 21.3483 13.5077 22.0088 13.5098H22.0156C22.2488 13.5084 22.4801 13.5404 22.7031 13.6025C22.8846 13.2727 23.1343 12.9822 23.4404 12.7559C23.8917 12.4223 24.4388 12.2422 25 12.2422ZM21.8135 22.1895C21.8139 23.034 22.1499 23.8442 22.7471 24.4414C23.3446 25.0389 24.155 25.3749 25 25.375C25.8451 25.3749 26.6564 25.039 27.2539 24.4414C27.8509 23.8442 28.1861 23.0339 28.1865 22.1895C28.1863 22.1264 28.1853 22.0629 28.1816 22H21.8193C21.8157 22.0629 21.8137 22.1264 21.8135 22.1895ZM25 13.2422C24.6528 13.2422 24.3144 13.3543 24.0352 13.5605C23.756 13.767 23.5501 14.0578 23.4482 14.3896C23.4046 14.5319 23.2995 14.6479 23.1621 14.7051C23.0244 14.7622 22.8681 14.7543 22.7363 14.6846C22.5152 14.5675 22.2678 14.5076 22.0176 14.5098H22.0107C21.6003 14.5072 21.2035 14.6607 20.9014 14.9385C20.5994 15.2163 20.4136 15.5987 20.3818 16.0078C20.3502 16.417 20.4748 16.8235 20.7305 17.1445C20.9863 17.4657 21.3547 17.6776 21.7607 17.7383C21.8921 17.758 22.011 17.8296 22.0898 17.9365C22.1684 18.0433 22.2006 18.1775 22.1807 18.3086C22.0439 19.2001 21.9606 20.0991 21.9229 21H28.0781C28.0404 20.099 27.9561 19.2001 27.8193 18.3086C27.7993 18.1774 27.8324 18.0434 27.9111 17.9365C27.9899 17.8298 28.1081 17.758 28.2393 17.7383C28.6451 17.6776 29.0138 17.4655 29.2695 17.1445C29.5251 16.8235 29.6498 16.417 29.6182 16.0078C29.5864 15.5986 29.4007 15.2164 29.0986 14.9385C28.7966 14.6607 28.4006 14.5074 27.9902 14.5098H27.9824C27.7325 14.5076 27.4856 14.5677 27.2646 14.6846C27.133 14.7543 26.9765 14.7621 26.8389 14.7051C26.7011 14.648 26.5955 14.5322 26.5518 14.3896C26.4499 14.0576 26.2441 13.767 25.9648 13.5605C25.6856 13.3541 25.3473 13.2422 25 13.2422Z" fill="#C40D3C"/>
</svg>
