<svg width="50" height="50" viewBox="0 0 50 50" fill="none" xmlns="http://www.w3.org/2000/svg">
<path d="M31.6895 13.001C31.8288 12.9996 31.9674 13.0249 32.0967 13.0771C32.2286 13.1305 32.3486 13.2099 32.4492 13.3105C32.5499 13.4112 32.6293 13.5311 32.6826 13.6631C32.7348 13.7924 32.7611 13.9309 32.7598 14.0703V19.1602H32.8096C33.3877 19.1602 33.9418 19.3901 34.3506 19.7988C34.7593 20.2076 34.9892 20.7618 34.9893 21.3398V23.4805C34.9892 23.5149 34.9861 23.5486 34.9795 23.5811V32.8203C34.9794 33.3984 34.7496 33.9526 34.3408 34.3613C33.9321 34.7701 33.3779 34.9999 32.7998 35H29.4395C28.8614 35 28.3072 34.7701 27.8984 34.3613C27.4897 33.9526 27.2598 33.3984 27.2598 32.8203V25.0537L22.0293 29.7236V34H24.25C24.5259 34.0003 24.75 34.2241 24.75 34.5C24.75 34.7759 24.5259 34.9997 24.25 35H18.8096C18.5335 35 18.3096 34.7761 18.3096 34.5C18.3096 34.2239 18.5335 34 18.8096 34H21.0293V29.7236L16.7217 25.873C16.6796 25.8447 16.6405 25.8117 16.6084 25.7715L13.1865 22.7129C13.032 22.5748 12.9789 22.3557 13.0527 22.1621C13.1267 21.9684 13.3122 21.8399 13.5195 21.8398H23.7734L24.9287 19.4434C25.0487 19.1946 25.3479 19.09 25.5967 19.21C25.8452 19.3299 25.9498 19.6283 25.8301 19.877L24.8838 21.8398H27.2598V21.3398C27.2598 20.7618 27.4897 20.2076 27.8984 19.7988C28.3072 19.3901 28.8614 19.1602 29.4395 19.1602H29.5V14.0703C29.4987 13.9326 29.5242 13.796 29.5752 13.668C29.6273 13.5372 29.7051 13.4178 29.8037 13.3174C29.9023 13.2171 30.0197 13.1374 30.1494 13.083C30.2793 13.0286 30.4188 13 30.5596 13L31.6895 13.001ZM28.2598 32.8203C28.2598 33.1332 28.3842 33.4331 28.6055 33.6543C28.8267 33.8755 29.1266 34 29.4395 34H32.7998C33.1126 33.9999 33.4126 33.8755 33.6338 33.6543C33.855 33.4331 33.9794 33.1331 33.9795 32.8203V30.6396H28.2598V32.8203ZM28.3398 24.0889L28.2598 24.1621V29.6396H33.9795V23.9805H28.4629L28.3398 24.0889ZM20.6328 25.7812C19.786 25.6272 18.9221 25.6153 18.0752 25.7422L21.5293 28.8291L23.9688 26.6514C23.6086 26.5637 23.2539 26.4649 22.8945 26.3623C22.2045 26.1653 21.4892 25.9566 20.6328 25.7812ZM17.1426 24.9082C18.3461 24.6144 19.5986 24.5748 20.8193 24.7979L20.8301 24.7998C21.7318 24.9843 22.4851 25.2052 23.1689 25.4004C23.7761 25.5737 24.3247 25.7224 24.8945 25.8242L27.6348 23.3789L27.9346 23.1084H27.9355L28.2344 22.8398H24.4014L23.3896 24.9375C23.2697 25.1858 22.9712 25.2904 22.7227 25.1709C22.4739 25.051 22.3694 24.7516 22.4893 24.5029L23.291 22.8398H14.8281L17.1426 24.9082ZM30.5361 14.0049C30.5289 14.0079 30.5221 14.012 30.5166 14.0176C30.511 14.0233 30.5068 14.0307 30.5039 14.0381C30.501 14.0454 30.4989 14.0536 30.499 14.0615L30.5 14.0703V19.6602C30.4999 19.9361 30.2759 20.1599 30 20.1602H29.4395C29.1266 20.1602 28.8267 20.2846 28.6055 20.5059C28.3843 20.7271 28.2598 21.027 28.2598 21.3398V21.8398H29.5498L29.626 21.8457C29.8016 21.8728 29.9519 21.9925 30.0166 22.1621C30.0903 22.3557 30.0373 22.5748 29.8828 22.7129L29.583 22.9805H33.9893V21.3398C33.9892 21.027 33.8648 20.7271 33.6436 20.5059C33.4223 20.2846 33.1225 20.1602 32.8096 20.1602H32.2598C31.9837 20.1601 31.7599 19.9362 31.7598 19.6602V14.0615C31.7599 14.0535 31.7579 14.0446 31.7549 14.0371C31.7519 14.0299 31.7477 14.0231 31.7422 14.0176C31.7365 14.0119 31.7292 14.0069 31.7217 14.0039C31.7143 14.001 31.7061 13.9999 31.6982 14H30.5596C30.5516 14 30.5435 14.0018 30.5361 14.0049Z" fill="#C40D3C"/>
</svg>
