<svg width="50" height="50" viewBox="0 0 50 50" fill="none" xmlns="http://www.w3.org/2000/svg">
<path d="M33 15C33.663 15 34.2987 15.2636 34.7676 15.7324C35.2364 16.2013 35.5 16.837 35.5 17.5V28.5C35.5 29.163 35.2364 29.7987 34.7676 30.2676C34.2987 30.7364 33.663 31 33 31H17C16.337 31 15.7013 30.7364 15.2324 30.2676C14.7636 29.7987 14.5 29.163 14.5 28.5V17.5C14.5 16.837 14.7636 16.2013 15.2324 15.7324C15.7013 15.2636 16.337 15 17 15H33ZM17 16C16.6022 16 16.2208 16.1581 15.9395 16.4395C15.6581 16.7208 15.5 17.1022 15.5 17.5V28.5C15.5 28.8978 15.6581 29.2792 15.9395 29.5605C16.2208 29.8419 16.6022 30 17 30H33C33.3978 30 33.7792 29.8419 34.0605 29.5605C34.3419 29.2792 34.5 28.8978 34.5 28.5V17.5C34.5 17.1022 34.3419 16.7208 34.0605 16.4395C33.7792 16.1581 33.3978 16 33 16H17Z" fill="#C40D3C"/>
<path d="M25 30.5C25.2761 30.5 25.5 30.7239 25.5 31V40C25.5 40.2761 25.2761 40.5 25 40.5C24.7239 40.5 24.5 40.2761 24.5 40V31C24.5 30.7239 24.7239 30.5 25 30.5Z" fill="#C40D3C"/>
<path d="M28 39.5C28.2761 39.5 28.5 39.7239 28.5 40C28.5 40.2761 28.2761 40.5 28 40.5H22C21.7239 40.5 21.5 40.2761 21.5 40C21.5 39.7239 21.7239 39.5 22 39.5H28Z" fill="#C40D3C"/>
<path d="M28.1465 11.6465C28.3417 11.4512 28.6583 11.4512 28.8535 11.6465C29.0487 11.8417 29.0488 12.1583 28.8535 12.3535L25.3535 15.8535C25.1583 16.0488 24.8417 16.0487 24.6465 15.8535L21.1465 12.3535C20.9512 12.1583 20.9512 11.8417 21.1465 11.6465C21.3417 11.4512 21.6583 11.4512 21.8535 11.6465L25 14.793L28.1465 11.6465Z" fill="#C40D3C"/>
<path d="M21.5 20.5C21.7761 20.5 22 20.7239 22 21V26.5C22 26.7761 21.7761 27 21.5 27C21.2239 27 21 26.7761 21 26.5V21C21 20.7239 21.2239 20.5 21.5 20.5Z" fill="#C40D3C"/>
<path d="M23.5 20.5C23.7761 20.5 24 20.7239 24 21C24 21.2761 23.7761 21.5 23.5 21.5H19.5C19.2239 21.5 19 21.2761 19 21C19 20.7239 19.2239 20.5 19.5 20.5H23.5Z" fill="#C40D3C"/>
<path d="M30.0449 20.793C30.1592 20.5417 30.4557 20.4307 30.707 20.5449C30.9583 20.6592 31.0693 20.9557 30.9551 21.207L28.4551 26.707C28.3739 26.8854 28.196 27 28 27C27.804 27 27.6261 26.8854 27.5449 26.707L25.0449 21.207C24.9307 20.9557 25.0417 20.6592 25.293 20.5449C25.5443 20.4307 25.8407 20.5417 25.9551 20.793L28 25.291L30.0449 20.793Z" fill="#C40D3C"/>
</svg>
