<svg width="50" height="50" viewBox="0 0 50 50" fill="none" xmlns="http://www.w3.org/2000/svg">
<path d="M28.1914 19.168C28.4672 19.1684 28.6914 19.3921 28.6914 19.668V41.001C28.6914 41.2769 28.4672 41.5006 28.1914 41.501H21.334C21.0578 41.501 20.833 41.2771 20.833 41.001V19.668C20.833 19.3918 21.0578 19.168 21.334 19.168H28.1914ZM21.834 40.501H27.6914V20.168H21.834V40.501Z" fill="#C40D3C"/>
<path d="M33.5918 14.5986C33.749 14.6202 33.8886 14.7152 33.9648 14.8574C34.0519 15.02 34.0417 15.2177 33.9395 15.3711L30.8926 19.9424C30.7999 20.0814 30.6436 20.1649 30.4766 20.165H19.1846C19.021 20.165 18.8669 20.0854 18.7734 19.9512L15.5898 15.3799C15.4834 15.2271 15.4705 15.0274 15.5566 14.8623C15.6428 14.6972 15.8138 14.5938 16 14.5938H33.5234L33.5918 14.5986ZM19.4453 19.165H30.209L32.5889 15.5938H16.958L19.4453 19.165Z" fill="#C40D3C"/>
<path d="M32.7617 40.5C33.0379 40.5 33.2617 40.7239 33.2617 41C33.2617 41.2761 33.0379 41.5 32.7617 41.5H16.7617C16.4856 41.5 16.2617 41.2761 16.2617 41C16.2617 40.7239 16.4856 40.5 16.7617 40.5H32.7617Z" fill="#C40D3C"/>
<path d="M22.5244 10.9111C22.7308 10.7277 23.047 10.7468 23.2305 10.9531C23.4139 11.1595 23.3958 11.4757 23.1895 11.6592L21.0713 13.541V15.0947C21.0713 15.3708 20.8474 15.5947 20.5713 15.5947C20.2952 15.5947 20.0713 15.3708 20.0713 15.0947V13.3174C20.0713 13.1746 20.1325 13.0382 20.2393 12.9434L22.5244 10.9111Z" fill="#C40D3C"/>
<path d="M23.5352 8.90332C23.884 8.83369 24.2999 8.88036 24.6035 9.18359C24.9072 9.48724 24.9545 9.90393 24.8848 10.2529C24.8141 10.6061 24.6172 10.9551 24.334 11.2383C24.0509 11.5213 23.7026 11.7174 23.3496 11.7881C23.0007 11.8578 22.5839 11.8113 22.2803 11.5078C21.9767 11.2041 21.9302 10.7875 22 10.4385C22.0706 10.0854 22.2668 9.73726 22.5498 9.4541C22.833 9.17088 23.182 8.97396 23.5352 8.90332ZM23.7314 9.88379C23.5972 9.91064 23.4199 9.99804 23.2568 10.1611C23.094 10.3241 23.0073 10.5006 22.9805 10.6348C22.9674 10.7001 22.9699 10.7457 22.9756 10.7715C22.98 10.7911 22.9858 10.7982 22.9873 10.7998C22.9874 10.7999 22.9933 10.8073 23.0166 10.8125C23.0424 10.8182 23.0886 10.8207 23.1543 10.8076C23.2884 10.7806 23.4642 10.6938 23.627 10.5312C23.7899 10.3683 23.8773 10.1918 23.9043 10.0576C23.9173 9.99241 23.9139 9.94679 23.9082 9.9209C23.903 9.8976 23.8966 9.8907 23.8965 9.89062C23.8948 9.88916 23.8878 9.8843 23.8682 9.87988C23.8425 9.87414 23.797 9.87077 23.7314 9.88379Z" fill="#C40D3C"/>
</svg>
