<svg width="50" height="50" viewBox="0 0 50 50" fill="none" xmlns="http://www.w3.org/2000/svg">
<path d="M35.3535 15L35.3545 14.5H35.3662C35.372 14.5001 35.3799 14.5007 35.3887 14.501C35.4062 14.5016 35.4297 14.5019 35.458 14.5039C35.515 14.508 35.5932 14.5168 35.6855 14.5322C35.868 14.5626 36.1191 14.6235 36.376 14.752C36.6349 14.8814 36.9089 15.0841 37.1172 15.3965C37.3274 15.712 37.4502 16.1102 37.4502 16.5967V29.3701H36.9502L37.4502 29.3711V29.4053C37.4496 29.4228 37.4483 29.4463 37.4463 29.4746C37.4422 29.5316 37.4343 29.6098 37.4189 29.7021C37.3885 29.8846 37.3267 30.1357 37.1982 30.3926C37.0688 30.6514 36.866 30.9256 36.5537 31.1338C36.2382 31.344 35.84 31.4668 35.3535 31.4668H14.5967V30.9668L14.5957 31.4668H14.584C14.5783 31.4667 14.5711 31.4661 14.5625 31.4658C14.5449 31.4652 14.5207 31.4649 14.4922 31.4629C14.4353 31.4588 14.3569 31.4509 14.2646 31.4355C14.0824 31.4051 13.8318 31.3431 13.5752 31.2148C13.3163 31.0854 13.0413 30.8827 12.833 30.5703C12.6228 30.2549 12.5 29.8565 12.5 29.3701V16.5967H13L12.5 16.5957V16.584C12.5001 16.5783 12.5007 16.5711 12.501 16.5625C12.5016 16.5449 12.5019 16.5207 12.5039 16.4922C12.508 16.4353 12.5168 16.3569 12.5322 16.2646C12.5626 16.0824 12.6238 15.8318 12.752 15.5752C12.8814 15.3163 13.0841 15.0413 13.3965 14.833C13.712 14.6228 14.1102 14.5 14.5967 14.5H35.3535V15ZM14.5967 15.5C14.2853 15.5 14.0847 15.5761 13.9512 15.665C13.8146 15.7561 13.7166 15.8813 13.6465 16.0215C13.5754 16.1637 13.538 16.3127 13.5186 16.4297C13.5091 16.4867 13.5041 16.5331 13.502 16.5635C13.5009 16.5786 13.5002 16.5899 13.5 16.5957V29.3701C13.5 29.6814 13.5761 29.8821 13.665 30.0156C13.7561 30.1522 13.8813 30.2502 14.0215 30.3203C14.1637 30.3914 14.3127 30.4297 14.4297 30.4492C14.4867 30.4587 14.5332 30.4627 14.5635 30.4648C14.5786 30.4659 14.5899 30.4666 14.5957 30.4668H35.3535C35.6649 30.4668 35.8655 30.3907 35.999 30.3018C36.1356 30.2107 36.2336 30.0855 36.3037 29.9453C36.3748 29.8031 36.4131 29.6541 36.4326 29.5371C36.4421 29.4801 36.4461 29.4336 36.4482 29.4033C36.4493 29.3882 36.45 29.3769 36.4502 29.3711V16.5967C36.4502 16.2852 36.3741 16.0847 36.2852 15.9512C36.1941 15.8145 36.0689 15.7166 35.9287 15.6465C35.7865 15.5754 35.6375 15.538 35.5205 15.5186C35.4634 15.5091 35.417 15.5041 35.3867 15.502C35.3716 15.5009 35.3603 15.5002 35.3545 15.5H14.5967Z" fill="#C40D3C"/>
<path d="M16.6035 34.4932C20.8943 29.1223 29.0608 29.1223 33.3516 34.4932L32.9609 34.8047L32.5703 35.1172C28.6799 30.2475 21.2752 30.2475 17.3848 35.1172L16.9941 34.8047L16.6035 34.4932Z" fill="#C40D3C"/>
</svg>
