<svg width="50" height="50" viewBox="0 0 50 50" fill="none" xmlns="http://www.w3.org/2000/svg">
<path d="M23.7 17.9231L23.3498 16.8663C22.8822 15.4551 23.9487 14 25.4354 14V14C26.6246 14 27.6 14.9641 27.6 16.1533V16.26C27.6 17.2797 27.0252 18.2122 26.1143 18.6703V18.6703C25.4311 19.0139 25 19.7133 25 20.4781V21.1923L37.1512 27.915C37.6749 28.2048 38 28.7561 38 29.3547V29.3547C38 30.2634 37.2634 31 36.3547 31H13.6656C12.7457 31 12 30.2543 12 29.3344V29.3344C12 28.7457 12.3108 28.2007 12.8174 27.9009L23.05 21.8462" stroke="#1A1919" stroke-linecap="round" stroke-linejoin="round"/>
</svg>
