<svg width="50" height="50" viewBox="0 0 50 50" fill="none" xmlns="http://www.w3.org/2000/svg">
<path d="M17 36.5C16.7239 36.5 16.5 36.7239 16.5 37C16.5 37.2761 16.7239 37.5 17 37.5V36.5ZM30.5 37.5C30.7761 37.5 31 37.2761 31 37C31 36.7239 30.7761 36.5 30.5 36.5V37.5ZM21.5 28.1C21.2239 28.1 21 28.3239 21 28.6C21 28.8761 21.2239 29.1 21.5 29.1V28.1ZM26 29.1C26.2761 29.1 26.5 28.8761 26.5 28.6C26.5 28.3239 26.2761 28.1 26 28.1V29.1ZM30.5 28.1C30.2239 28.1 30 28.3239 30 28.6C30 28.8761 30.2239 29.1 30.5 29.1V28.1ZM35.5 17.8C35.5 17.5239 35.2761 17.3 35 17.3C34.7239 17.3 34.5 17.5239 34.5 17.8H35.5ZM30.5 20.2H30V31.1333H30.5H31V20.2H30.5ZM28.375 33.4V32.9H19.125V33.4V33.9H28.375V33.4ZM17 31.1333H17.5V20.2H17H16.5V31.1333H17ZM19.125 33.4V32.9C18.2574 32.9 17.5 32.1399 17.5 31.1333H17H16.5C16.5 32.6304 17.6453 33.9 19.125 33.9V33.4ZM30.5 31.1333H30C30 32.1399 29.2426 32.9 28.375 32.9V33.4V33.9C29.8547 33.9 31 32.6304 31 31.1333H30.5ZM23.75 13V13.5C27.1719 13.5 30 16.4688 30 20.2H30.5H31C31 15.9783 27.784 12.5 23.75 12.5V13ZM23.75 13V12.5C19.716 12.5 16.5 15.9783 16.5 20.2H17H17.5C17.5 16.4688 20.3281 13.5 23.75 13.5V13ZM17 37V37.5H30.5V37V36.5H17V37ZM21.5 28.6V29.1H26V28.6V28.1H21.5V28.6ZM30.5 28.6V29.1H32.75V28.6V28.1H30.5V28.6ZM35 26.2H35.5V17.8H35H34.5V26.2H35ZM32.75 28.6V29.1C34.2987 29.1 35.5 27.7707 35.5 26.2H35H34.5C34.5 27.2802 33.6866 28.1 32.75 28.1V28.6Z" fill="#1A1919"/>
</svg>
