<svg width="30" height="30" viewBox="0 0 30 30" fill="none" xmlns="http://www.w3.org/2000/svg">
<path d="M16.3223 12.0996C16.5982 12.0998 16.8222 12.3237 16.8223 12.5996C16.8223 12.8756 16.5982 13.0994 16.3223 13.0996H8.90234V18.0996H9.1123C9.08605 17.9703 9.11015 17.8307 9.19141 17.7139L9.86621 16.7451L9.94727 16.6543C10.0373 16.5755 10.1541 16.5304 10.2764 16.5303H19.7266C19.8901 16.5303 20.0432 16.611 20.1367 16.7451L20.8115 17.7139C20.8929 17.8308 20.9169 17.9701 20.8906 18.0996H21.1025V12.5996C21.1026 12.3235 21.3264 12.0996 21.6025 12.0996C21.8784 12.0999 22.1025 12.3237 22.1025 12.5996V18.5996C22.1025 18.8756 21.8784 19.0993 21.6025 19.0996H8.40234C8.1262 19.0996 7.90234 18.8758 7.90234 18.5996V12.5996C7.90242 12.3235 8.12625 12.0996 8.40234 12.0996H16.3223ZM10.1406 18.0996H19.8623L19.4658 17.5303H10.5371L10.1406 18.0996ZM10.9512 13.2998C11.2273 13.2998 11.4512 13.5237 11.4512 13.7998C11.4511 14.0759 11.2273 14.2998 10.9512 14.2998H9.60156C9.32562 14.2996 9.10159 14.0758 9.10156 13.7998C9.10156 13.5238 9.3256 13.3 9.60156 13.2998H10.9512ZM19.2021 10.2998C19.4782 10.2999 19.7021 10.5237 19.7021 10.7998V11.3838L20.0312 11.1943C20.2703 11.0566 20.5768 11.1389 20.7148 11.3779C20.8525 11.6169 20.77 11.9225 20.5312 12.0605L19.9609 12.3896L20.5312 12.7188C20.7701 12.8569 20.8528 13.1633 20.7148 13.4023C20.5768 13.6414 20.2703 13.7227 20.0312 13.585L19.7021 13.3945V13.7998C19.7021 14.0759 19.4782 14.2997 19.2021 14.2998C18.926 14.2998 18.7022 14.0759 18.7021 13.7998V13.1162L17.8906 13.585C17.6516 13.7228 17.3461 13.6412 17.208 13.4023C17.07 13.1633 17.1516 12.8569 17.3906 12.7188L17.96 12.3896L17.3906 12.0605C17.1518 11.9224 17.0702 11.6169 17.208 11.3779C17.346 11.1389 17.6515 11.0566 17.8906 11.1943L18.7021 11.6621V10.7998C18.7021 10.5237 18.926 10.2998 19.2021 10.2998Z" fill="#C40D3C"/>
</svg>
