<svg width="50" height="50" viewBox="0 0 50 50" fill="none" xmlns="http://www.w3.org/2000/svg">
<path d="M36.3535 15L36.3545 14.5H36.3662C36.372 14.5001 36.3799 14.5007 36.3887 14.501C36.4062 14.5016 36.4297 14.5019 36.458 14.5039C36.515 14.508 36.5932 14.5168 36.6855 14.5322C36.868 14.5626 37.1191 14.6235 37.376 14.752C37.6349 14.8814 37.9089 15.0841 38.1172 15.3965C38.3274 15.712 38.4502 16.1102 38.4502 16.5967V29.3701H37.9502L38.4502 29.3711V29.4053C38.4496 29.4228 38.4483 29.4463 38.4463 29.4746C38.4422 29.5316 38.4343 29.6098 38.4189 29.7021C38.3885 29.8846 38.3267 30.1357 38.1982 30.3926C38.0688 30.6514 37.866 30.9256 37.5537 31.1338C37.2382 31.344 36.84 31.4668 36.3535 31.4668H15.5967V30.9668L15.5957 31.4668H15.584C15.5783 31.4667 15.5711 31.4661 15.5625 31.4658C15.5449 31.4652 15.5207 31.4649 15.4922 31.4629C15.4353 31.4588 15.3569 31.4509 15.2646 31.4355C15.0824 31.4051 14.8318 31.3431 14.5752 31.2148C14.3163 31.0854 14.0413 30.8827 13.833 30.5703C13.6228 30.2549 13.5 29.8565 13.5 29.3701V16.5967H14L13.5 16.5957V16.584C13.5001 16.5783 13.5007 16.5711 13.501 16.5625C13.5016 16.5449 13.5019 16.5207 13.5039 16.4922C13.508 16.4353 13.5168 16.3569 13.5322 16.2646C13.5626 16.0824 13.6238 15.8318 13.752 15.5752C13.8814 15.3163 14.0841 15.0413 14.3965 14.833C14.712 14.6228 15.1102 14.5 15.5967 14.5H36.3535V15ZM15.5967 15.5C15.2853 15.5 15.0847 15.5761 14.9512 15.665C14.8146 15.7561 14.7166 15.8813 14.6465 16.0215C14.5754 16.1637 14.538 16.3127 14.5186 16.4297C14.5091 16.4867 14.5041 16.5331 14.502 16.5635C14.5009 16.5786 14.5002 16.5899 14.5 16.5957V29.3701C14.5 29.6814 14.5761 29.8821 14.665 30.0156C14.7561 30.1522 14.8813 30.2502 15.0215 30.3203C15.1637 30.3914 15.3127 30.4297 15.4297 30.4492C15.4867 30.4587 15.5332 30.4627 15.5635 30.4648C15.5786 30.4659 15.5899 30.4666 15.5957 30.4668H36.3535C36.6649 30.4668 36.8655 30.3907 36.999 30.3018C37.1356 30.2107 37.2336 30.0855 37.3037 29.9453C37.3748 29.8031 37.4131 29.6541 37.4326 29.5371C37.4421 29.4801 37.4461 29.4336 37.4482 29.4033C37.4493 29.3882 37.45 29.3769 37.4502 29.3711V16.5967C37.4502 16.2852 37.3741 16.0847 37.2852 15.9512C37.1941 15.8145 37.0689 15.7166 36.9287 15.6465C36.7865 15.5754 36.6375 15.538 36.5205 15.5186C36.4634 15.5091 36.417 15.5041 36.3867 15.502C36.3716 15.5009 36.3603 15.5002 36.3545 15.5H15.5967Z" fill="#C40D3C"/>
<path d="M28 26.5C28.8485 26.5 29.6957 26.595 30.541 26.7842C31.2803 26.9496 32.0162 27.1868 32.749 27.4941L33.0635 27.6299L33.0664 27.6318C33.4874 27.8238 33.836 28.1003 34.0967 28.4648C34.3593 28.8308 34.5 29.2412 34.5 29.6836V31.5H21.5V29.6836C21.5 29.2416 21.6404 28.8318 21.9023 28.4658L22.0039 28.333C22.2513 28.033 22.5643 27.8 22.9326 27.6318L22.9355 27.6299C23.7732 27.255 24.6149 26.9728 25.46 26.7842L25.7764 26.7178C26.5161 26.5728 27.2575 26.5 28 26.5ZM28 27.5C27.2269 27.5 26.4533 27.5863 25.6787 27.7598H25.6777C24.9025 27.9328 24.1251 28.1937 23.3447 28.543L23.3438 28.542C23.1389 28.636 22.9729 28.7554 22.8389 28.8975L22.7148 29.0479C22.5654 29.2567 22.5 29.4654 22.5 29.6836V30.5H33.5V29.6836C33.5 29.5201 33.4626 29.362 33.3809 29.2051L33.2842 29.0479C33.1342 28.8379 32.9291 28.6685 32.6553 28.543L32.3623 28.416C31.6809 28.1302 31.0008 27.9116 30.3223 27.7598C29.5471 27.5863 28.7732 27.5 28 27.5Z" fill="#C40D3C"/>
<path d="M28.002 17.5C29.0973 17.5044 30.0477 17.8987 30.8252 18.6719C31.6042 19.4466 31.9991 20.3992 32 21.5C32.0009 22.6015 31.6054 23.5537 30.8242 24.3271C30.0456 25.098 29.0964 25.492 28.0039 25.5H28C26.904 25.5 25.9527 25.1032 25.1738 24.3242C24.4439 23.594 24.0506 22.7128 24.0049 21.7031L24 21.499C24.0009 20.4041 24.3972 19.4532 25.1738 18.6729C25.9518 17.8913 26.9037 17.4956 28.002 17.5ZM27.998 18.5C27.1691 18.4967 26.4727 18.7853 25.8818 19.3789C25.2899 19.9738 25.0007 20.6721 25 21.5C24.9994 22.3273 25.2888 23.024 25.8818 23.6172C26.4742 24.2096 27.1702 24.4983 27.9971 24.499C28.8284 24.4928 29.527 24.2034 30.1201 23.6162C30.7107 23.0315 31.0007 22.3363 31 21.501C30.9993 20.665 30.7089 19.9684 30.1191 19.3818C29.5277 18.7937 28.83 18.5034 27.998 18.5Z" fill="#C40D3C"/>
<path d="M28.5 33C28.7761 33 29 33.2239 29 33.5C29 33.7761 28.7761 34 28.5 34H23C22.7239 34 22.5 33.7761 22.5 33.5C22.5 33.2239 22.7239 33 23 33H28.5Z" fill="#C40D3C"/>
<path d="M26 30.5C26.2761 30.5 26.5 30.7239 26.5 31V33.5C26.5 33.7761 26.2761 34 26 34C25.7239 34 25.5 33.7761 25.5 33.5V31C25.5 30.7239 25.7239 30.5 26 30.5Z" fill="#C40D3C"/>
<path d="M18.5 17.5C18.7761 17.5 19 17.7239 19 18C19 18.2761 18.7761 18.5 18.5 18.5H16C15.7239 18.5 15.5 18.2761 15.5 18C15.5 17.7239 15.7239 17.5 16 17.5H18.5Z" fill="#C40D3C"/>
<path d="M18.5 19.5C18.7761 19.5 19 19.7239 19 20C19 20.2761 18.7761 20.5 18.5 20.5H16C15.7239 20.5 15.5 20.2761 15.5 20C15.5 19.7239 15.7239 19.5 16 19.5H18.5Z" fill="#C40D3C"/>
<path d="M18.5 21.5C18.7761 21.5 19 21.7239 19 22C19 22.2761 18.7761 22.5 18.5 22.5H16C15.7239 22.5 15.5 22.2761 15.5 22C15.5 21.7239 15.7239 21.5 16 21.5H18.5Z" fill="#C40D3C"/>
</svg>
