<svg width="50" height="50" viewBox="0 0 50 50" fill="none" xmlns="http://www.w3.org/2000/svg">
<path d="M27.2861 11.5C27.7439 11.5001 28.1473 11.6696 28.4629 12.001C28.7772 12.3312 28.9297 12.7427 28.9287 13.2012C28.9277 13.6585 28.7752 14.0692 28.4629 14.3994C28.2685 14.6049 28.04 14.747 27.7861 14.8262V15.0996H30.7139C31.4843 15.0996 32.1526 15.3952 32.6914 15.9609C33.2293 16.5258 33.5008 17.2147 33.5 18V20.4004C33.4999 21.1861 33.2286 21.8755 32.6914 22.4404C32.2732 22.8802 31.7761 23.1531 31.2139 23.2539V28.3457C31.7758 28.447 32.2728 28.7216 32.6914 29.1611C33.2293 29.726 33.5008 30.4148 33.5 31.2002V33.5996C33.5 34.3854 33.2285 35.0746 32.6914 35.6396C32.2203 36.1352 31.65 36.4229 30.998 36.4863L30.7139 36.5H19.2861C18.5159 36.5 17.8478 36.2058 17.3096 35.6406C16.7721 35.0763 16.5009 34.3868 16.5 33.6006V31.2002C16.5 30.4141 16.7722 29.7245 17.3105 29.1602C17.7289 28.7217 18.2251 28.4484 18.7861 28.3467V23.2529C18.2246 23.1517 17.7276 22.8794 17.3096 22.4404C16.7722 21.8761 16.5009 21.1866 16.5 20.4004V18C16.5 17.2139 16.7722 16.5253 17.3105 15.9609C17.8492 15.3963 18.5158 15.1006 19.2852 15.0996H22.2139V14.8252C21.9603 14.7457 21.7324 14.6032 21.5381 14.3984C21.2252 14.0687 21.0723 13.6585 21.0713 13.2012C21.0703 12.742 21.2236 12.3301 21.5391 12C21.8547 11.6698 22.257 11.5001 22.7139 11.5H27.2861ZM22.7139 12.5C22.5266 12.5001 22.3863 12.5611 22.2617 12.6914C22.137 12.822 22.0708 12.9801 22.0713 13.1992C22.0719 13.4201 22.1393 13.5789 22.2637 13.71C22.3858 13.8386 22.5244 13.9003 22.7139 13.9004C22.99 13.9004 23.2139 14.1242 23.2139 14.4004V15.5996C23.2139 15.8758 22.99 16.0996 22.7139 16.0996H19.2861C18.8002 16.1003 18.3914 16.2761 18.0342 16.6504C17.6766 17.0253 17.5 17.4661 17.5 18V20.3994L17.5088 20.5957C17.5478 21.0439 17.7218 21.423 18.0342 21.751C18.3904 22.1249 18.7993 22.2998 19.2861 22.2998C19.562 22.3 19.786 22.5239 19.7861 22.7998V28.7998C19.7861 29.0757 19.562 29.2995 19.2861 29.2998C18.8001 29.3005 18.3914 29.4762 18.0342 29.8506C17.6766 30.2254 17.5 30.6663 17.5 31.2002V33.5996L17.5088 33.7959C17.5479 34.244 17.7218 34.6232 18.0342 34.9512C18.3904 35.325 18.7993 35.5 19.2861 35.5H30.7148C31.2022 35.5006 31.6108 35.3256 31.9668 34.9512C32.324 34.5754 32.5 34.1338 32.5 33.5996V31.1992C32.5006 30.6666 32.3246 30.2263 31.9668 29.8506C31.6096 29.4756 31.2005 29.2998 30.7139 29.2998C30.4379 29.2996 30.2139 29.0758 30.2139 28.7998V22.7998C30.2139 22.6672 30.2675 22.54 30.3613 22.4463C30.4552 22.3526 30.5822 22.2997 30.7148 22.2998C31.2022 22.3004 31.6108 22.1255 31.9668 21.751C32.3239 21.3753 32.4999 20.9343 32.5 20.4004V17.999C32.5005 17.4665 32.3246 17.0261 31.9668 16.6504C31.6096 16.2755 31.2005 16.0996 30.7139 16.0996H27.2861C27.01 16.0996 26.7861 15.8758 26.7861 15.5996V14.4004C26.7861 14.2675 26.8385 14.1397 26.9326 14.0459C27.0269 13.9521 27.1551 13.8998 27.2881 13.9004C27.4764 13.9013 27.6146 13.8407 27.7363 13.7119C27.8612 13.5799 27.9281 13.42 27.9287 13.1992C27.9292 12.9794 27.8626 12.821 27.7383 12.6904C27.6152 12.5613 27.4756 12.5001 27.2861 12.5H22.7139Z" fill="#C40D3C"/>
<path d="M28 23.5C28.2761 23.5 28.5 23.7239 28.5 24C28.5 24.2761 28.2761 24.5 28 24.5H22.5C22.2239 24.5 22 24.2761 22 24C22 23.7239 22.2239 23.5 22.5 23.5H28Z" fill="#C40D3C"/>
<path d="M28 26.5C28.2761 26.5 28.5 26.7239 28.5 27C28.5 27.2761 28.2761 27.5 28 27.5H22.5C22.2239 27.5 22 27.2761 22 27C22 26.7239 22.2239 26.5 22.5 26.5H28Z" fill="#C40D3C"/>
</svg>
