<svg width="50" height="50" viewBox="0 0 50 50" fill="none" xmlns="http://www.w3.org/2000/svg">
<path d="M38 24.5C38.2761 24.5 38.5 24.7239 38.5 25V35C38.5 35.2761 38.2761 35.5 38 35.5H14C13.7239 35.5 13.5 35.2761 13.5 35V25C13.5 24.7239 13.7239 24.5 14 24.5H38ZM14.5 34.5H37.5V25.5H14.5V34.5Z" fill="#1A1919"/>
<path d="M36 20.5C36.2761 20.5 36.5 20.7239 36.5 21V25C36.5 25.2761 36.2761 25.5 36 25.5H28C27.7239 25.5 27.5 25.2761 27.5 25V21C27.5 20.7239 27.7239 20.5 28 20.5H36ZM28.5 24.5H35.5V21.5H28.5V24.5Z" fill="#1A1919"/>
<path d="M22 21.5C22.2761 21.5 22.5 21.7239 22.5 22V25C22.5 25.2761 22.2761 25.5 22 25.5H18C17.7239 25.5 17.5 25.2761 17.5 25V22C17.5 21.7239 17.7239 21.5 18 21.5H22ZM18.5 24.5H21.5V22.5H18.5V24.5Z" fill="#1A1919"/>
<path d="M26.5 35H25.5V25H26.5V35Z" fill="#1A1919"/>
<path d="M22 28.5C22.2761 28.5 22.5 28.7239 22.5 29V31C22.5 31.2761 22.2761 31.5 22 31.5C21.7239 31.5 21.5 31.2761 21.5 31V29C21.5 28.7239 21.7239 28.5 22 28.5Z" fill="#1A1919"/>
<path d="M20 18.5C20.2761 18.5 20.5 18.7239 20.5 19V22C20.5 22.2761 20.2761 22.5 20 22.5C19.7239 22.5 19.5 22.2761 19.5 22V19C19.5 18.7239 19.7239 18.5 20 18.5Z" fill="#1A1919"/>
<path d="M30 28.5C30.2761 28.5 30.5 28.7239 30.5 29V31C30.5 31.2761 30.2761 31.5 30 31.5C29.7239 31.5 29.5 31.2761 29.5 31V29C29.5 28.7239 29.7239 28.5 30 28.5Z" fill="#1A1919"/>
<path d="M37 34.5C37.2761 34.5 37.5 34.7239 37.5 35V37C37.5 37.2761 37.2761 37.5 37 37.5H35.5C35.3427 37.5 35.194 37.4257 35.0996 37.2998L33.5996 35.2998C33.4862 35.1483 33.4681 34.9456 33.5527 34.7764C33.6374 34.607 33.8107 34.5 34 34.5H37ZM35.75 36.5H36.5V35.5H35L35.75 36.5Z" fill="#1A1919"/>
<path d="M18 34.5C18.1894 34.5 18.3626 34.607 18.4473 34.7764C18.5319 34.9456 18.5138 35.1483 18.4004 35.2998L16.9004 37.2998C16.806 37.4257 16.6574 37.5 16.5 37.5H15C14.7239 37.5 14.5 37.2761 14.5 37V35C14.5 34.7239 14.7239 34.5 15 34.5H18ZM15.5 36.5H16.25L17 35.5H15.5V36.5Z" fill="#1A1919"/>
<path d="M23.1997 13.5C23.4145 13.5001 23.6019 13.6365 23.6714 13.833L23.6929 13.9209L24.4937 18.9209C24.5168 19.0653 24.4752 19.2129 24.3804 19.3242C24.2854 19.4355 24.1458 19.5 23.9995 19.5H15.9995C15.8532 19.4999 15.7136 19.4355 15.6187 19.3242C15.524 19.2129 15.4823 19.0652 15.5054 18.9209L16.3062 13.9209C16.3402 13.7088 16.5045 13.5454 16.7095 13.5078L16.7993 13.5H23.1997ZM17.2261 14.5L16.5864 18.5H23.4126L22.7729 14.5H17.2261Z" fill="#1A1919"/>
</svg>
