<svg width="56" height="56" viewBox="0 0 56 56" fill="none" xmlns="http://www.w3.org/2000/svg">
<circle cx="28" cy="28" r="27.75" stroke="#A3AC6F" stroke-width="0.5"/>
<circle cx="28" cy="28" r="25" fill="#A3AC6F"/>
<path d="M24.7493 16.8029C25.2112 16.9061 25.6762 16.9916 26.1309 17.1271C27.0432 17.3993 27.9014 17.8383 28.821 18.0885C30.6395 18.5838 32.2682 18.6338 34.0512 19.4409C35.659 20.1687 38.319 21.6462 38.026 23.7326C38.6495 24.1278 40.077 24.7023 40.1666 25.5365C40.4075 27.7856 36.7059 26.207 35.6298 26.1361C34.6038 26.0693 33.4548 26.5917 32.409 26.6668C31.4914 26.7325 30.4977 26.6439 29.5832 26.5688C29.3361 27.2663 29.0671 27.9493 28.6114 28.5405C28.0849 29.2245 26.4364 30.4434 25.646 30.8157C25.353 30.9533 25.1142 31.0055 24.8431 30.7844C24.2988 30.3402 24.9818 29.603 25.1685 29.0869C25.2258 28.9274 25.3728 28.5218 25.3728 28.3768V26.8607C24.2978 27.2027 23.1414 27.6959 22.4241 28.5979C21.5023 29.7573 20.5451 32.5904 20.9288 34.0324C21.0873 34.6268 21.4731 34.3755 21.9861 34.4161C22.6879 34.4714 23.2499 34.5976 23.8682 34.9364C24.3645 35.2086 25.6742 36.0344 24.9172 36.6777C24.67 36.8873 23.7587 36.8821 23.3552 36.9895C22.8557 37.123 22.4116 37.4399 21.9403 37.5932C21.7338 37.66 21.2542 37.6819 21.1489 37.7621C21.0832 37.8122 20.9476 38.1229 20.8569 38.2397C20.1645 39.1312 19.1302 39.0499 18.5275 40.0926C18.2491 40.5753 18.222 41.2354 17.6881 41.4408H17.4004C16.7341 41.1864 16.7799 39.9977 16.8217 39.394C16.9092 38.1229 17.5401 37.2554 17.9989 36.146C18.5296 34.8603 18.0062 33.4871 17.881 32.1284C17.7079 30.2464 17.7205 28.2027 18.1824 26.3675C18.9206 23.4365 20.9966 21.0029 23.5471 19.4722C22.9955 18.9696 22.226 18.7871 21.5326 18.5556C20.5337 17.5609 22.4147 17.1136 23.1143 16.9196L23.789 16.8008H24.7493V16.8029Z" fill="white"/>
<circle opacity="0.5" cx="28" cy="28" r="21.75" stroke="white" stroke-width="0.5"/>
</svg>
