<svg width="56" height="56" viewBox="0 0 56 56" fill="none" xmlns="http://www.w3.org/2000/svg">
<circle cx="28" cy="28" r="27.75" stroke="#A3AC6F" stroke-width="0.5"/>
<circle cx="28" cy="28" r="25" fill="#A3AC6F"/>
<path fill-rule="evenodd" clip-rule="evenodd" d="M33.2417 30.7669C33.0287 30.7991 32.8116 30.7915 32.6014 30.7442H32.575C32.5602 30.7388 32.5467 30.7305 32.5352 30.7197C32.5237 30.7088 32.5145 30.6958 32.5082 30.6813C32.5019 30.6669 32.4985 30.6513 32.4984 30.6355C32.4982 30.6197 32.5012 30.604 32.5073 30.5894C32.5858 30.3808 32.7006 30.1877 32.8462 30.0192C32.9908 29.8512 33.1643 29.7105 33.3584 29.6039C33.5507 29.4992 33.7597 29.4289 33.9761 29.3962C34.1904 29.3658 34.4084 29.3735 34.6201 29.4189H34.6465C34.6757 29.4306 34.6992 29.4535 34.7119 29.4824C34.7245 29.5113 34.7254 29.5441 34.7143 29.5737C34.6357 29.7823 34.521 29.9754 34.3753 30.1439C34.0859 30.4813 33.6846 30.7025 33.2454 30.7669M21.8978 17.0221C22.1497 17.6177 22.6107 18.1 23.1934 18.3777C23.2013 18.4435 23.2203 18.5073 23.2499 18.5665C23.2837 18.6414 23.3296 18.7103 23.3855 18.7704C23.4429 18.8272 23.509 18.8744 23.5813 18.9101C23.6534 18.9447 23.7314 18.9652 23.8111 18.9706C23.8222 18.9698 23.8328 18.9653 23.841 18.9578C23.8492 18.9502 23.8546 18.9401 23.8563 18.929C23.8501 18.8452 23.8284 18.7632 23.7922 18.6874C23.7645 18.6244 23.7277 18.5659 23.683 18.5137C23.7507 18.5176 23.8187 18.5176 23.8864 18.5137C24.1443 18.5133 24.3995 18.4598 24.6359 18.3566C24.8724 18.2533 25.0852 18.1024 25.2611 17.9133C25.345 17.8363 25.4242 17.7543 25.4984 17.6678C25.6106 17.708 25.7295 17.7259 25.8486 17.7207C25.9674 17.7174 26.0842 17.6891 26.1913 17.6376C26.301 17.5902 26.4007 17.5223 26.4851 17.4375C26.5672 17.3509 26.6346 17.2514 26.6847 17.143C26.6887 17.1255 26.6863 17.1071 26.6781 17.0912C26.6698 17.0753 26.6561 17.0628 26.6395 17.0561C26.5271 17.0169 26.4081 17.0002 26.2893 17.007C26.171 17.0113 26.0547 17.0382 25.9465 17.0863C25.9102 17.1029 25.875 17.1219 25.841 17.143L25.9089 16.9881C26.0595 16.6105 26.2215 16.4708 26.3533 16.4482C26.6019 16.5237 26.9558 16.2745 27.0651 15.9875C27.1743 15.7005 27.0651 14.9189 26.3796 14.9264C26.2491 14.9292 26.1209 14.9614 26.0046 15.0208C25.8883 15.0802 25.7869 15.1652 25.708 15.2694C25.629 15.3736 25.5746 15.4944 25.5487 15.6226C25.5228 15.7509 25.5262 15.8834 25.5586 16.0102C25.5927 16.0754 25.645 16.1292 25.7092 16.165C25.89 16.3727 25.7093 16.72 25.5398 16.9957C25.3703 17.2713 25.2423 17.3733 25.0803 17.0674C24.9184 16.7616 24.9673 16.6898 25.0502 16.5841C25.1559 16.4929 25.2265 16.3675 25.2499 16.2296C25.2733 16.0918 25.248 15.95 25.1782 15.8289C25.1172 15.736 25.0346 15.6593 24.9376 15.6052C24.8406 15.5512 24.732 15.5214 24.6211 15.5184C24.5102 15.5155 24.4002 15.5394 24.3005 15.5882C24.2008 15.637 24.1143 15.7092 24.0484 15.7987C23.6718 16.3009 24.0483 16.9315 24.3346 16.9315C24.4137 16.9398 24.4933 16.9212 24.5606 16.8786C24.6999 16.9995 25.0878 17.5168 24.8468 17.7509C24.669 17.9098 24.4561 18.0241 24.2256 18.0845C23.9952 18.1449 23.7537 18.1496 23.5211 18.0983C23.1393 17.977 22.8108 17.7277 22.5908 17.3922C22.6825 17.4576 22.7843 17.5073 22.8921 17.5394C22.9985 17.5701 23.1096 17.5803 23.2198 17.5697C23.3278 17.5609 23.4329 17.53 23.5286 17.479C23.5359 17.4754 23.5424 17.4704 23.5477 17.4642C23.553 17.4581 23.557 17.4509 23.5594 17.4431C23.5619 17.4354 23.5628 17.4272 23.562 17.4191C23.5612 17.411 23.5589 17.4031 23.555 17.396C23.4897 17.3028 23.4096 17.2212 23.3177 17.1543C23.2265 17.0881 23.1245 17.0383 23.0164 17.007C22.91 16.9764 22.7989 16.9662 22.6887 16.9768C22.5963 16.9837 22.5059 17.0067 22.4213 17.0448C22.2707 16.6483 21.8903 16.7842 21.8941 17.0221H21.8978ZM35.8554 18.2267C36.0372 18.1791 36.2261 18.1651 36.4128 18.1851H36.4354C36.4616 18.1931 36.4837 18.2109 36.4971 18.2348C36.5105 18.2588 36.514 18.287 36.507 18.3135C36.4571 18.4998 36.3755 18.6761 36.2659 18.8346C36.1572 18.9927 36.0206 19.1296 35.863 19.2387C35.707 19.349 35.5321 19.4296 35.347 19.4766C35.1665 19.5242 34.9789 19.5383 34.7933 19.5181H34.7708C34.7445 19.5102 34.7224 19.4924 34.7091 19.4684C34.6957 19.4445 34.6922 19.4162 34.6992 19.3897C34.7475 19.2028 34.8291 19.0263 34.9402 18.8686C35.049 18.7105 35.1856 18.5736 35.3432 18.4646C35.4968 18.3548 35.6691 18.2742 35.8517 18.2267H35.8554ZM27.1705 19.2726C27.1938 19.2516 27.221 19.2354 27.2507 19.2251C27.2803 19.2148 27.3117 19.2105 27.3429 19.2126C27.3742 19.2148 27.4048 19.2232 27.4327 19.2374C27.4607 19.2516 27.4855 19.2713 27.5057 19.2953C27.5495 19.341 27.5739 19.4019 27.5739 19.4652C27.5739 19.5286 27.5495 19.5894 27.5057 19.6351C27.4612 19.6796 27.401 19.7046 27.3382 19.7046C27.2753 19.7046 27.215 19.6796 27.1705 19.6351C27.1461 19.6118 27.1267 19.5838 27.1132 19.5529C27.0998 19.5219 27.0927 19.4885 27.0924 19.4547C27.092 19.4209 27.0984 19.3874 27.1112 19.3561C27.124 19.3249 27.1429 19.2965 27.1668 19.2726H27.1705ZM29.8634 13.4613C30.162 13.6493 30.4092 13.9088 30.5827 14.2165C30.6008 14.2627 30.6008 14.3139 30.5827 14.36C30.4698 14.613 30.3003 14.8547 30.112 14.7376C29.8446 14.545 29.6148 14.6357 29.6713 14.36C29.797 14.0773 29.8612 13.7709 29.8596 13.4613H29.8634ZM27.8447 16.1763C27.7791 16.514 27.5947 16.8169 27.325 17.0297C26.7902 17.4073 27.6639 16.9919 27.9577 17.2562L28.0142 17.3053C28.3737 17.8497 28.9164 18.2463 29.5433 18.423C30.6543 18.8006 31.6448 18.3815 32.5562 17.5017C33.769 16.3424 34.0627 15.2776 35.6257 14.6659C36.8422 14.1939 37.4297 14.2883 36.5032 13.6954C36.5032 13.6954 35.5767 13.1895 35.2227 13.3594C34.7382 13.6743 34.2752 14.0212 33.8368 14.3978C33.6673 14.5337 33.6635 14.5602 33.6522 14.7036C33.6177 15.1525 33.4483 15.5804 33.1664 15.9309C32.8391 16.3138 32.4314 16.6194 31.9724 16.8258C31.9235 16.8258 31.8896 16.8258 31.9724 16.754L32.0403 16.6785C32.4435 16.2847 32.7503 15.8026 32.9366 15.27C33.4677 13.5822 32.511 12.0378 32.1834 12C32.0327 13.197 31.1062 13.9182 30.5526 15.2512C30.4216 15.1889 30.2871 15.1347 30.1496 15.0888C28.9859 14.798 28.0933 15.3833 27.8899 16.165L27.8447 16.1763ZM28.3983 16.2971C28.6205 16.2745 28.6544 16.3953 28.6582 16.5086C28.6575 16.5659 28.6354 16.6209 28.5964 16.6628C28.5574 16.7046 28.5042 16.7305 28.4473 16.7351C28.1761 16.7427 28.1686 16.3198 28.3945 16.2971H28.3983ZM19.8792 16.2216C19.6682 16.3802 19.3293 16.7049 19.5025 16.924C19.5693 16.9915 19.6517 17.0413 19.7424 17.069C19.8331 17.0967 19.9293 17.1013 20.0223 17.0825C20.2953 17.0518 20.5593 16.9658 20.7981 16.8296C21.846 16.0074 23.0251 15.369 24.2856 14.9415C25.4247 14.5081 26.6339 14.2892 27.8522 14.2958C28.0594 14.2958 28.3343 14.2958 28.5414 14.2958C29.1855 14.2392 29.1403 13.3254 28.1648 13.3254C26.7513 13.3413 25.3506 13.5966 24.022 14.0806C22.537 14.5734 21.1379 15.2958 19.8754 16.2216H19.8792ZM35.3206 16.2783C35.8602 16.5782 36.3654 16.9365 36.8271 17.3469C36.876 17.3869 36.9325 17.4167 36.9931 17.4342C37.0538 17.4518 37.1173 17.4569 37.18 17.4491C37.2427 17.4413 37.3031 17.4209 37.3577 17.3891C37.4123 17.3572 37.4598 17.3146 37.4975 17.2638C37.5765 17.1616 37.6125 17.0325 37.5977 16.904C37.5829 16.7756 37.5186 16.658 37.4184 16.5766C36.9894 16.1664 36.517 15.8043 36.0098 15.4966C35.539 15.3342 34.8197 15.9988 35.3055 16.2783H35.3206ZM19.6381 28.826C19.2879 28.7432 18.9229 28.7462 18.5741 28.835C18.2253 28.9237 17.903 29.0955 17.6345 29.3358C17.4876 29.4604 18.1354 30.1174 19.0769 30.2685C19.6213 30.3342 20.1733 30.2655 20.6851 30.0683C20.8297 30.0193 20.9852 30.0121 21.1337 30.0475C21.2822 30.0829 21.4178 30.1595 21.525 30.2685C21.5769 30.3161 21.6083 30.3822 21.6125 30.4527C21.6167 30.5232 21.5935 30.5925 21.5476 30.6461C21.4233 30.816 21.2953 30.782 21.1182 30.7896C19.8882 30.7776 18.677 31.093 17.6081 31.7034C17.0681 32.0775 16.5638 32.5009 16.1016 32.9683C15.8079 33.2364 15.8192 33.176 15.725 32.8664C15.6345 32.6492 15.6109 32.4099 15.6572 32.1791C15.8088 30.9932 16.3587 29.8945 17.2165 29.0639C17.9149 28.4251 18.7871 28.0093 19.7221 27.8694C20.6572 27.7296 21.6125 27.872 22.4665 28.2785C23.8806 28.9592 25.0462 30.0672 25.7996 31.4466C26.3947 32.3906 26.4776 33.0854 26.3458 32.8815C25.5695 31.9808 24.5384 31.3381 23.3893 31.0388C22.8394 30.8915 22.636 30.8764 22.2029 30.3402C21.528 29.5702 20.6232 29.0392 19.6231 28.826H19.6381ZM20.0939 21.2135C20.6776 21.8177 21.4911 22.9656 24.7037 23.1733C25.6896 23.2266 26.678 23.135 27.6375 22.9014C27.7392 23.0449 27.8824 23.279 28.0443 23.5094C27.4509 23.7919 26.9107 24.1752 26.4474 24.6422C26.1123 24.9631 26.1348 24.8876 25.9051 24.7517C25.0434 24.3175 24.0899 24.0986 23.1256 24.1135C22.5042 24.1135 22.6963 24.2079 22.233 23.785C21.1583 22.8042 19.9087 22.0356 18.5497 21.5194C17.3934 21.0965 17.0432 20.9681 17.2315 20.6509C17.2596 20.6034 17.2848 20.5542 17.3068 20.5036C17.4914 20.2204 17.6834 19.9448 17.8981 19.6767L17.9584 19.5974C18.0002 19.4958 18.0087 19.3835 17.9827 19.2768C17.9566 19.1701 17.8973 19.0744 17.8134 19.0038C17.7295 18.9331 17.6252 18.891 17.5159 18.8837C17.4065 18.8764 17.2977 18.9042 17.2052 18.963C16.3377 20.0695 15.6314 21.2938 15.1073 22.5993C14.3764 24.4083 14.0004 26.3418 14.0001 28.2936C13.9857 32.2209 15.5067 35.9975 18.2371 38.8136C20.2642 40.9048 22.8761 42.3307 25.7281 42.9031C26.6131 43.0881 27.3928 43.1032 27.6677 42.0686C27.7968 41.5368 27.8899 40.9968 27.9464 40.4524C28.097 38.942 28.259 35.3661 27.1103 32.2547C27.0425 32.081 26.632 31.2502 27.0086 31.3862C27.2383 31.4692 27.4756 31.5636 27.4869 31.7864C27.4652 31.8552 27.4652 31.9291 27.4869 31.9979C27.5311 32.0913 27.5972 32.1725 27.6795 32.2348C27.7618 32.2971 27.8579 32.3385 27.9596 32.3555C28.0613 32.3726 28.1655 32.3648 28.2636 32.3328C28.3616 32.3007 28.4504 32.2454 28.5226 32.1716C28.5922 32.0984 28.6442 32.0102 28.6744 31.9138C28.7047 31.8173 28.7125 31.7152 28.6972 31.6153C28.682 31.5153 28.644 31.4202 28.5863 31.3373C28.5286 31.2544 28.4527 31.1858 28.3644 31.137C28.2658 31.0892 28.1554 31.0716 28.0469 31.0864C27.9384 31.1011 27.8366 31.1476 27.7543 31.22C27.5811 31.3031 27.2384 31.1558 26.9672 30.9482C26.5716 30.7029 26.2804 30.3196 26.1499 29.872C25.9229 29.3512 25.75 28.8084 25.6339 28.2521C25.5925 27.9273 26.0105 26.2885 26.357 26.4471C26.7035 26.6057 28.4209 29.3886 28.9595 31.2691C29.2457 32.2773 29.434 32.9532 29.5169 33.4366C29.6638 34.2484 29.3248 35.1396 29.2382 36.0118C29.1788 36.6456 29.1524 37.2821 29.1591 37.9187C29.1591 39.1837 29.2231 40.2599 29.2871 40.8678C29.2871 40.9735 29.3173 41.1586 29.3399 41.3511C29.3577 41.7515 29.4756 42.1411 29.6826 42.4839C30.0366 43.0088 30.5714 43.0277 31.2192 42.9031C34.0877 42.3366 36.7156 40.9059 38.7516 38.8023C41.487 35.9871 43.0123 32.2087 42.9999 28.2785C43.0007 26.3241 42.6246 24.388 41.8926 22.5767C41.169 20.7753 40.1006 19.1333 38.7479 17.7434C38.7036 17.697 38.6504 17.6601 38.5915 17.6349C38.5326 17.6096 38.4692 17.5967 38.4052 17.5967C38.3411 17.5967 38.2777 17.6096 38.2188 17.6349C38.1599 17.6601 38.1067 17.697 38.0624 17.7434C37.7174 18.1981 37.4231 18.6894 37.1849 19.2085C35.9458 21.4476 34.3075 22.0631 31.9122 22.4974C30.9365 22.6387 29.9705 22.8405 29.0198 23.1015C28.8955 22.909 28.7749 22.7239 28.6846 22.6144C30.0103 22.1726 31.9235 21.2135 33.3283 20.7264C33.619 20.6055 33.9204 20.5119 34.2284 20.447C34.5244 20.4083 34.8225 20.3868 35.121 20.3828C35.1737 20.3299 35.121 20.2167 34.8385 20.1072C34.4395 19.9977 34.0206 19.9822 33.6145 20.0618C33.3021 20.1172 32.9929 20.1891 32.688 20.2771C32.5336 20.3111 32.3792 20.3488 32.2135 20.3941C32.0478 20.4394 32.1344 20.3941 32.2135 20.3073C32.2539 20.2585 32.3039 20.2187 32.3604 20.1902C32.8213 20.0967 33.2568 19.9048 33.6371 19.6276C34.1267 19.1934 34.2698 18.5741 34.1456 18.5552C33.9028 18.5159 33.6542 18.5359 33.4208 18.6135C33.1874 18.691 32.9761 18.8239 32.8048 19.0008C32.408 19.3633 32.1209 19.8305 31.9762 20.3488C31.9348 20.4545 31.867 20.4961 31.7239 20.5376C31.2305 20.6887 30.8577 20.8246 30.402 20.9983C30.2965 20.9983 30.2362 20.953 30.3003 20.7982C30.402 20.5565 30.5112 20.3073 30.7447 20.3073C30.8093 20.3418 30.8839 20.3525 30.9556 20.3375C31.0555 20.2927 31.1436 20.2252 31.2129 20.1403C31.2822 20.0555 31.3309 19.9556 31.3551 19.8486C31.3792 19.7415 31.3781 19.6304 31.3519 19.5238C31.3257 19.4173 31.2751 19.3184 31.2042 19.2349C31.135 19.1559 31.048 19.0945 30.9505 19.0557C30.853 19.0169 30.7478 19.0019 30.6434 19.0118C30.539 19.0218 30.4384 19.0564 30.3499 19.1129C30.2615 19.1694 30.1877 19.2462 30.1345 19.3368C30.079 19.4407 30.0538 19.5581 30.0618 19.6756C30.0698 19.7932 30.1107 19.9061 30.1797 20.0014C30.2513 20.194 30.078 20.5527 29.8483 20.8321C29.5764 21.2345 29.1661 21.5222 28.6959 21.6402C28.2665 21.7913 27.8371 21.9272 27.4003 22.0178C27.1404 22.082 26.8655 22.1953 27.2647 21.9801C27.5925 21.8051 27.8822 21.5664 28.117 21.2779C28.3517 20.9894 28.5267 20.6568 28.6318 20.2997C28.6958 20.0052 28.6055 19.9939 28.7863 19.7409C28.8876 19.6102 29.0067 19.4946 29.1403 19.3973C29.3286 19.2462 29.3098 19.2878 29.0838 19.2764C28.9854 19.2683 28.8881 19.2493 28.7938 19.2198C28.5364 19.1031 28.2997 18.9449 28.0933 18.7516C27.1743 17.9963 26.0332 19.0876 25.8336 19.3368C25.6339 19.5861 25.3741 19.4124 24.6321 19.3784C23.8902 19.3444 22.749 19.3973 22.749 19.3973C22.749 19.3973 19.9545 17.7736 19.5816 17.6829C19.2088 17.5923 18.5497 18.2871 18.5497 18.2871C18.173 18.7213 18.448 18.778 19.8415 19.216C21.235 19.654 22.5155 20.3866 22.6925 20.6585C23.1051 21.2956 23.6644 21.824 24.3233 22.1991C24.4046 22.2494 24.4888 22.2948 24.5756 22.335C23.1232 22.3636 21.7032 21.9036 20.542 21.0285C19.6607 20.3111 19.5703 20.6547 20.0788 21.2135H20.0939ZM34.8046 28.5126C34.7298 28.4399 34.6318 28.3959 34.5278 28.3883C34.4239 28.3808 34.3205 28.41 34.2359 28.4711C31.9348 29.5359 30.8464 32.2471 30.9179 32.5001C30.9895 32.7531 31.8444 31.3937 34.9515 30.7291C38.0587 30.0646 40.3975 32.2396 40.7101 32.6549C41.0227 33.0703 41.162 33.1005 41.2486 32.957C41.3202 32.7531 41.3842 32.5454 41.4482 32.3377C41.4821 31.9375 41.3767 30.8273 40.2807 29.4604C39.8022 28.9055 39.1964 28.4754 38.5154 28.2071C37.8345 27.9387 37.0987 27.8401 36.3714 27.9198C36.1134 27.925 35.8583 27.9761 35.6182 28.0708C35.4675 28.1765 35.4562 28.3389 35.5767 28.4182C35.6973 28.4975 36.0249 28.4484 36.1831 28.4446C36.7676 28.4431 37.3327 28.6552 37.7724 29.0413C37.9407 29.1885 38.0889 29.3573 38.2131 29.5435C38.4202 29.8531 38.3825 29.9211 38.0436 30.0079C37.8332 30.0699 37.6151 30.1017 37.3958 30.1023C37.108 30.1018 36.8224 30.0507 36.5522 29.9513C36.2776 29.8485 36.0228 29.6991 35.7989 29.5095C35.4261 29.2036 35.1587 28.7996 34.7896 28.5126H34.8046ZM26.052 35.823C25.7751 35.6218 25.4539 35.4904 25.1157 35.4398C24.7775 35.3892 24.432 35.4209 24.1086 35.5323C23.8676 35.6002 23.8412 35.706 23.9693 35.9099C24.2046 36.308 24.5572 36.6233 24.9786 36.8123C25.2475 36.9291 25.5429 36.9708 25.8336 36.9332C26.1085 36.8992 26.3269 36.7557 26.5868 36.8161C26.7019 36.8451 26.8096 36.8978 26.9031 36.9709C27.1818 37.2013 27.163 37.8847 27.1592 38.2246C27.1555 38.5644 27.1592 38.8854 27.114 39.1988C27.0236 40.358 26.8956 41.2076 26.6056 41.6192C26.3156 42.0308 25.6753 41.8496 25.2422 41.7363C22.8506 41.1204 20.6744 39.8557 18.9527 38.0811L18.7681 37.8885C18.5685 37.5109 18.1316 36.6688 18.5158 35.03C18.9564 33.142 19.9733 31.8884 21.3291 31.7524C22.1874 31.6609 23.0547 31.7937 23.8467 32.1378C24.6386 32.4818 25.3283 33.0255 25.8486 33.716C26.2403 34.232 26.5456 34.8084 26.7525 35.4228C26.8585 35.6598 26.8836 35.9252 26.8241 36.178C26.8028 36.2334 26.7616 36.2788 26.7087 36.3054C26.6557 36.3319 26.5948 36.3377 26.5378 36.3215C26.3156 36.261 26.2177 35.9816 26.0369 35.823H26.052ZM31.7841 33.8293C32.3717 33.6254 33.2568 33.8746 33.9347 34.5845C34.1719 34.8224 34.1042 34.9281 33.8405 35.0716C33.5572 35.2344 33.2414 35.3324 32.9158 35.3585C32.5902 35.3846 32.263 35.3382 31.9574 35.2226C31.7691 35.1433 31.6297 35.0112 31.4489 34.9432C31.3804 34.9142 31.3068 34.8993 31.2324 34.8993C31.158 34.8993 31.0844 34.9142 31.0159 34.9432C30.7128 35.0834 30.4763 35.3368 30.3568 35.6493C30.2622 36.0226 30.188 36.4008 30.1345 36.7821C29.9959 38.3772 30.0707 39.9836 30.3568 41.5588C30.4924 41.9591 30.7673 41.9931 31.11 41.9364C33.7661 41.3907 36.1959 40.0535 38.0812 38.1C38.2771 37.8961 38.4579 37.6884 38.6499 37.4769C38.744 36.9792 38.7669 36.4706 38.7177 35.9665C38.6424 34.9092 38.1114 33.3686 37.0983 32.4926C36.0851 31.6165 34.8385 31.2691 32.914 32.266C32.0266 32.7191 31.3064 33.4439 30.8577 34.3353C30.7899 34.4712 30.7824 34.6071 30.9142 34.5052C31.1677 34.2425 31.4553 34.0152 31.7691 33.8293H31.7841ZM28.7712 25.5862C28.8744 25.5986 28.9785 25.5702 29.0612 25.5069C29.2043 25.3898 29.1101 25.2388 29.0612 25.1293C28.7523 24.5478 28.6318 24.3741 28.4511 24.4722C28.1912 24.578 26.6131 25.4163 27.0726 25.8241C27.9485 26.9061 28.6908 28.0903 29.2834 29.3509C29.9764 30.8613 30.0781 32.2509 30.1948 31.8431C30.3116 31.4353 30.5112 30.8689 30.6731 30.4233C30.8014 30.1156 30.8381 29.7772 30.7786 29.4491C30.4898 28.2416 30.0586 27.0729 29.4943 25.9676C29.4001 25.7825 29.3964 25.7297 29.1666 25.7976C29.0829 25.8239 29.0084 25.8737 28.9519 25.9411C28.8314 26.0997 28.9519 26.3867 28.5753 26.5189C28.4918 26.5462 28.4031 26.5534 28.3163 26.5399C28.2295 26.5263 28.1471 26.4924 28.0759 26.4409C28.0047 26.3893 27.9466 26.3216 27.9064 26.2433C27.8663 26.165 27.8451 26.0783 27.8447 25.9902C27.8406 25.8975 27.8593 25.8052 27.8991 25.7215C27.9389 25.6377 27.9986 25.5651 28.073 25.5099C28.1474 25.4547 28.2342 25.4187 28.3257 25.405C28.4173 25.3913 28.5107 25.4003 28.5979 25.4314C28.6544 25.4842 28.6469 25.5711 28.7486 25.5975L28.7712 25.5862ZM16.2674 22.3652C16.4971 22.0405 16.998 21.9574 17.7249 22.2066C19.4821 22.8037 21.0567 23.844 22.2971 25.2275C24.3271 27.3571 24.6208 28.4597 24.6208 28.5957C24.6208 28.7316 23.1859 26.7605 20.8546 25.7183C18.5233 24.6762 16.9679 24.729 16.4745 24.7743C15.9811 24.8196 15.4425 24.8045 15.5292 24.3967C15.5857 24.1475 15.6535 23.9738 15.661 23.887C15.7627 23.5698 15.8757 23.2564 15.9999 22.9505C16.0753 22.7542 16.1581 22.5767 16.2447 22.3652H16.2674ZM25.3063 25.3861C24.9036 25.1821 24.467 25.0541 24.0182 25.0084C23.5248 24.9443 23.5399 25.0953 23.7734 25.3861C24.2092 25.8941 24.5799 26.4548 24.8769 27.0551C24.9598 27.2325 24.956 26.8172 25.2535 26.1941C25.3213 26.0582 25.3816 25.9034 25.5473 25.8732C25.7085 25.8592 25.8693 25.9049 25.9992 26.0015C26.2215 26.1375 26.2139 26.0771 25.9691 25.8241C25.7651 25.6401 25.5289 25.4954 25.2724 25.3974L25.3063 25.3861ZM15.2542 26.0318C15.3178 25.9503 15.3974 25.8827 15.4882 25.8334C15.5789 25.784 15.6787 25.7538 15.7815 25.7448C16.7748 25.6751 17.7728 25.7565 18.7417 25.9864C19.5439 26.1517 20.3095 26.4613 21.0015 26.9002C21.0391 26.9758 20.2859 26.7265 19.2803 26.9871C18.1919 27.2631 17.197 27.8264 16.3992 28.6183C15.6459 29.3735 15.2693 30.3289 15.0923 29.9626C15.0391 29.7784 15.01 29.588 15.0057 29.3962C14.9793 29.0186 14.9642 28.641 14.9642 28.286C14.9636 27.7815 14.9901 27.2773 15.0433 26.7756C15.0397 26.5204 15.1005 26.2683 15.2204 26.0431L15.2542 26.0318ZM16.6478 34.9092C16.5084 34.4825 16.5649 33.9879 17.16 33.3044C17.7137 32.7996 18.3649 32.414 19.0732 32.1716C19.1786 32.1414 19.205 32.1716 19.141 32.2056C18.5568 32.7651 18.1261 33.466 17.8906 34.2409C17.5705 35.2377 17.6044 36.3403 17.2955 36.0118C17.0319 35.6606 16.8134 35.2944 16.6138 34.9205L16.6478 34.9092ZM39.7459 35.6116C39.7039 35.5264 39.6686 35.438 39.6404 35.3472C39.5086 34.9205 39.4785 34.5278 39.3166 34.0898C39.0654 33.396 38.6986 32.7499 38.2319 32.1791C37.8553 31.8317 38.9324 32.2358 39.5425 32.7984C39.94 33.1455 40.2563 33.5761 40.469 34.0596C40.5434 34.2064 40.5734 34.3718 40.5553 34.5355C40.5372 34.6992 40.4719 34.854 40.3673 34.981C40.2996 35.1093 40.228 35.234 40.1564 35.3586C40.0849 35.4832 39.8664 35.9099 39.712 35.6229L39.7459 35.6116ZM42.0056 29.2905C41.9529 29.7134 41.8324 29.9664 41.3428 29.2376C40.6677 28.2787 39.7023 27.5637 38.5897 27.1985C37.8246 26.9082 36.9945 26.835 36.1906 26.9871C35.7349 27.0928 36.8685 26.1413 38.5332 25.8845C40.1979 25.6277 40.8494 25.6579 41.2034 25.7334C41.4049 25.778 41.5838 25.8931 41.7081 26.0582C41.9093 26.356 42.0097 26.7108 41.9943 27.0702C42.0245 27.4478 42.0433 27.8594 42.0433 28.2596C42.0433 28.6599 42.0094 28.962 41.9868 29.3018L42.0056 29.2905ZM41.388 24.5402C41.166 24.6877 40.8993 24.7519 40.6347 24.7215C39.0354 24.7335 37.4595 25.1078 36.0249 25.8165C34.7495 26.4343 33.607 27.2963 32.6617 28.354C32.4395 28.6788 32.6617 27.765 34.2058 25.9525C35.75 24.14 38.036 22.656 39.1697 22.2784C39.8175 22.0631 40.1979 22.0254 40.4502 22.1122C40.5333 22.1373 40.6091 22.1824 40.6708 22.2436C40.7325 22.3048 40.7784 22.3803 40.8042 22.4634C40.8758 22.622 40.9436 22.7806 41.0076 22.943C41.1658 23.3206 41.3051 23.7284 41.4294 24.1324C41.4595 24.2948 41.5048 24.4232 41.3692 24.5515L41.388 24.5402ZM39.3504 21.1909C38.099 21.6779 36.9214 22.3375 35.8517 23.1506C34.6879 24.1324 34.364 24.4118 34.2171 24.5629C34.0703 24.7139 33.7463 24.5629 33.1437 24.6157C32.3892 24.6824 31.6469 24.85 30.9367 25.1142C30.4132 25.3483 30.289 25.3634 30.2061 25.2048C30.1233 25.0462 29.8973 24.6308 29.7541 24.3401C29.611 24.0493 29.7052 23.9625 30.0893 23.8379C30.4735 23.7133 32.7257 23.4603 34.364 22.9052C36.0023 22.3501 37.3431 20.8699 37.8025 20.1864C37.9419 19.9825 38.0474 19.8088 38.149 19.6654C38.5671 19.0121 38.7102 19.1103 39.132 19.6427C39.2864 19.8391 39.4371 20.043 39.5802 20.262C39.8024 20.6396 39.7911 21.0172 39.3316 21.2022L39.3504 21.1909ZM30.9744 26.8927C31.1928 27.5157 31.3924 28.3351 31.4489 28.5504C31.4866 28.6976 31.5506 28.456 31.7427 28.0255C32.0673 27.3194 32.4595 26.6466 32.914 26.0166C33.1211 25.7448 33.366 25.522 33.3471 25.4993C33.204 25.3634 32.2775 25.522 31.4264 25.9034C31.0085 26.0401 30.629 26.2743 30.3191 26.5868C30.0969 26.8398 30.3191 26.7416 30.4886 26.6888C30.5791 26.6587 30.6777 26.6642 30.7644 26.7041C30.8511 26.7441 30.9194 26.8155 30.9556 26.904L30.9744 26.8927ZM27.4455 29.4415C27.3969 29.5199 27.3308 29.5858 27.2524 29.6341C27.1739 29.6823 27.0853 29.7115 26.9936 29.7194C26.9019 29.7272 26.8097 29.7136 26.7242 29.6794C26.6387 29.6452 26.5624 29.5915 26.5012 29.5226C26.4401 29.4536 26.3959 29.3713 26.3721 29.2822C26.3482 29.1931 26.3455 29.0996 26.364 29.0092C26.3826 28.9189 26.4219 28.8341 26.4789 28.7616C26.5359 28.6892 26.6089 28.6311 26.6922 28.5919C26.9257 28.4975 27.2986 28.6183 27.2948 28.8676C27.2911 29.1168 27.4982 29.2036 27.4267 29.4528L27.4455 29.4415ZM39.8212 22.6446C39.772 22.66 39.727 22.6867 39.6898 22.7225C39.6526 22.7584 39.6243 22.8025 39.6071 22.8512C39.5899 22.9 39.5844 22.9521 39.5908 23.0035C39.5972 23.0548 39.6155 23.1039 39.6442 23.1469C39.6723 23.1874 39.7098 23.2205 39.7534 23.2433C39.797 23.2662 39.8455 23.2781 39.8947 23.2781C39.9439 23.2781 39.9924 23.2662 40.036 23.2433C40.0796 23.2205 40.1171 23.1874 40.1452 23.1469C40.228 23.0336 40.2205 22.8183 40.0924 22.7693C39.9644 22.7202 39.938 22.6635 39.8024 22.6635L39.8212 22.6446ZM40.5406 23.7019C40.6807 23.7638 40.8083 23.8508 40.9172 23.9587C40.9326 23.9743 40.9412 23.9953 40.9412 24.0172C40.9412 24.0392 40.9326 24.0602 40.9172 24.0758C40.7955 24.1655 40.6591 24.2332 40.5142 24.2759C40.2216 24.3611 39.908 24.3356 39.6329 24.2042C39.4918 24.1424 39.364 24.0539 39.2563 23.9436C39.2417 23.9276 39.2337 23.9067 39.2337 23.8851C39.2337 23.8634 39.2417 23.8425 39.2563 23.8265C39.3771 23.7355 39.5138 23.6676 39.6593 23.6264C39.8048 23.5847 39.9566 23.5694 40.1075 23.5811C40.2522 23.5981 40.3927 23.6416 40.5218 23.7095L40.5406 23.7019ZM36.2358 24.8348C36.5094 24.3546 36.9128 23.9619 37.3996 23.7019C37.6104 23.5751 37.8489 23.5018 38.0945 23.4887C38.34 23.4755 38.585 23.5228 38.8081 23.6264C38.9249 23.6793 38.6311 24.2381 38.0549 24.5289C37.6163 24.6942 37.1479 24.765 36.6802 24.7366C36.5239 24.7806 36.3895 24.8816 36.3036 25.0198C36.2433 25.0802 36.1417 24.948 36.217 24.8423L36.2358 24.8348ZM40.567 26.836C40.5747 26.6738 40.6103 26.5141 40.6724 26.364C40.6782 26.3544 40.6858 26.3461 40.6949 26.3395C40.7039 26.333 40.7143 26.3283 40.7252 26.3258C40.7361 26.3234 40.7474 26.3231 40.7584 26.3252C40.7694 26.3272 40.7798 26.3314 40.7892 26.3376C40.926 26.4232 41.046 26.5333 41.1432 26.6624C41.2395 26.7939 41.3134 26.9407 41.3616 27.0966C41.4124 27.2537 41.4341 27.4188 41.4256 27.5837C41.4156 27.7444 41.38 27.9025 41.3202 28.0519C41.3085 28.0712 41.2897 28.0851 41.2679 28.0907C41.2461 28.0964 41.223 28.0933 41.2034 28.0821C41.0664 27.9952 40.9465 27.8839 40.8494 27.7536C40.7523 27.6225 40.6784 27.4756 40.631 27.3194C40.5754 27.1683 40.5473 27.0084 40.5481 26.8474L40.567 26.836ZM39.6329 26.4056C39.7471 26.5044 39.8439 26.6219 39.9191 26.753C39.9234 26.7631 39.9257 26.774 39.9258 26.7851C39.9258 26.7961 39.9237 26.807 39.9195 26.8172C39.9153 26.8274 39.9091 26.8367 39.9013 26.8444C39.8934 26.8522 39.8842 26.8583 39.874 26.8625C39.7338 26.9193 39.5845 26.95 39.4333 26.9531C39.282 26.9539 39.1316 26.9283 38.9889 26.8776C38.7014 26.7743 38.4608 26.5705 38.311 26.3036C38.3067 26.2935 38.3044 26.2826 38.3044 26.2715C38.3043 26.2605 38.3065 26.2496 38.3107 26.2394C38.3149 26.2292 38.3211 26.2199 38.3289 26.2122C38.3367 26.2044 38.346 26.1983 38.3562 26.1941C38.4966 26.1385 38.6459 26.1091 38.7968 26.1073C38.9483 26.1047 39.099 26.1303 39.2413 26.1828C39.3782 26.2385 39.5044 26.3177 39.6141 26.4169L39.6329 26.4056ZM40.2619 30.4044C40.2995 30.5913 40.2995 30.7839 40.2619 30.9708C40.2634 30.9796 40.2634 30.9885 40.2619 30.9972C40.2519 31.0254 40.2326 31.0493 40.2073 31.0651C40.182 31.0808 40.1521 31.0875 40.1225 31.0841C39.9364 31.0599 39.757 30.9982 39.5953 30.9028C39.4447 30.8048 39.3164 30.6762 39.2186 30.5252C39.1181 30.3735 39.0502 30.2025 39.0191 30.023C38.9852 29.8357 38.9852 29.6439 39.0191 29.4566C39.0174 29.4492 39.0174 29.4414 39.0191 29.434C39.0284 29.4051 39.0473 29.3804 39.0727 29.3639C39.098 29.3474 39.1283 29.3401 39.1584 29.3433C39.3448 29.3688 39.5241 29.4317 39.6856 29.5284C39.8382 29.6239 39.967 29.753 40.0623 29.906C40.1598 30.0602 40.2216 30.2344 40.2431 30.4157L40.2619 30.4044ZM35.5767 29.6492C35.5284 29.6285 35.4758 29.6198 35.4233 29.6238C35.3709 29.6278 35.3202 29.6444 35.2755 29.6721C35.2308 29.6999 35.1934 29.738 35.1666 29.7833C35.1397 29.8286 35.124 29.8798 35.121 29.9324C35.1159 29.9818 35.1225 30.0317 35.1402 30.0781C35.1578 30.1245 35.1861 30.1661 35.2228 30.1996C35.2594 30.233 35.3034 30.2573 35.3511 30.2706C35.3989 30.2839 35.449 30.2857 35.4976 30.276C35.6332 30.242 35.7612 30.0646 35.6822 29.9551C35.6031 29.8456 35.6671 29.7511 35.5579 29.6567L35.5767 29.6492ZM33.9083 37.8696C33.8924 38.0364 33.8464 38.1989 33.7727 38.3492V38.3681C33.7581 38.3903 33.7361 38.4067 33.7106 38.4143C33.6851 38.4219 33.6577 38.4202 33.6334 38.4096C33.479 38.3457 33.3403 38.2491 33.2266 38.1264C33.1138 38.0128 33.0287 37.8745 32.978 37.7224C32.9238 37.57 32.9045 37.4074 32.9215 37.2466C32.9357 37.0795 32.9817 36.9167 33.0571 36.767C33.0718 36.7448 33.0938 36.7284 33.1193 36.7208C33.1448 36.7132 33.1721 36.7149 33.1965 36.7255C33.3497 36.7914 33.4881 36.8877 33.6032 37.0087C33.7148 37.1234 33.7996 37.2613 33.8518 37.4127C33.8963 37.5633 33.9091 37.7214 33.8894 37.8772L33.9083 37.8696ZM35.2792 34.3277C35.1977 34.3412 35.1204 34.3733 35.0533 34.4215C34.9862 34.4697 34.931 34.5327 34.8921 34.6057C34.8531 34.6787 34.8314 34.7597 34.8287 34.8425C34.8259 34.9252 34.8422 35.0075 34.8762 35.0829C34.9102 35.1567 34.9614 35.2213 35.0256 35.271C35.0898 35.3208 35.1649 35.3543 35.2448 35.3688C35.3246 35.3832 35.4067 35.3782 35.4841 35.354C35.5616 35.3299 35.6321 35.2874 35.6897 35.2302C35.8479 35.0678 35.8855 34.7129 35.6897 34.626C35.4939 34.5392 35.4826 34.3617 35.2603 34.3353L35.2792 34.3277ZM30.6355 36.9709C30.6342 36.9622 30.6342 36.9533 30.6355 36.9445C30.6223 36.8708 30.6223 36.7954 30.6355 36.7217C30.7409 36.0231 31.7653 35.5172 32.8952 35.7739H32.9215C32.9551 35.7973 32.9808 35.8306 32.9949 35.8691C33.0091 35.9076 33.011 35.9495 33.0006 35.9892C32.575 37.0313 31.4452 37.5675 30.8388 37.122C30.7556 37.0851 30.6801 37.0325 30.6166 36.9672L30.6355 36.9709ZM37.8252 36.3441C37.7554 36.6387 37.6342 36.9187 37.4673 37.1711C37.4633 37.1824 37.4569 37.1927 37.4485 37.2013C37.4335 37.2165 37.4156 37.2285 37.3958 37.2367C37.3761 37.2449 37.355 37.2492 37.3336 37.2492C37.3123 37.2492 37.2912 37.2449 37.2714 37.2367C37.2517 37.2285 37.2339 37.2165 37.2188 37.2013C36.8889 36.8783 36.6482 36.4751 36.5201 36.031C36.3921 35.587 36.381 35.1172 36.4881 34.6675C36.5651 34.3722 36.6925 34.0924 36.8648 33.8406L36.8874 33.8104C36.9021 33.7953 36.9197 33.7833 36.9391 33.7752C36.9585 33.767 36.9793 33.7628 37.0003 33.7628C37.0214 33.7628 37.0422 33.767 37.0616 33.7752C37.081 33.7833 37.0986 33.7953 37.1133 33.8104C37.5413 34.2424 37.8073 34.8093 37.8666 35.4152C37.9027 35.7247 37.8823 36.0382 37.8063 36.3403L37.8252 36.3441ZM35.6069 36.548C35.7337 36.7732 35.8216 37.0184 35.8667 37.273C35.8667 37.273 35.8667 37.273 35.8667 37.3032C35.8677 37.3219 35.865 37.3406 35.8587 37.3581C35.8524 37.3757 35.8426 37.3919 35.83 37.4056C35.8173 37.4193 35.8021 37.4304 35.7851 37.4381C35.7681 37.4458 35.7498 37.45 35.7311 37.4505C35.4754 37.4613 35.22 37.4242 34.9779 37.341C34.7364 37.2554 34.512 37.1276 34.315 36.9634C34.1156 36.7969 33.9472 36.5961 33.8179 36.3705C33.6899 36.1455 33.6007 35.9004 33.5543 35.6455C33.5525 35.6343 33.5525 35.6228 33.5543 35.6116C33.5532 35.5747 33.5663 35.5389 33.5908 35.5115C33.6153 35.4841 33.6495 35.4672 33.6861 35.4643C33.9418 35.4532 34.1973 35.4904 34.4393 35.5738C34.6824 35.6584 34.9082 35.7864 35.106 35.9514C35.3071 36.1187 35.4768 36.3207 35.6069 36.548ZM33.1777 33.0174C33.1758 33.0062 33.1758 32.9947 33.1777 32.9834C33.2103 32.9049 33.259 32.8341 33.3208 32.7758C33.8707 32.164 35.2491 32.2358 36.2207 33.0741C36.2196 33.0841 36.2196 33.0942 36.2207 33.1043C36.2397 33.1463 36.2445 33.1934 36.2343 33.2384C36.2241 33.2834 36.1995 33.3238 36.1642 33.3535C35.072 34.1087 33.5731 34.0218 33.2341 33.2666C33.2035 33.188 33.1846 33.1053 33.1777 33.0212V33.0174ZM23.1105 37.8961C23.1969 38.0598 23.3117 38.2069 23.4495 38.3303C23.4749 38.3452 23.5044 38.3514 23.5336 38.348C23.5629 38.3446 23.5902 38.3318 23.6115 38.3114C23.7413 38.1765 23.8436 38.0174 23.9127 37.8432C23.9795 37.678 24.0091 37.5001 23.9994 37.3221C23.991 37.1432 23.9447 36.9682 23.8638 36.8086C23.7779 36.6455 23.6631 36.4996 23.5249 36.3781C23.5017 36.36 23.4732 36.3502 23.4439 36.3502C23.4145 36.3502 23.386 36.36 23.3629 36.3781C23.2339 36.5137 23.1316 36.6726 23.0616 36.8463C22.9948 37.0115 22.9653 37.1894 22.975 37.3674C22.9807 37.5527 23.027 37.7345 23.1105 37.8998V37.8961ZM21.7397 34.5316C21.7788 34.6066 21.7998 34.6897 21.8012 34.7743C21.8026 34.8589 21.7843 34.9427 21.7477 35.019C21.7112 35.0953 21.6574 35.1619 21.5906 35.2137C21.5238 35.2654 21.4459 35.3008 21.3631 35.317C21.2834 35.3304 21.2017 35.3247 21.1247 35.3004C21.0477 35.2761 20.9774 35.2339 20.9198 35.1772C20.8621 35.1205 20.8187 35.0509 20.7929 34.9741C20.7672 34.8974 20.7599 34.8156 20.7717 34.7355C20.8056 34.509 21.058 34.2711 21.2425 34.3843C21.4271 34.4976 21.5853 34.3692 21.7397 34.5354V34.5316ZM19.6795 37.4429C19.825 37.701 20.0135 37.9322 20.2369 38.1264L20.2671 38.1491C20.2846 38.1604 20.3043 38.1679 20.325 38.1712C20.3456 38.1744 20.3667 38.1734 20.3868 38.168C20.407 38.1627 20.4259 38.1532 20.4422 38.1402C20.4585 38.1272 20.472 38.1109 20.4817 38.0924C20.6343 37.8326 20.7389 37.5474 20.7906 37.2504C20.9017 36.6499 20.7977 36.0293 20.4968 35.4983C20.3535 35.2387 20.1647 35.0072 19.9394 34.8148L19.913 34.7922C19.8954 34.7806 19.8756 34.7728 19.8549 34.7693C19.8341 34.7657 19.8129 34.7664 19.7924 34.7713C19.772 34.7763 19.7528 34.7854 19.7359 34.798C19.7191 34.8107 19.705 34.8267 19.6946 34.845C19.5442 35.1072 19.4397 35.3933 19.3858 35.6909C19.2792 36.2914 19.3829 36.9104 19.6795 37.4429ZM21.3781 36.2837C21.3063 36.5286 21.277 36.784 21.2915 37.0389V37.0691C21.2946 37.0871 21.3014 37.1043 21.3113 37.1197C21.3212 37.135 21.3341 37.1482 21.3492 37.1584C21.3643 37.1686 21.3814 37.1757 21.3993 37.1791C21.4172 37.1826 21.4356 37.1824 21.4534 37.1786C21.6989 37.1285 21.9327 37.0324 22.1426 36.8954C22.3564 36.7588 22.5429 36.5833 22.6925 36.3781C22.8465 36.1726 22.9625 35.9411 23.0352 35.6946C23.1071 35.4497 23.1363 35.1943 23.1219 34.9394V34.9092C23.1187 34.8912 23.112 34.874 23.1021 34.8587C23.0922 34.8433 23.0792 34.8302 23.0641 34.8199C23.049 34.8097 23.032 34.8026 23.0141 34.7992C22.9962 34.7957 22.9778 34.7959 22.9599 34.7997C22.7145 34.8498 22.4806 34.9459 22.2707 35.0829C22.0569 35.2195 21.8704 35.395 21.7208 35.6002C21.5665 35.8069 21.4504 36.0397 21.3781 36.2875V36.2837ZM22.4138 32.485C22.4156 32.475 22.4156 32.4648 22.4138 32.4548C22.3508 32.4008 22.2779 32.3598 22.1992 32.334C21.4459 32.0394 20.2708 32.7116 19.7699 33.8897C19.7681 33.9009 19.7681 33.9124 19.7699 33.9237C19.77 33.9684 19.7849 34.0119 19.8121 34.0474C19.8393 34.0829 19.8774 34.1084 19.9206 34.12C21.2124 34.305 22.4929 33.5536 22.4703 32.738C22.4687 32.653 22.4535 32.5689 22.4251 32.4888L22.4138 32.485ZM25.6151 34.6373C25.6171 34.6261 25.6171 34.6146 25.6151 34.6034C25.6396 34.5201 25.6473 34.4328 25.6377 34.3466C25.5963 33.5159 24.4438 32.8022 23.1068 32.9721H23.0729C23.0311 32.9955 22.9974 33.0313 22.9765 33.0745C22.9556 33.1177 22.9485 33.1663 22.9562 33.2138C23.3328 34.4825 24.602 35.2453 25.3665 34.7884C25.4549 34.7572 25.5385 34.714 25.6151 34.66V34.6373ZM21.1597 24.442C21.2109 24.5037 21.2472 24.5763 21.2658 24.6544C21.2844 24.7324 21.2848 24.8137 21.267 24.8919C21.2491 24.9701 21.2135 25.0431 21.1628 25.1053C21.1122 25.1674 21.048 25.217 20.9751 25.2501C20.9047 25.2789 20.8285 25.2906 20.7528 25.2842C20.677 25.2779 20.6038 25.2536 20.5392 25.2135C20.4746 25.1734 20.4203 25.1185 20.3809 25.0533C20.3414 24.9881 20.3179 24.9145 20.3123 24.8385C20.3123 24.6195 20.4855 24.3439 20.6889 24.4118C20.8923 24.4798 20.9827 24.3401 21.1597 24.4647V24.442ZM19.736 24.6459C19.5765 24.0672 19.2596 23.5442 18.8209 23.1355C18.6346 22.9419 18.4045 22.7962 18.1501 22.7108C17.8957 22.6253 17.6246 22.6026 17.3596 22.6446C17.2202 22.6446 17.3596 23.3394 17.9132 23.8152C18.4668 24.291 19.092 24.3288 19.3029 24.4345C19.4529 24.5289 19.5649 24.6733 19.6193 24.8423C19.6457 24.9065 19.7888 24.7932 19.736 24.6648V24.6459ZM16.3464 23.6642C16.2153 23.7283 16.0957 23.8138 15.9924 23.9172C15.9784 23.9319 15.9706 23.9515 15.9706 23.9719C15.9706 23.9923 15.9784 24.0119 15.9924 24.0267C16.2308 24.2042 16.5248 24.2899 16.821 24.2683C17.1181 24.2419 17.3953 24.1076 17.6006 23.8907C17.6149 23.8754 17.6228 23.8551 17.6228 23.8341C17.6228 23.8131 17.6149 23.7928 17.6006 23.7775C17.4814 23.6891 17.3475 23.6226 17.2052 23.5811C17.0648 23.5392 16.918 23.5238 16.772 23.5358C16.6186 23.5573 16.4704 23.6073 16.3351 23.6831L16.3464 23.6642ZM17.3784 26.5075C17.2627 26.6074 17.1647 26.7262 17.0884 26.8587C17.0807 26.8793 17.0811 26.9021 17.0895 26.9224C17.0979 26.9427 17.1136 26.9591 17.1336 26.9682C17.2765 27.0247 17.4282 27.0553 17.5818 27.0588C17.7344 27.0593 17.8859 27.0337 18.0299 26.9833C18.1677 26.9287 18.2951 26.8508 18.4065 26.753C18.5222 26.6531 18.6202 26.5344 18.6966 26.4018C18.7009 26.3917 18.7031 26.3807 18.7032 26.3697C18.7032 26.3587 18.7011 26.3477 18.6969 26.3376C18.6927 26.3274 18.6865 26.3181 18.6787 26.3103C18.6709 26.3026 18.6616 26.2964 18.6514 26.2923C18.5098 26.2358 18.3593 26.2051 18.207 26.2017C18.0543 26.2006 17.9027 26.2262 17.7588 26.2772C17.6148 26.337 17.4823 26.4213 17.3671 26.5264L17.3784 26.5075ZM16.7344 26.9909C16.7537 26.7715 16.7346 26.5504 16.6779 26.3376C16.6791 26.3288 16.6791 26.3199 16.6779 26.3112C16.6717 26.297 16.6629 26.2842 16.6518 26.2735C16.6407 26.2628 16.6276 26.2543 16.6132 26.2487C16.5989 26.2431 16.5835 26.2404 16.5681 26.2407C16.5527 26.2411 16.5375 26.2445 16.5234 26.2508C16.325 26.3452 16.1442 26.4729 15.9887 26.6284C15.8325 26.7862 15.705 26.9702 15.6121 27.1721C15.5163 27.375 15.4588 27.5939 15.4425 27.8178C15.424 28.037 15.4418 28.2577 15.4953 28.4711V28.4975C15.5006 28.5119 15.5088 28.525 15.5195 28.536C15.5302 28.547 15.543 28.5556 15.5572 28.5613C15.5714 28.567 15.5867 28.5697 15.6019 28.5691C15.6172 28.5685 15.6322 28.5647 15.6459 28.5579C15.8457 28.4659 16.027 28.3379 16.1808 28.1803C16.3379 28.0233 16.4655 27.8391 16.5574 27.6366C16.6467 27.4382 16.7027 27.2264 16.7231 27.0097L16.7344 26.9909ZM24.0823 30.563H24.1048C24.1437 30.5183 24.1686 30.4632 24.1764 30.4044C24.3082 29.8795 23.4232 29.1734 22.1954 28.9808H22.1615C22.1256 28.9815 22.091 28.9941 22.063 29.0167C22.0351 29.0392 22.0154 29.0705 22.0071 29.1054C22.0774 29.5384 22.3029 29.9308 22.6413 30.2089C22.9797 30.487 23.4077 30.6317 23.845 30.6159C23.9212 30.6121 23.9969 30.6007 24.0709 30.5819L24.0823 30.563ZM18.4329 30.5177C17.9572 30.3147 17.4289 30.271 16.9265 30.3931C16.7055 30.4501 16.5051 30.5686 16.3485 30.735C16.1918 30.9014 16.0854 31.1088 16.0414 31.3333C16.0113 31.4617 16.5912 31.7109 17.1486 31.5523C17.706 31.3937 17.9509 30.8613 18.1091 30.7442C18.1741 30.7099 18.2457 30.6898 18.319 30.6853C18.3924 30.6807 18.4659 30.6918 18.5346 30.7178C18.5836 30.7518 18.5459 30.5668 18.4292 30.5366L18.4329 30.5177Z" fill="white"/>
<circle opacity="0.5" cx="28" cy="28" r="21.75" stroke="white" stroke-width="0.5"/>
</svg>
