<svg width="260" height="240" viewBox="0 0 260 240" fill="none" xmlns="http://www.w3.org/2000/svg">
<path d="M196.736 192.824C191.849 194.458 188.917 195.572 183.405 195.908C146.467 198.229 106.138 194.885 69.0475 194.916C52.6933 191.572 39.8054 176.332 41.0881 159.337L49.3797 158.466C48.4177 150.846 56.236 141.99 63.5656 140.967C69.0934 140.188 73.3537 141.242 78.3775 143.181C69.5514 115.481 102.779 93.0952 124.554 113.435C127.532 116.229 128.448 119.528 131.304 121.711C136.541 121.238 146.94 104.884 152.422 103.815C154.315 103.448 156.255 105.22 157.858 103.158C160.973 99.1574 151.765 89.1402 161.66 82.5283C167.799 78.4207 175.877 80.9861 175.373 88.9417C183.145 88.163 189.131 96.6073 184.871 103.433C180.168 110.961 170.425 106.487 167.661 111.465C166.425 113.71 167.906 114.458 167.6 116.626C167.051 120.367 162.47 126.842 160.866 130.568C166.516 129.285 173.51 131.041 177.679 135.118C178.992 136.401 180.702 140.051 181.481 140.478C182.733 141.181 184.962 140.814 186.673 141.394C195.117 144.296 198.415 149.335 197.514 158.42H217.747C217.961 158.42 219.534 159.199 219.687 159.703C220.374 166.071 218.465 170.606 215.838 175.981C214.342 175.446 212.846 175.279 211.257 175.217C163.31 173.156 113.88 176.729 65.7797 175.248C62.2065 175.981 63.6267 171.4 63.9015 171.4H214.311L215.838 163.001H44.814C46.4326 177.508 56.6941 188.899 71.2311 191.159C109.086 189.037 150.544 194.259 187.986 191.266C191.987 190.946 195.178 189.327 199.026 188.945C198.095 189.953 196.904 191.343 196.736 192.763V192.824ZM170.593 85.3533C167.906 82.6505 162.256 85.6129 161.187 88.9417C159.034 95.6758 167.219 102.074 159.339 106.93C163.691 112.977 165.066 106.899 167.997 105.708C172.624 103.815 184.917 106.075 181.878 96.592C179.816 90.1634 172.655 94.9887 171.097 92.8356C170.945 90.6367 172.426 87.2162 170.578 85.3686L170.593 85.3533ZM152.453 159.23C151.582 156.359 149.353 154.191 148.818 151.03C148.055 146.571 149.063 142.876 150.773 138.829C157.018 132.324 159.981 123.467 163.844 115.389C159.4 112.855 155.644 105.937 150.544 109.587C144.405 113.985 138.816 124.643 130.708 125.636C123.241 126.552 116.11 124.796 108.139 126.735C102.855 128.033 93.7697 132.477 93.6628 138.6C105.131 136.997 114.873 147.67 113.514 159.214H152.453V159.23ZM124.966 121.055C125.822 120.322 120.049 114.779 119.24 114.183C99.8625 99.9514 74.8654 120.398 82.2103 142.433C88.2878 141.272 88.5168 136.768 91.3723 132.889C99.099 122.398 113.147 121.925 124.966 121.055ZM162.943 134.217C159.019 134.95 153.445 139.791 152.636 143.746C151.353 149.961 154.331 158.588 161.187 159.276C168.043 159.963 184.55 160.054 191.04 159.276C191.865 159.184 192.796 159.306 193.346 158.527C195.789 149.655 188.261 142.784 179.648 145.441C176.579 138.554 171.311 132.645 162.943 134.233V134.217ZM109.696 159.23C111.514 146.739 98.198 137.348 87.2952 144.082C85.2948 145.319 82.1034 150.022 81.7064 150.114C79.0342 150.679 78.179 148.19 76.3619 147.136C65.795 141.013 52.8002 146.403 53.1972 159.23H109.696Z" fill="#1A1919"/>
<path d="M118.934 44.0032C125.546 43.7895 126.508 54.2189 125.363 59.2122C123.912 65.534 117.163 67.8856 119.224 76.0245C120.033 79.2007 124.859 82.1325 120.675 84.3467C114.933 81.8882 114.048 73.7035 115.407 68.3437C117.285 60.9377 124.706 60.4338 120.43 49.6226C119.53 47.3321 117.163 46.9504 118.934 44.0032Z" fill="#1A1919"/>
<path d="M141.399 50.8135C147.69 52.6459 148.041 62.8005 146.392 68.0381C144.438 74.2072 138.223 75.4135 141.399 84.4076C142.254 86.8202 146.3 90.2102 142.147 91.3096C136.268 88.0876 135.321 80.4985 137.581 74.4973C139.841 68.4962 144.682 67.1372 142.956 59.1662C142.284 56.0969 138.421 53.3483 141.414 50.8135H141.399Z" fill="#1A1919"/>
<path d="M103.59 67.6105C101.391 73.6116 96.9326 75.9938 98.4291 83.0944C98.6429 84.0716 104.461 92.6992 98.7497 91.1875C94.5352 90.0728 93.5885 79.1241 94.8254 75.2608C95.9706 71.6571 99.9408 68.4351 100.536 66.8623L103.59 67.6258V67.6105Z" fill="#1A1919"/>
<path d="M215.824 176.028C210.953 185.984 207.181 189.313 196.736 192.825C196.904 191.405 198.095 190.016 199.027 189.008C202.997 184.732 210.266 182.213 211.243 175.265C212.831 175.326 214.327 175.494 215.824 176.028Z" fill="#1A1919"/>
<path d="M103.588 67.6108L100.534 66.8473C101.435 64.4957 100.763 59.6398 99.816 57.2424C99.1594 55.5627 97.2507 54.7076 97.4186 52.7378C97.7546 48.7217 101.435 51.7299 102.702 53.6081C106.107 58.6625 105.512 62.3731 103.588 67.6108Z" fill="#1A1919"/>
<path d="M199.025 189.007C195.177 189.389 191.985 191.008 187.984 191.328C150.542 194.321 109.084 189.099 71.2297 191.221C56.6926 188.961 46.4311 177.57 44.8125 163.063H215.837L214.31 171.462H63.9001C63.6252 171.462 62.205 176.043 65.7782 175.31C113.894 176.791 163.308 173.203 211.256 175.28C210.279 182.227 203.01 184.747 199.04 189.023L199.025 189.007Z" fill="#C40D3C"/>
<path d="M152.456 159.231H113.517C114.891 147.687 105.149 137.014 93.666 138.617C93.7729 132.509 102.859 128.05 108.142 126.752C116.113 124.798 123.244 126.569 130.711 125.653C138.82 124.66 144.408 114.002 150.547 109.604C155.647 105.954 159.404 112.872 163.847 115.406C159.984 123.484 157.021 132.341 150.776 138.846C149.066 142.893 148.073 146.573 148.821 151.047C149.356 154.192 151.585 156.361 152.456 159.247V159.231Z" fill="#E28F6D"/>
<path d="M162.943 134.219C171.326 132.646 176.579 138.54 179.648 145.427C188.26 142.77 195.789 149.641 193.345 158.513C192.796 159.292 191.864 159.17 191.04 159.261C184.55 160.04 167.814 159.933 161.187 159.261C154.559 158.59 151.353 149.947 152.635 143.732C153.46 139.762 159.018 134.936 162.943 134.203V134.219Z" fill="#E3BF35"/>
<path d="M109.697 159.231H53.1983C52.8013 146.404 65.7961 141.014 76.363 147.137C78.1801 148.19 79.0353 150.695 81.7075 150.115C82.1045 150.023 85.2959 145.32 87.2963 144.083C98.1991 137.349 111.515 146.74 109.697 159.231Z" fill="#E3BF35"/>
<path d="M124.97 121.055C113.151 121.926 99.1027 122.399 91.3761 132.89C88.5206 136.768 88.3068 141.273 82.214 142.433C74.8691 120.399 99.8509 99.9522 119.244 114.184C120.053 114.779 125.825 120.307 124.97 121.055Z" fill="#77A147"/>
<path d="M170.592 85.3538C172.44 87.2014 170.943 90.622 171.111 92.8208C172.669 94.9739 179.831 90.1486 181.892 96.5773C184.931 106.06 172.638 103.815 168.012 105.693C165.064 106.9 163.705 112.977 159.354 106.915C167.233 102.074 159.048 95.661 161.201 88.927C162.27 85.5828 167.905 82.6357 170.608 85.3385L170.592 85.3538Z" fill="#E28F6D"/>
</svg>
