<svg width="70" height="70" viewBox="0 0 70 70" fill="none" xmlns="http://www.w3.org/2000/svg">
<path d="M35 26.583C43.1461 26.583 49.7498 33.187 49.75 41.333C49.75 43.3581 48.1081 45 46.083 45H23.917C21.8919 45 20.25 43.3581 20.25 41.333C20.2502 33.187 26.8539 26.583 35 26.583ZM35 27.583C27.4062 27.583 21.2502 33.7392 21.25 41.333C21.25 42.8058 22.4442 44 23.917 44H46.083C47.5558 44 48.75 42.8058 48.75 41.333C48.7498 33.7392 42.5938 27.583 35 27.583ZM38.167 21.833C38.4429 21.8332 38.6668 22.0571 38.667 22.333C38.667 22.609 38.443 22.8328 38.167 22.833H31.833C31.557 22.8328 31.333 22.609 31.333 22.333C31.3332 22.0571 31.5571 21.8332 31.833 21.833H38.167Z" fill="white"/>
</svg>
