<svg width="50" height="50" viewBox="0 0 50 50" fill="none" xmlns="http://www.w3.org/2000/svg">
<path d="M22.7139 19.9287C22.99 19.9287 23.2139 20.1526 23.2139 20.4287C23.2138 20.7048 22.99 20.9287 22.7139 20.9287H21.5713C21.2952 20.9287 21.0714 20.7048 21.0713 20.4287C21.0713 20.1526 21.2951 19.9287 21.5713 19.9287H22.7139ZM28.4287 19.9287C28.7047 19.9289 28.9287 20.1527 28.9287 20.4287C28.9286 20.7047 28.7047 20.9286 28.4287 20.9287H27.2852C27.0093 20.9285 26.7852 20.7046 26.7852 20.4287C26.7852 20.1527 27.0092 19.9289 27.2852 19.9287H28.4287ZM25 16.5C25.2761 16.5001 25.5 16.7239 25.5 17V18.1426C25.5 18.4187 25.2761 18.6425 25 18.6426C24.7239 18.6426 24.5 18.4187 24.5 18.1426V17C24.5 16.7239 24.7239 16.5 25 16.5Z" fill="#C40D3C"/>
<path d="M25.001 17.6406C26.5391 17.6411 27.7861 18.8886 27.7861 20.4268C27.7859 21.9648 26.5389 23.2114 25.001 23.2119C23.4626 23.2119 22.2141 21.9651 22.2139 20.4268C22.2139 18.8883 23.4625 17.6406 25.001 17.6406ZM25.001 18.6406C24.0148 18.6406 23.2148 19.4405 23.2148 20.4268C23.2151 21.4128 24.0149 22.2119 25.001 22.2119C25.9866 22.2114 26.7859 21.4125 26.7861 20.4268C26.7861 19.4408 25.9868 18.6411 25.001 18.6406Z" fill="#C40D3C"/>
<path d="M26.9248 13.3691C27.6426 13.0718 28.4333 12.9939 29.1953 13.1455C29.9571 13.2971 30.6568 13.6716 31.2061 14.2207C31.7554 14.77 32.1296 15.4705 32.2812 16.2324C32.4328 16.9944 32.3548 17.7842 32.0576 18.502C31.7603 19.2198 31.2573 19.834 30.6113 20.2656C30.5245 20.3236 30.4344 20.3761 30.3438 20.4268C30.4346 20.4775 30.5243 20.5317 30.6113 20.5898C31.2571 21.0214 31.7603 21.635 32.0576 22.3525C32.3549 23.0702 32.4327 23.8602 32.2812 24.6221C32.1297 25.3841 31.7554 26.0844 31.2061 26.6338C30.6567 27.183 29.9572 27.5574 29.1953 27.709C28.4332 27.8606 27.6427 27.7827 26.9248 27.4854C26.3775 27.2585 25.8916 26.911 25.5 26.4727V33.0996C25.8767 32.5719 26.353 32.1135 26.9189 31.7285C28.4327 30.6988 30.545 30.2129 33 30.2129C33.276 30.2129 33.4997 30.437 33.5 30.7129C33.5 32.7805 32.6198 34.3652 31.0811 35.4121C29.5673 36.4419 27.4551 36.9277 25 36.9277C22.5449 36.9277 20.4327 36.4419 18.9189 35.4121C17.3802 34.3652 16.5 32.7805 16.5 30.7129C16.5003 30.437 16.724 30.2129 17 30.2129C19.455 30.2129 21.5673 30.6988 23.0811 31.7285C23.647 32.1135 24.1233 32.5719 24.5 33.0996V26.4727C24.1084 26.911 23.6225 27.2585 23.0752 27.4854C22.3573 27.7827 21.5668 27.8606 20.8047 27.709C20.0428 27.5574 19.3433 27.183 18.7939 26.6338C18.2446 26.0844 17.8703 25.3841 17.7188 24.6221C17.5673 23.8602 17.6451 23.0702 17.9424 22.3525C18.2397 21.635 18.7429 21.0214 19.3887 20.5898C19.4754 20.5319 19.5647 20.4774 19.6553 20.4268C19.5649 20.3762 19.4752 20.3235 19.3887 20.2656C18.7427 19.834 18.2397 19.2198 17.9424 18.502C17.6452 17.7842 17.5672 16.9944 17.7188 16.2324C17.8704 15.4705 18.2446 14.77 18.7939 14.2207C19.3432 13.6716 20.0429 13.2971 20.8047 13.1455C21.5667 12.9939 22.3574 13.0718 23.0752 13.3691C23.7929 13.6665 24.4063 14.1705 24.8379 14.8164C24.8956 14.9029 24.9495 14.9918 25 15.082C25.0505 14.9918 25.1044 14.9029 25.1621 14.8164C25.5937 14.1705 26.2071 13.6665 26.9248 13.3691ZM17.5234 31.2217C17.6515 32.705 18.3466 33.8128 19.4814 34.585C20.6703 35.3938 22.3729 35.8529 24.4756 35.918C24.3472 34.4353 23.6532 33.3276 22.5186 32.5557C21.3295 31.7468 19.6265 31.2866 17.5234 31.2217ZM32.4756 31.2217C30.373 31.2867 28.6703 31.7469 27.4814 32.5557C26.3468 33.3276 25.6518 34.4353 25.5234 35.918C27.6266 35.853 29.3295 35.3939 30.5186 34.585C31.6534 33.8129 32.3475 32.7049 32.4756 31.2217ZM29 14.127C28.432 14.014 27.8427 14.0714 27.3076 14.293C26.7726 14.5146 26.3149 14.8906 25.9932 15.3721C25.6716 15.8535 25.5001 16.42 25.5 16.999L25.4902 17.0996C25.4437 17.3275 25.2417 17.499 25 17.499C24.7583 17.499 24.5563 17.3275 24.5098 17.0996L24.5 16.999L24.4922 16.7822C24.4549 16.2795 24.2882 15.7933 24.0068 15.3721C23.6851 14.8906 23.2274 14.5146 22.6924 14.293C22.1573 14.0714 21.568 14.014 21 14.127C20.4322 14.2399 19.9104 14.5185 19.501 14.9277C19.0915 15.3372 18.8123 15.8597 18.6992 16.4277C18.5863 16.9956 18.6447 17.5842 18.8662 18.1191C19.0878 18.6542 19.4629 19.1118 19.9443 19.4336C20.4259 19.7554 20.9921 19.9277 21.5713 19.9277C21.8473 19.9277 22.0711 20.1517 22.0713 20.4277C22.0711 20.7037 21.8473 20.9277 21.5713 20.9277C20.9922 20.9278 20.4259 21.0992 19.9443 21.4209C19.4628 21.7426 19.0879 22.2004 18.8662 22.7354C18.6446 23.2704 18.5863 23.8597 18.6992 24.4277C18.8123 24.9956 19.0916 25.5173 19.501 25.9268C19.9105 26.3362 20.432 26.6155 21 26.7285C21.5681 26.8415 22.1573 26.7832 22.6924 26.5615C23.2273 26.3399 23.6851 25.9649 24.0068 25.4834C24.2884 25.062 24.455 24.5753 24.4922 24.0723L24.5 23.8564V22.7129C24.5003 22.437 24.724 22.2129 25 22.2129C25.276 22.2129 25.4997 22.437 25.5 22.7129V23.8564L25.5078 24.0723C25.545 24.5753 25.7116 25.062 25.9932 25.4834C26.3149 25.9649 26.7727 26.3399 27.3076 26.5615C27.8427 26.7832 28.4319 26.8415 29 26.7285C29.568 26.6155 30.0895 26.3362 30.499 25.9268C30.9084 25.5173 31.1877 24.9956 31.3008 24.4277C31.4137 23.8597 31.3554 23.2704 31.1338 22.7354C30.9121 22.2004 30.5372 21.7426 30.0557 21.4209C29.5741 21.0992 29.0078 20.9278 28.4287 20.9277C28.1527 20.9277 27.9289 20.7037 27.9287 20.4277C27.9288 20.1861 28.1002 19.984 28.3281 19.9375L28.4287 19.9277L28.6455 19.9199C29.1483 19.8826 29.6344 19.7151 30.0557 19.4336C30.5371 19.1118 30.9122 18.6541 31.1338 18.1191C31.3553 17.5842 31.4137 16.9956 31.3008 16.4277C31.1877 15.8597 30.9085 15.3372 30.499 14.9277C30.0896 14.5185 29.5678 14.2399 29 14.127Z" fill="#C40D3C"/>
</svg>
