<svg width="50" height="50" viewBox="0 0 50 50" fill="none" xmlns="http://www.w3.org/2000/svg">
<path d="M35 29.5C35.2761 29.5 35.5 29.7239 35.5 30V32C35.5 32.2761 35.2761 32.5 35 32.5H15C14.7239 32.5 14.5 32.2761 14.5 32V30C14.5 29.7239 14.7239 29.5 15 29.5H35ZM15.5 31.5H34.5V30.5H15.5V31.5Z" fill="#1A1919"/>
<path d="M34 24.5C34.8284 24.5 35.5 25.1716 35.5 26V30C35.5 30.2761 35.2761 30.5 35 30.5H15C14.7239 30.5 14.5 30.2761 14.5 30V26C14.5 25.1716 15.1716 24.5 16 24.5H34ZM16 25.5C15.7239 25.5 15.5 25.7239 15.5 26V29.5H34.5V26C34.5 25.7239 34.2761 25.5 34 25.5H16Z" fill="#1A1919"/>
<path d="M23 20.5C23.8284 20.5 24.5 21.1716 24.5 22V24C24.5 24.8284 23.8284 25.5 23 25.5H19C18.1716 25.5 17.5 24.8284 17.5 24V22C17.5 21.2233 18.0903 20.5846 18.8467 20.5078L19 20.5H23ZM18.8994 21.5098C18.6714 21.5563 18.5 21.7583 18.5 22V24C18.5 24.2761 18.7239 24.5 19 24.5H23C23.2761 24.5 23.5 24.2761 23.5 24V22C23.5 21.7239 23.2761 21.5 23 21.5H19L18.8994 21.5098Z" fill="#1A1919"/>
<path d="M31 20.5C31.8284 20.5 32.5 21.1716 32.5 22V24C32.5 24.8284 31.8284 25.5 31 25.5H27C26.1716 25.5 25.5 24.8284 25.5 24V22C25.5 21.2233 26.0903 20.5846 26.8467 20.5078L27 20.5H31ZM26.8994 21.5098C26.6714 21.5563 26.5 21.7583 26.5 22V24C26.5 24.2761 26.7239 24.5 27 24.5H31C31.2761 24.5 31.5 24.2761 31.5 24V22C31.5 21.7239 31.2761 21.5 31 21.5H27L26.8994 21.5098Z" fill="#1A1919"/>
<path d="M33 16.5C33.8284 16.5 34.5 17.1716 34.5 18V25C34.5 25.2761 34.2761 25.5 34 25.5H16C15.7239 25.5 15.5 25.2761 15.5 25V18C15.5 17.1716 16.1716 16.5 17 16.5H33ZM17 17.5C16.7239 17.5 16.5 17.7239 16.5 18V24.5H33.5V18C33.5 17.7239 33.2761 17.5 33 17.5H17Z" fill="#1A1919"/>
<path d="M33.9999 31.5C34.276 31.5 34.4999 31.7239 34.4999 32V34C34.4999 34.2761 34.276 34.5 33.9999 34.5H32.9999C32.8105 34.4999 32.6373 34.393 32.5526 34.2236L31.5526 32.2236C31.4752 32.0688 31.4832 31.8846 31.5741 31.7373C31.6652 31.5899 31.8266 31.5 31.9999 31.5H33.9999ZM33.3085 33.5H33.4999V32.5H32.8085L33.3085 33.5Z" fill="#1A1919"/>
<path d="M18 31.5C18.1733 31.5 18.3347 31.5899 18.4258 31.7373C18.5167 31.8847 18.5247 32.0688 18.4473 32.2236L17.4473 34.2236C17.3626 34.393 17.1894 34.5 17 34.5H16C15.7239 34.5 15.5 34.2761 15.5 34V32C15.5 31.7239 15.7239 31.5 16 31.5H18ZM16.5 33.5H16.6914L17.1914 32.5H16.5V33.5Z" fill="#1A1919"/>
</svg>
