<svg width="50" height="50" viewBox="0 0 50 50" fill="none" xmlns="http://www.w3.org/2000/svg">
<path d="M12.7273 10C11.2205 10 10 11.2205 10 12.7273V37.2727C10 38.7795 11.2205 40 12.7273 40H37.2727C38.7795 40 40 38.7795 40 37.2727V12.7273C40 11.2205 38.7795 10 37.2727 10H12.7273ZM19.4549 16.8182H26.622C30.1374 16.8182 32.5186 19.1088 32.5186 22.6243C32.52 26.1057 30.0125 28.3851 26.3716 28.3851H23.6151V33.1818H19.4549V16.8182ZM23.6177 20.0169V25.245H25.498C27.2667 25.245 28.3105 24.3368 28.3105 22.6349C28.3105 20.9113 27.2797 20.0169 25.522 20.0169H23.6177Z" fill="#C40D3C"/>
</svg>
