<svg width="50" height="50" viewBox="0 0 50 50" fill="none" xmlns="http://www.w3.org/2000/svg">
<path fill-rule="evenodd" clip-rule="evenodd" d="M16.5778 9C14.9334 9 13.3564 9.66806 12.1937 10.8572C11.031 12.0464 10.3778 13.6592 10.3778 15.3409V16.7183C10.3778 17.5003 10.8262 18.3176 11.6901 18.4529C12.1901 18.5316 12.6988 18.5316 13.1988 18.4529C14.0626 18.3176 14.5111 17.5003 14.5111 16.7183V15.3409C14.5111 15.0633 14.5646 14.7885 14.6684 14.5321C14.7723 14.2756 14.9245 14.0426 15.1164 13.8463C15.3083 13.6501 15.5362 13.4944 15.7869 13.3882C16.0376 13.2819 16.3064 13.2273 16.5778 13.2273C16.8492 13.2273 17.1179 13.2819 17.3687 13.3882C17.6194 13.4944 17.8472 13.6501 18.0391 13.8463C18.231 14.0426 18.3833 14.2756 18.4871 14.5321C18.591 14.7885 18.6444 15.0633 18.6444 15.3409V35.6149C19.1513 35.773 19.6864 35.8127 20.2103 35.7312C20.7342 35.6496 21.2335 35.4488 21.6714 35.1436C22.0152 34.9051 22.3869 34.7117 22.7778 34.568V32.25H35.8667V34.568C36.2524 34.7103 36.6244 34.9019 36.973 35.1436C37.5806 35.5649 38.275 35.7727 38.9667 35.7727C39.329 35.7727 39.6762 35.8361 40 35.9531V15.3409C40 14.5082 39.8396 13.6837 39.5281 12.9143C39.2165 12.145 38.7598 11.446 38.1841 10.8572C37.6083 10.2684 36.9249 9.80133 36.1726 9.48267C35.4204 9.16401 34.6142 9 33.8 9C32.9858 9 32.1796 9.16401 31.4274 9.48267C30.6751 9.80133 29.9917 10.2684 29.4159 10.8572C28.8402 11.446 28.3835 12.145 28.0719 12.9143C27.7604 13.6837 27.6 14.5082 27.6 15.3409V16.7183C27.6 17.5003 28.0485 18.3176 28.9123 18.4529C29.4123 18.5316 29.9211 18.5316 30.421 18.4529C31.2849 18.3176 31.7333 17.5003 31.7333 16.7183V15.3409C31.7333 14.7803 31.9511 14.2427 32.3386 13.8463C32.7262 13.45 33.2519 13.2273 33.8 13.2273C34.3481 13.2273 34.8738 13.45 35.2614 13.8463C35.6489 14.2427 35.8667 14.7803 35.8667 15.3409V20.9773H22.7778V15.3409C22.7778 13.6592 22.1246 12.0464 20.9618 10.8572C19.7991 9.66806 18.2221 9 16.5778 9ZM22.7778 24.5V28.7273H35.8667V24.5H22.7778ZM16.524 36.893C16.0302 36.5555 15.4495 36.3754 14.8556 36.3754C14.2616 36.3754 13.681 36.5555 13.1871 36.893C12.257 37.5401 11.1582 37.8862 10.0333 37.8864C9.75928 37.8864 9.49644 37.9977 9.30266 38.1959C9.10887 38.3941 9 38.6629 9 38.9432C9 39.2235 9.10887 39.4923 9.30266 39.6905C9.49644 39.8887 9.75928 40 10.0333 40H38.9667C39.2407 40 39.5036 39.8887 39.6973 39.6905C39.8911 39.4923 40 39.2235 40 38.9432C40 38.6629 39.8911 38.3941 39.6973 38.1959C39.5036 37.9977 39.2407 37.8864 38.9667 37.8864C37.8679 37.8864 36.7691 37.5552 35.8129 36.893C35.319 36.5555 34.7384 36.3754 34.1444 36.3754C33.5505 36.3754 32.9698 36.5555 32.476 36.893C31.5198 37.5552 30.421 37.8864 29.3222 37.8864C28.2234 37.8864 27.1247 37.5552 26.1685 36.893C25.6746 36.5555 25.094 36.3754 24.5 36.3754C23.906 36.3754 23.3254 36.5555 22.8315 36.893C21.8753 37.5552 20.7766 37.8864 19.6778 37.8864C18.579 37.8864 17.4802 37.5552 16.524 36.893Z" fill="#C40D3C"/>
</svg>
