<svg width="50" height="50" viewBox="0 0 50 50" fill="none" xmlns="http://www.w3.org/2000/svg">
<path d="M25 8C20.9629 8 17.6672 11.125 17.391 15.0799C13.6466 16.5802 11 20.229 11 24.5C11 30.1075 15.5589 34.6538 21.1818 34.6538H23.7273V25.3602L18.1641 23.1415C17.5112 22.8801 17.1922 22.1416 17.4531 21.4905C17.714 20.8394 18.4608 20.5264 19.1087 20.784L23.7273 22.6259V18.1538C23.7273 17.4532 24.2962 16.8846 25 16.8846C25.7038 16.8846 26.2727 17.4532 26.2727 18.1538V24.4752V24.4777V27.5243L29.5217 25.9031C30.1504 25.5896 30.9138 25.8438 31.2294 26.4708C31.5438 27.0978 31.2889 27.8603 30.6602 28.1738L26.2727 30.3603V34.6538H30.0909C35.0113 34.6538 39 30.6761 39 25.7692C39 21.6836 36.2308 18.2513 32.4648 17.2143C32.5756 16.699 32.6364 16.1637 32.6364 15.6154C32.6364 11.4092 29.2178 8 25 8ZM26.2727 34.6538H23.7273V39.7308C23.7273 40.4314 24.2962 41 25 41C25.7038 41 26.2727 40.4314 26.2727 39.7308V34.6538Z" fill="#C40D3C"/>
</svg>
