<svg width="50" height="50" viewBox="0 0 50 50" fill="none" xmlns="http://www.w3.org/2000/svg">
<path d="M16.1875 9C14.9111 9 13.6871 9.49701 12.7845 10.3817C11.882 11.2664 11.375 12.4663 11.375 13.7174C11.375 14.9685 11.882 16.1684 12.7845 17.0531C13.6871 17.9378 14.9111 18.4348 16.1875 18.4348C17.4639 18.4348 18.6879 17.9378 19.5905 17.0531C20.493 16.1684 21 14.9685 21 13.7174C21 12.4663 20.493 11.2664 19.5905 10.3817C18.6879 9.49701 17.4639 9 16.1875 9ZM31.875 10.3478V11.6957C31.116 11.6957 30.5 12.2995 30.5 13.0435V14.3913C30.5 15.1353 31.116 15.7391 31.875 15.7391V17.087C31.875 17.831 32.491 18.4348 33.25 18.4348H38.75C39.509 18.4348 40.125 17.831 40.125 17.087V10.3478H31.875ZM30.625 21.1304C29.866 21.1304 29.25 21.7343 29.25 22.4783C29.25 23.2223 29.866 23.8261 30.625 23.8261H41.625C42.384 23.8261 43 23.2223 43 22.4783C43 21.7343 42.384 21.1304 41.625 21.1304H30.625ZM12.5781 21.4068C11.507 21.574 10.649 21.7879 10 21.9834V40H23.75V29.9018L28.1919 34.1191C28.3188 34.2691 28.4775 34.3905 28.6569 34.4746C28.8363 34.5588 29.0322 34.6038 29.2311 34.6065C29.43 34.6093 29.6271 34.5697 29.8089 34.4906C29.9906 34.4114 30.1527 34.2945 30.2839 34.148L34.6855 29.2174H37.5C37.6822 29.2199 37.8631 29.1869 38.0322 29.1203C38.2013 29.0537 38.3552 28.9548 38.4849 28.8294C38.6147 28.704 38.7177 28.5546 38.788 28.3898C38.8584 28.225 38.8946 28.0482 38.8946 27.8696C38.8946 27.6909 38.8584 27.5141 38.788 27.3493C38.7177 27.1845 38.6147 27.0351 38.4849 26.9097C38.3552 26.7843 38.2013 26.6854 38.0322 26.6188C37.8631 26.5522 37.6822 26.5192 37.5 26.5217H34.6855C34.1011 26.5217 33.5375 26.7062 33.0715 27.0377L33.0769 27.0272L29.25 29.7307L23.75 22.4783C23.75 22.4783 22.3351 21.8004 19.7969 21.4068L16.1875 33.7031L12.5781 21.4068Z" fill="#C40D3C"/>
</svg>
