<svg width="50" height="50" viewBox="0 0 50 50" fill="none" xmlns="http://www.w3.org/2000/svg">
<path d="M33 21.5C33.8284 21.5 34.5 22.1716 34.5 23C34.5 23.8284 33.8284 24.5 33 24.5H25V23.5H33C33.2761 23.5 33.5 23.2761 33.5 23C33.5 22.7239 33.2761 22.5 33 22.5H15.5V23C15.5 23.2761 15.7239 23.5 16 23.5H19V24.5H16C15.1716 24.5 14.5 23.8284 14.5 23V22C14.5 21.7239 14.7239 21.5 15 21.5H33Z" fill="#1A1919"/>
<path d="M29 16.5C29.8534 16.5 30.7634 16.7606 31.4463 17.5801C32.1147 18.3821 32.5 19.6429 32.5 21.5C32.5 21.7761 32.2761 22 32 22C31.7239 22 31.5 21.7761 31.5 21.5C31.5 19.7571 31.1353 18.7677 30.6787 18.2197C30.3538 17.8298 29.9484 17.6256 29.5 17.5439V21.5C29.5 21.7761 29.2761 22 29 22C28.7239 22 28.5 21.7761 28.5 21.5V17C28.5 16.7239 28.7239 16.5 29 16.5ZM30.5 19.5C30.7761 19.5 31 19.7239 31 20V20.5C31 20.7761 30.7761 21 30.5 21C30.2239 21 30 20.7761 30 20.5V20C30 19.7239 30.2239 19.5 30.5 19.5Z" fill="#1A1919"/>
<path d="M35 23.5C35.2761 23.5 35.5 23.7239 35.5 24C35.5 24.2761 35.2761 24.5 35 24.5H33C32.7239 24.5 32.5 24.2761 32.5 24C32.5 23.7239 32.7239 23.5 33 23.5H35Z" fill="#1A1919"/>
<path d="M29.1113 24.1855C29.285 23.971 29.5998 23.9377 29.8145 24.1113C30.029 24.2851 30.0623 24.5998 29.8887 24.8145L25.7178 29.9658L29.3945 34.6934C29.5639 34.9113 29.5245 35.225 29.3066 35.3945C29.0887 35.5639 28.775 35.5245 28.6055 35.3066L25.0723 30.7637L21.3887 35.3145C21.215 35.529 20.9002 35.5622 20.6855 35.3887C20.471 35.215 20.4377 34.9002 20.6113 34.6855L24.4414 29.9531L21.6055 26.3066C21.4361 26.0887 21.4754 25.775 21.6934 25.6055C21.9113 25.4361 22.225 25.4754 22.3945 25.6934L25.0869 29.1553L29.1113 24.1855Z" fill="#1A1919"/>
<path d="M25 21.5C25.2761 21.5 25.5 21.7239 25.5 22V26C25.5 26.2761 25.2761 26.5 25 26.5H19C18.7239 26.5 18.5 26.2761 18.5 26V22C18.5 21.7239 18.7239 21.5 19 21.5H25ZM19.5 25.5H24.5V22.5H19.5V25.5Z" fill="#1A1919"/>
</svg>
