<svg width="50" height="50" viewBox="0 0 50 50" fill="none" xmlns="http://www.w3.org/2000/svg">
<path d="M21.5713 29.0059C22.4866 29.0101 23.2851 29.323 23.9375 29.9434C24.5933 30.5671 24.9286 31.3463 24.9287 32.25C24.9287 33.153 24.595 33.9326 23.9424 34.5586C23.2918 35.1825 22.4927 35.4966 21.5752 35.5H21.5732C20.6557 35.4999 19.8558 35.1854 19.2031 34.5586C18.5499 33.9312 18.2139 33.1541 18.2139 32.2559C18.2139 31.3582 18.5488 30.5799 19.1992 29.9492C19.851 29.3173 20.6518 29.0016 21.5713 29.0059ZM21.5664 30.0059C20.9015 30.0029 20.3544 30.222 19.8955 30.667C19.4353 31.1133 19.2139 31.6342 19.2139 32.2559C19.2139 32.8769 19.436 33.3947 19.8965 33.8369C20.3573 34.2794 20.906 34.4987 21.5723 34.499C22.2422 34.4965 22.7915 34.2765 23.25 33.8369C23.7066 33.399 23.9287 32.8797 23.9287 32.25C23.9286 31.6212 23.7069 31.1036 23.249 30.668C22.7876 30.2291 22.2356 30.009 21.5664 30.0059ZM30.124 13.6797C30.4459 13.5009 30.7991 13.4548 31.1562 13.5439C31.5107 13.6325 31.8019 13.8362 31.9951 14.1494C32.1848 14.457 32.2415 14.8019 32.1582 15.1543V15.1553C32.0754 15.5031 31.8751 15.7848 31.5693 15.9727L31.5703 15.9736L22.2305 21.8389H31.4004C31.9717 21.839 32.4772 22.0319 32.8838 22.4229C33.2914 22.8148 33.4999 23.3103 33.5 23.877C33.5 24.1758 33.4675 24.4712 33.4033 24.7617C33.3257 25.1139 33.1535 25.4209 32.8936 25.6709L26.79 31.541C26.6598 31.6662 26.4718 31.7113 26.2988 31.6592C26.1262 31.607 25.9945 31.466 25.9551 31.29C25.8277 30.7202 25.5856 30.1997 25.2256 29.7266C24.8663 29.2545 24.4314 28.8858 23.918 28.6172C23.7752 28.5424 23.6767 28.4038 23.6543 28.2441C23.632 28.0846 23.688 27.9236 23.8047 27.8125L26.6084 25.1436H18.5996C18.0097 25.1435 17.494 24.9365 17.0918 24.5166L17.0898 24.5146C16.6956 24.0991 16.5001 23.5853 16.5 23.0049C16.5 22.627 16.5993 22.2732 16.8027 21.959C16.9895 21.6708 17.2309 21.4284 17.5205 21.2334C17.5277 21.2286 17.5355 21.2242 17.543 21.2197L30.1094 13.6885C30.114 13.6857 30.1193 13.6823 30.124 13.6797ZM30.9141 14.5146C30.8023 14.4868 30.7093 14.4992 30.6094 14.5547L18.0791 22.0635L17.9492 22.1592C17.8266 22.2602 17.7253 22.3752 17.6426 22.5029C17.5492 22.6472 17.5 22.8101 17.5 23.0049C17.5001 23.3427 17.6066 23.606 17.8154 23.8262H17.8145C18.0153 24.0354 18.2641 24.1435 18.5996 24.1436H27.8594C28.0638 24.1436 28.2473 24.2683 28.3232 24.458C28.399 24.6478 28.3521 24.8649 28.2041 25.0059L24.9619 28.0908C25.3614 28.3765 25.7158 28.7194 26.0215 29.1211C26.2925 29.4773 26.5112 29.8584 26.6768 30.2617L32.2012 24.9502C32.3189 24.8369 32.3916 24.7059 32.4268 24.5469V24.5459C32.4752 24.3268 32.5 24.1038 32.5 23.877C32.4999 23.5793 32.3998 23.3449 32.1904 23.1436C31.9802 22.9415 31.7274 22.8389 31.4004 22.8389H20.4951C20.2723 22.8389 20.0763 22.6907 20.0146 22.4766C19.9532 22.2626 20.0401 22.0336 20.2285 21.915L31.0381 15.127L31.0449 15.123C31.1191 15.078 31.1623 15.0215 31.1855 14.9238L31.1953 14.8584C31.1988 14.7953 31.1828 14.7374 31.1436 14.6738C31.0946 14.5946 31.0286 14.5433 30.9141 14.5146Z" fill="#C40D3C"/>
</svg>
