<svg width="50" height="50" viewBox="0 0 50 50" fill="none" xmlns="http://www.w3.org/2000/svg">
<rect x="15" y="15" width="20" height="6" rx="1" stroke="#1A1919" stroke-linejoin="round"/>
<rect x="22" y="21" width="6" height="3" stroke="#1A1919" stroke-linejoin="round"/>
<path d="M26.5 25V24" stroke="#1A1919" stroke-linecap="round" stroke-linejoin="round"/>
<path d="M23.5 25V24" stroke="#1A1919" stroke-linecap="round" stroke-linejoin="round"/>
<rect x="29" y="23" width="6" height="1" stroke="#1A1919" stroke-linejoin="round"/>
<path d="M15 32H35V34C35 34.5523 34.5523 35 34 35H16C15.4477 35 15 34.5523 15 34V32Z" stroke="#1A1919" stroke-linejoin="round"/>
<rect x="17" y="21" width="16" height="11" stroke="#1A1919" stroke-linejoin="round"/>
<path d="M25 31C26.6569 31 28 29.9255 28 28.6V27H22V28.6C22 29.9255 23.3431 31 25 31Z" stroke="#1A1919" stroke-linejoin="round"/>
<path d="M28 27H29C29.5523 27 30 27.4477 30 28V28C30 28.5523 29.5523 29 29 29H28.5" stroke="#1A1919" stroke-linecap="round" stroke-linejoin="round"/>
<circle cx="25" cy="18" r="1" stroke="#1A1919"/>
<circle cx="29" cy="18" r="1" stroke="#1A1919"/>
<circle cx="21" cy="18" r="1" stroke="#1A1919"/>
</svg>
