<svg width="50" height="50" viewBox="0 0 50 50" fill="none" xmlns="http://www.w3.org/2000/svg">
<path d="M31.5 20.0001C34.1799 22.7615 34.1799 27.2387 31.5 30.0001M35.3821 16C40.206 20.9706 40.206 29.0294 35.3821 34M19.5 20.0001C16.8201 22.7615 16.8201 27.2387 19.5 30.0001M15.6179 16C10.794 20.9706 10.794 29.0294 15.6179 34M25.5 26.5C24.6716 26.5 24 25.8284 24 25C24 24.1716 24.6716 23.5 25.5 23.5C26.3284 23.5 27 24.1716 27 25C27 25.8284 26.3284 26.5 25.5 26.5Z" stroke="#1A1919" stroke-linecap="round"/>
</svg>
