<svg width="50" height="50" viewBox="0 0 50 50" fill="none" xmlns="http://www.w3.org/2000/svg">
<path d="M18.625 33.25C19.2463 33.25 19.75 33.7537 19.75 34.375C19.75 34.9963 19.2463 35.5 18.625 35.5C18.0037 35.5 17.5 34.9963 17.5 34.375C17.5 33.7537 18.0037 33.25 18.625 33.25Z" fill="#1A1919"/>
<path d="M21.25 30.625C21.8713 30.625 22.375 31.1287 22.375 31.75C22.375 32.3713 21.8713 32.875 21.25 32.875C20.6287 32.875 20.125 32.3713 20.125 31.75C20.125 31.1287 20.6287 30.625 21.25 30.625Z" fill="#1A1919"/>
<path d="M15.625 30.25C16.2463 30.25 16.75 30.7537 16.75 31.375C16.75 31.9963 16.2463 32.5 15.625 32.5C15.0037 32.5 14.5 31.9963 14.5 31.375C14.5 30.7537 15.0037 30.25 15.625 30.25Z" fill="#1A1919"/>
<path d="M18.25 27.625C18.8713 27.625 19.375 28.1287 19.375 28.75C19.375 29.3713 18.8713 29.875 18.25 29.875C17.6287 29.875 17.125 29.3713 17.125 28.75C17.125 28.1287 17.6287 27.625 18.25 27.625Z" fill="#1A1919"/>
<path d="M36.25 16.25C36.526 16.2502 36.75 16.474 36.75 16.75C36.75 17.026 36.526 17.2498 36.25 17.25H33.5605C33.5279 17.25 33.495 17.2561 33.4648 17.2686C33.4346 17.2811 33.4069 17.3001 33.3838 17.3232L30.7158 19.9902L28.7324 31.8945C28.6947 32.121 28.5955 32.3331 28.4453 32.5068C28.2951 32.6805 28.0995 32.8098 27.8809 32.8799C27.6622 32.9499 27.4282 32.9583 27.2051 32.9043C26.982 32.8502 26.7776 32.7356 26.6152 32.5732L17.4268 23.3838C17.2646 23.2215 17.1498 23.0179 17.0957 22.7949C17.0417 22.5719 17.0502 22.3377 17.1201 22.1191C17.1902 21.9005 17.3195 21.7049 17.4932 21.5547C17.6668 21.4045 17.879 21.3054 18.1055 21.2676L30.0088 19.2832L32.6768 16.6162C32.7928 16.5002 32.9305 16.4075 33.082 16.3447C33.2336 16.282 33.3965 16.25 33.5605 16.25H36.25ZM18.2695 22.2539C18.2243 22.2615 18.1822 22.2815 18.1475 22.3115C18.1128 22.3416 18.0863 22.3801 18.0723 22.4238C18.0583 22.4674 18.0567 22.5141 18.0674 22.5586C18.0782 22.6031 18.1014 22.6443 18.1338 22.6768L27.3223 31.8662C27.3546 31.8986 27.396 31.9208 27.4404 31.9316C27.485 31.9424 27.5325 31.9407 27.5762 31.9268C27.6197 31.9127 27.6586 31.8871 27.6885 31.8525C27.7185 31.8179 27.7385 31.7757 27.7461 31.7305L29.6416 20.3574L18.2695 22.2539Z" fill="#1A1919"/>
</svg>
