<svg width="50" height="50" viewBox="0 0 50 50" fill="none" xmlns="http://www.w3.org/2000/svg">
<path d="M35 30.5C35.2761 30.5 35.5 30.7239 35.5 31V33C35.5 33.2761 35.2761 33.5 35 33.5H15C14.7239 33.5 14.5 33.2761 14.5 33V31C14.5 30.7239 14.7239 30.5 15 30.5H35ZM15.5 32.5H34.5V31.5H15.5V32.5Z" fill="#1A1919"/>
<path d="M34 25.5C34.8284 25.5 35.5 26.1716 35.5 27V31C35.5 31.2761 35.2761 31.5 35 31.5H15C14.7239 31.5 14.5 31.2761 14.5 31V27C14.5 26.1716 15.1716 25.5 16 25.5H34ZM16 26.5C15.7239 26.5 15.5 26.7239 15.5 27V30.5H34.5V27C34.5 26.7239 34.2761 26.5 34 26.5H16Z" fill="#1A1919"/>
<path d="M29 20.5C29.8284 20.5 30.5 21.1716 30.5 22V25C30.5 25.8284 29.8284 26.5 29 26.5H21C20.1716 26.5 19.5 25.8284 19.5 25V22C19.5 21.1716 20.1716 20.5 21 20.5H29ZM21 21.5C20.7239 21.5 20.5 21.7239 20.5 22V25C20.5 25.2761 20.7239 25.5 21 25.5H29C29.2761 25.5 29.5 25.2761 29.5 25V22C29.5 21.7239 29.2761 21.5 29 21.5H21Z" fill="#1A1919"/>
<path d="M33 16.5C33.8284 16.5 34.5 17.1716 34.5 18V26C34.5 26.2761 34.2761 26.5 34 26.5H16C15.7239 26.5 15.5 26.2761 15.5 26V18C15.5 17.1716 16.1716 16.5 17 16.5H33ZM17 17.5C16.7239 17.5 16.5 17.7239 16.5 18V25.5H33.5V18C33.5 17.7239 33.2761 17.5 33 17.5H17Z" fill="#1A1919"/>
<path d="M33.9998 32.5C34.2759 32.5 34.4998 32.7239 34.4998 33V35C34.4998 35.2761 34.2759 35.5 33.9998 35.5H32.9998C32.8104 35.4999 32.6372 35.393 32.5525 35.2236L31.5525 33.2236C31.4751 33.0688 31.4831 32.8846 31.574 32.7373C31.6651 32.5899 31.8265 32.5 31.9998 32.5H33.9998ZM33.3083 34.5H33.4998V33.5H32.8083L33.3083 34.5Z" fill="#1A1919"/>
<path d="M18 32.5C18.1733 32.5 18.3347 32.5899 18.4258 32.7373C18.5167 32.8847 18.5247 33.0688 18.4473 33.2236L17.4473 35.2236C17.3626 35.393 17.1894 35.5 17 35.5H16C15.7239 35.5 15.5 35.2761 15.5 35V33C15.5 32.7239 15.7239 32.5 16 32.5H18ZM16.5 34.5H16.6914L17.1914 33.5H16.5V34.5Z" fill="#1A1919"/>
</svg>
