<svg width="50" height="50" viewBox="0 0 50 50" fill="none" xmlns="http://www.w3.org/2000/svg">
<path d="M30.4004 13.5C31.0222 13.5 31.5183 13.4993 31.918 13.5312C32.3229 13.5636 32.6724 13.6318 32.9941 13.792C33.5105 14.0493 33.933 14.461 34.1982 14.9697C34.3642 15.2882 34.4345 15.6346 34.4678 16.0332C34.5006 16.4256 34.5 16.9121 34.5 17.5195V32.4805C34.5 33.0879 34.5006 33.5744 34.4678 33.9668C34.4345 34.3654 34.3642 34.7118 34.1982 35.0303C33.933 35.539 33.5105 35.9507 32.9941 36.208C32.6724 36.3682 32.3229 36.4364 31.918 36.4688C31.5183 36.5007 31.0222 36.5 30.4004 36.5H19.5996C18.9778 36.5 18.4817 36.5007 18.082 36.4688C17.6771 36.4364 17.3276 36.3682 17.0059 36.208C16.4895 35.9507 16.067 35.539 15.8018 35.0303C15.6358 34.7118 15.5655 34.3654 15.5322 33.9668C15.5158 33.7705 15.5079 33.5504 15.5039 33.3037L15.5 32.4805V17.5195C15.5 16.9121 15.4994 16.4256 15.5322 16.0332C15.5655 15.6346 15.6358 15.2882 15.8018 14.9697C16.067 14.461 16.4895 14.0493 17.0059 13.792C17.3276 13.6318 17.6771 13.5636 18.082 13.5312C18.4817 13.4993 18.9778 13.5 19.5996 13.5H30.4004ZM19.5996 14.5C18.9617 14.5 18.5127 14.5003 18.1621 14.5283C17.817 14.5559 17.6106 14.6081 17.4512 14.6875C17.1211 14.852 16.8547 15.1137 16.6885 15.4326C16.6094 15.5846 16.5573 15.7817 16.5293 16.1162C16.5008 16.4573 16.5 16.8953 16.5 17.5195V32.4805L16.5039 33.2881C16.5076 33.5181 16.515 33.7132 16.5293 33.8838C16.5573 34.2183 16.6094 34.4154 16.6885 34.5674C16.8547 34.8863 17.1211 35.148 17.4512 35.3125C17.6106 35.3919 17.817 35.4441 18.1621 35.4717C18.5127 35.4997 18.9617 35.5 19.5996 35.5H30.4004C31.0383 35.5 31.4873 35.4997 31.8379 35.4717C32.183 35.4441 32.3894 35.3919 32.5488 35.3125C32.8789 35.148 33.1453 34.8863 33.3115 34.5674C33.3906 34.4154 33.4427 34.2183 33.4707 33.8838C33.4992 33.5427 33.5 33.1047 33.5 32.4805V17.5195C33.5 16.8953 33.4992 16.4573 33.4707 16.1162C33.4427 15.7817 33.3906 15.5846 33.3115 15.4326C33.1453 15.1137 32.8789 14.852 32.5488 14.6875C32.3894 14.6081 32.183 14.5559 31.8379 14.5283C31.4873 14.5003 31.0383 14.5 30.4004 14.5H19.5996ZM25 20.0996C28.372 20.0996 31.1248 22.7755 31.125 26.0996C31.125 29.4239 28.3721 32.0996 25 32.0996C21.6279 32.0996 18.875 29.4239 18.875 26.0996C18.8752 22.7755 21.628 20.0996 25 20.0996ZM25 21.0996C22.159 21.0996 19.8752 23.3489 19.875 26.0996C19.875 28.8505 22.1589 31.0996 25 31.0996C27.8411 31.0996 30.125 28.8505 30.125 26.0996C30.1248 23.3489 27.841 21.0996 25 21.0996ZM25 24.5C25.8867 24.5 26.6248 25.2056 26.625 26.0996C26.625 26.9938 25.8868 27.7002 25 27.7002C24.1132 27.7002 23.375 26.9938 23.375 26.0996C23.3752 25.2056 24.1133 24.5 25 24.5ZM27.25 16.7998C27.5261 16.7998 27.7499 17.0238 27.75 17.2998C27.75 17.5759 27.5261 17.7998 27.25 17.7998H22.75C22.4739 17.7998 22.25 17.5759 22.25 17.2998C22.2501 17.0238 22.4739 16.7998 22.75 16.7998H27.25Z" fill="#C40D3C"/>
</svg>
