<svg width="50" height="50" viewBox="0 0 50 50" fill="none" xmlns="http://www.w3.org/2000/svg">
<path d="M32.5693 22.5088C32.6836 22.5181 32.8185 22.5403 32.9541 22.6094C33.1421 22.7052 33.2948 22.8579 33.3906 23.0459C33.4597 23.1815 33.4819 23.3164 33.4912 23.4307C33.5001 23.5391 33.5 23.6681 33.5 23.7998V25.5H35C35.2761 25.5 35.5 25.7239 35.5 26C35.5 26.2761 35.2761 26.5 35 26.5H33.5V27.5996C33.5 28.7113 33.4999 29.5755 33.4434 30.2676C33.3863 30.9655 33.2696 31.5329 33.0098 32.043C32.5783 32.8897 31.8897 33.5783 31.043 34.0098C30.5329 34.2696 29.9655 34.3863 29.2676 34.4434C28.5755 34.4999 27.7113 34.5 26.5996 34.5H23.4004C22.2887 34.5 21.4245 34.4999 20.7324 34.4434C20.0345 34.3863 19.4671 34.2696 18.957 34.0098C18.1103 33.5783 17.4217 32.8897 16.9902 32.043C16.7304 31.5329 16.6137 30.9655 16.5566 30.2676C16.5001 29.5755 16.5 28.7113 16.5 27.5996V26.5H15C14.7239 26.5 14.5 26.2761 14.5 26C14.5 25.7239 14.7239 25.5 15 25.5H16.5V23.7998C16.5 23.6681 16.4999 23.5391 16.5088 23.4307C16.5181 23.3164 16.5403 23.1815 16.6094 23.0459C16.7052 22.8579 16.8579 22.7052 17.0459 22.6094C17.1815 22.5403 17.3164 22.5181 17.4307 22.5088C17.5391 22.4999 17.6681 22.5 17.7998 22.5H32.2002C32.3319 22.5 32.4609 22.4999 32.5693 22.5088ZM17.5127 23.5049C17.5101 23.5051 17.5072 23.5047 17.5049 23.5049C17.5047 23.5072 17.5051 23.5101 17.5049 23.5127C17.5002 23.5709 17.5 23.652 17.5 23.7998V27.5996C17.5 28.728 17.5003 29.5446 17.5527 30.1865C17.6047 30.8226 17.7058 31.2433 17.8818 31.5889C18.2174 32.2474 18.7526 32.7826 19.4111 33.1182C19.7567 33.2942 20.1774 33.3953 20.8135 33.4473C21.4554 33.4997 22.272 33.5 23.4004 33.5H26.5996C27.728 33.5 28.5446 33.4997 29.1865 33.4473C29.8226 33.3953 30.2433 33.2942 30.5889 33.1182C31.2474 32.7826 31.7826 32.2474 32.1182 31.5889C32.2942 31.2433 32.3953 30.8226 32.4473 30.1865C32.4997 29.5446 32.5 28.728 32.5 27.5996V23.7998C32.5 23.652 32.4998 23.5709 32.4951 23.5127C32.4949 23.5101 32.4944 23.5072 32.4941 23.5049C32.4921 23.5047 32.4895 23.5051 32.4873 23.5049C32.4291 23.5002 32.348 23.5 32.2002 23.5H17.7998C17.652 23.5 17.5709 23.5002 17.5127 23.5049ZM25 15.5C27.3162 15.5 29.2229 17.2501 29.4717 19.5H33C33.2761 19.5 33.5 19.7239 33.5 20C33.5 20.2761 33.2761 20.5 33 20.5H17C16.7239 20.5 16.5 20.2761 16.5 20C16.5 19.7239 16.7239 19.5 17 19.5H20.5283C20.7771 17.2501 22.6838 15.5 25 15.5ZM25 16.5C23.2368 16.5 21.7788 17.8039 21.5361 19.5H28.4639C28.2212 17.8039 26.7632 16.5 25 16.5Z" fill="#1A1919"/>
</svg>
