<svg width="50" height="50" viewBox="0 0 50 50" fill="none" xmlns="http://www.w3.org/2000/svg">
<path d="M32.958 22.2637C33.3674 21.8155 34.0283 21.6128 34.6348 21.8672L35.0117 22.0361L35.3779 22.2246L35.3799 22.2256L35.6162 22.3574L35.6338 22.3672C35.7505 22.4386 35.866 22.5134 35.9805 22.5898L36.3193 22.8262L36.3203 22.8271C36.8534 23.2216 37.0084 23.8985 36.8135 24.4756L36.8125 24.4746L36.4844 25.4561C36.7763 25.8412 37.0234 26.2626 37.2188 26.7129L38.252 26.9297H38.2529C38.8404 27.0494 39.3645 27.5141 39.4434 28.1729L39.4854 28.5879C39.4949 28.7284 39.5 28.8902 39.5 29.1299C39.5 29.4527 39.4814 29.7721 39.4434 30.0869C39.3651 30.7441 38.8471 31.2111 38.252 31.3311L38.251 31.3301L37.2178 31.5439C37.0239 31.9923 36.7757 32.4146 36.4844 32.7988L36.8125 33.7803C37.0074 34.3573 36.8534 35.0342 36.3203 35.4287L36.3193 35.4297C36.0973 35.5928 35.8647 35.747 35.627 35.8877L35.6191 35.8926L35.3789 36.0293L35.374 36.0312C35.1333 36.1642 34.8853 36.2817 34.6377 36.3877L34.6328 36.3896C34.0252 36.6417 33.3628 36.4436 32.9551 35.9902L32.7266 35.7354L32.7305 35.7266L32.2549 35.2012C32.0135 35.2294 31.7668 35.2451 31.5176 35.2451C31.2682 35.2451 31.0218 35.2294 30.7803 35.2012L30.0752 35.9824L30.0732 35.9844C29.6638 36.4322 29.0028 36.6353 28.3965 36.3809L28.3936 36.3789C28.146 36.2729 27.8988 36.1554 27.6582 36.0225L27.6533 36.0205L27.4121 35.8838L27.4082 35.8809C27.1612 35.7375 26.9312 35.582 26.7119 35.4209L26.7109 35.4199C26.178 35.0254 26.0229 34.3485 26.2178 33.7715L26.5459 32.7891C26.2547 32.4046 26.0075 31.9844 25.8125 31.5352L24.7783 31.3213C24.1908 31.2014 23.6674 30.7371 23.5889 30.0781L23.5459 29.6641C23.5363 29.5235 23.5312 29.3611 23.5312 29.1211C23.5313 28.7982 23.5508 28.4789 23.5889 28.1641C23.6674 27.5077 24.1839 27.0412 24.7783 26.9209L25.8125 26.71C26.0062 26.2623 26.255 25.8407 26.5459 25.457L26.2178 24.4746C26.0234 23.8978 26.1783 23.2214 26.7109 22.8271C26.9326 22.6599 27.1625 22.504 27.4082 22.3613L27.4111 22.3594L27.6436 22.2275L27.6523 22.2227C27.8951 22.0912 28.1409 21.9743 28.3887 21.8682L28.3945 21.8662C29.0016 21.6145 29.6626 21.8131 30.0703 22.2656L30.7754 23.0449C31.0171 23.0167 31.264 23.002 31.5137 23.002C31.763 23.002 32.0095 23.0167 32.251 23.0449L32.9561 22.2656L32.958 22.2637ZM34.248 22.7891C34.0792 22.7183 33.8572 22.7615 33.6963 22.9375L32.8154 23.9121L32.6338 24.1133L32.3662 24.0703C32.088 24.0259 31.8022 24.002 31.5137 24.002C31.2251 24.002 30.9393 24.0259 30.6611 24.0703L30.3936 24.1133L30.2109 23.9121L29.3291 22.9355L29.3281 22.9346C29.1749 22.7644 28.9555 22.717 28.7793 22.7891C28.5561 22.8847 28.3395 22.9875 28.1289 23.1016L27.9092 23.2256C27.7021 23.3458 27.5054 23.4799 27.3096 23.6279L27.3057 23.6318L27.3047 23.6309C27.1787 23.7244 27.111 23.8924 27.1445 24.0762L27.166 24.1553V24.1572L27.5801 25.3975L27.6689 25.6611L27.4902 25.876C27.1325 26.3053 26.8403 26.7976 26.6426 27.3232L26.5459 27.582L26.2744 27.6367L24.9775 27.9014H24.9766C24.7435 27.9486 24.6011 28.1144 24.5811 28.2832V28.2842C24.5479 28.5583 24.5313 28.8375 24.5312 29.1211C24.5312 29.5509 24.5472 29.678 24.5811 29.958V29.96C24.5985 30.1061 24.7121 30.2533 24.8955 30.3193L24.9785 30.3418L24.9795 30.3428L26.2764 30.6104L26.5449 30.666L26.6426 30.9219C26.8455 31.4545 27.1331 31.9436 27.4902 32.3721L27.6689 32.5859L27.5801 32.8506L27.166 34.0908V34.0918C27.0938 34.3056 27.1612 34.5082 27.3047 34.6152L27.6045 34.8252C27.7034 34.8911 27.8032 34.9543 27.9053 35.0137L28.1406 35.1475C28.3443 35.26 28.5599 35.3623 28.7832 35.458C28.952 35.5289 29.174 35.4856 29.335 35.3096L30.2158 34.335L30.3975 34.1338L30.665 34.1768C30.9432 34.2212 31.2291 34.2451 31.5176 34.2451C31.806 34.2451 32.092 34.2211 32.3701 34.1768L32.6387 34.1338L32.8203 34.335L33.7021 35.3115L33.7715 35.3877C33.8959 35.4857 34.0464 35.5196 34.1816 35.4883L34.25 35.4658C34.4726 35.3703 34.6875 35.2685 34.8906 35.1562L35.126 35.0225C35.3305 34.901 35.5319 34.7673 35.7256 34.625L35.7764 34.5801C35.8849 34.4668 35.9295 34.2881 35.8662 34.1006L35.8652 34.0996L35.4512 32.8594L35.3623 32.5947L35.541 32.3809C35.8989 31.9515 36.1909 31.4584 36.3887 30.9326L36.4854 30.6748L36.7549 30.6191L38.0518 30.3516L38.0547 30.3506C38.2879 30.3035 38.43 30.1376 38.4502 29.9688V29.9668C38.4833 29.6927 38.5 29.4135 38.5 29.1299C38.5 28.7001 38.4841 28.5732 38.4502 28.293V28.292C38.4303 28.125 38.2855 27.9575 38.0537 27.9102L38.0508 27.9092L36.7539 27.6367L36.4863 27.5801L36.3896 27.3252C36.1867 26.7927 35.8981 26.3044 35.541 25.876L35.3623 25.6611L35.4512 25.3975L35.8652 24.1572L35.8662 24.1553C35.9382 23.9418 35.8705 23.7399 35.7275 23.6328L35.4248 23.4209C35.3222 23.3524 35.2173 23.2855 35.1113 23.2207V23.2197L34.8926 23.0986V23.0977C34.7909 23.0416 34.6861 22.9888 34.5791 22.9375L34.248 22.7891ZM31.5137 26.5156C31.8592 26.5156 32.2019 26.5823 32.5215 26.7129C32.841 26.8435 33.1317 27.0354 33.377 27.2773C33.6223 27.5194 33.818 27.8078 33.9512 28.125C34.0842 28.4421 34.1523 28.7824 34.1523 29.126C34.1523 29.4696 34.0842 29.8098 33.9512 30.127C33.818 30.4441 33.6223 30.7325 33.377 30.9746C33.1317 31.2165 32.841 31.4085 32.5215 31.5391C32.2019 31.6697 31.8592 31.7363 31.5137 31.7363C31.1682 31.7363 30.8254 31.6697 30.5059 31.5391C30.1862 31.4084 29.8947 31.2167 29.6494 30.9746C29.4041 30.7325 29.2093 30.4441 29.0762 30.127C28.9431 29.8098 28.875 29.4696 28.875 29.126C28.875 28.7824 28.9431 28.4421 29.0762 28.125C29.2093 27.8079 29.4041 27.5194 29.6494 27.2773C29.8947 27.0353 30.1862 26.8436 30.5059 26.7129C30.8255 26.5823 31.1681 26.5156 31.5137 26.5156ZM31.5137 27.5156C31.2976 27.5156 31.0831 27.5572 30.8838 27.6387C30.6847 27.7201 30.5043 27.8396 30.3525 27.9893C30.2007 28.1391 30.0799 28.3168 29.998 28.5117C29.9163 28.7066 29.875 28.9155 29.875 29.126C29.875 29.3365 29.9163 29.5454 29.998 29.7402C30.0799 29.9351 30.2007 30.1129 30.3525 30.2627C30.5043 30.4123 30.6847 30.5319 30.8838 30.6133C31.0831 30.6947 31.2976 30.7363 31.5137 30.7363C31.7296 30.7363 31.9434 30.6946 32.1426 30.6133C32.3418 30.5319 32.523 30.4125 32.6748 30.2627C32.8266 30.1129 32.9465 29.935 33.0283 29.7402C33.1101 29.5453 33.1523 29.3365 33.1523 29.126C33.1523 28.9154 33.1101 28.7066 33.0283 28.5117C32.9465 28.3169 32.8266 28.1391 32.6748 27.9893C32.5229 27.8395 32.3418 27.7201 32.1426 27.6387C31.9434 27.5573 31.7296 27.5156 31.5137 27.5156ZM18.2256 13.5039C18.4669 13.5112 18.708 13.5293 18.9473 13.5615L18.9463 13.5625C19.5962 13.6416 20.0693 14.1424 20.1934 14.7354L20.4092 15.748C20.8654 15.9399 21.2954 16.1871 21.6865 16.4766L22.6914 16.1494C23.2307 15.9726 23.8606 16.0916 24.2666 16.54L24.3447 16.6348L24.3457 16.6357C24.5111 16.8549 24.6678 17.0846 24.8105 17.3193L24.8154 17.3281L24.9541 17.5654L24.957 17.5703C25.0244 17.689 25.0875 17.8095 25.1475 17.9307L25.3184 18.2969L25.3203 18.3018C25.5798 18.9107 25.3724 19.5715 24.9131 19.9736L24.6621 20.1934L24.6533 20.1895L24.1172 20.6611C24.1452 20.8976 24.1621 21.1387 24.1621 21.3828C24.1621 21.6267 24.1452 21.8674 24.1172 22.1035L24.9053 22.7969L24.9072 22.7988C25.3612 23.2026 25.5725 23.8619 25.3105 24.4697L25.3096 24.4727C25.202 24.7173 25.0823 24.9623 24.9473 25.2002L24.9453 25.2041L24.8066 25.4424L24.8037 25.4463C24.6582 25.6904 24.5003 25.9173 24.3369 26.1338L24.3359 26.1348C23.9359 26.661 23.2564 26.8095 22.6807 26.6201V26.6191L21.6768 26.292C21.2857 26.5813 20.8583 26.8264 20.4014 27.0195L20.1846 28.0381C20.0607 28.6271 19.5857 29.1369 18.9287 29.2129L18.9297 29.2139C18.6173 29.2507 18.4474 29.2695 17.9619 29.2695C17.6355 29.2695 17.3124 29.2514 16.9941 29.2139V29.2129C16.3403 29.1366 15.8635 28.6336 15.7393 28.0381L15.5234 27.0205C15.0672 26.8285 14.6372 26.5816 14.2461 26.292L13.2422 26.6191L13.2432 26.6201C12.6675 26.8093 11.9878 26.6609 11.5879 26.1348V26.1338C11.4185 25.9152 11.2599 25.6889 11.1152 25.4463L11.1133 25.4434L10.9795 25.2139L10.9746 25.2051C10.8412 24.9653 10.7229 24.7223 10.6152 24.4775L10.6133 24.4717C10.3539 23.8629 10.5605 23.2029 11.0195 22.8008L11.8057 22.1074C11.7777 21.8714 11.7627 21.6304 11.7627 21.3867C11.7627 21.144 11.7778 20.904 11.8057 20.6699L11.0186 19.9775L11.0166 19.9756C10.5627 19.5718 10.3523 18.9124 10.6143 18.3047C10.7226 18.0537 10.8415 17.8083 10.9766 17.5703L10.9775 17.5674L11.1113 17.335L11.1162 17.3262L11.1221 17.3174C11.2668 17.0871 11.4216 16.8597 11.5869 16.6406L11.5879 16.6387C11.987 16.1137 12.6644 15.966 13.2393 16.1533L14.25 16.4766C14.6414 16.187 15.07 15.9423 15.5273 15.749L15.7441 14.7314C15.8681 14.1425 16.3431 13.6317 17 13.5557V13.5566C17.3136 13.5192 17.6314 13.5 17.9531 13.5H17.9844L18.2256 13.5039ZM17.9531 14.5C17.6697 14.5 17.391 14.5161 17.1172 14.5488L17.1152 14.5498C16.9353 14.5707 16.7687 14.7184 16.7227 14.9375V14.9395L16.4502 16.2188L16.3936 16.4883L16.1348 16.584C15.5936 16.7848 15.0975 17.0694 14.6631 17.4219L14.4531 17.5928L14.1953 17.5098L12.9346 17.1055L12.9307 17.1045C12.7052 17.0304 12.493 17.1011 12.3848 17.2422C12.2384 17.4361 12.1002 17.6405 11.9688 17.8496L11.8457 18.0625C11.7313 18.264 11.6288 18.4775 11.5322 18.7012C11.465 18.8578 11.5027 19.0679 11.6797 19.2266L12.6689 20.0967L12.877 20.2803L12.832 20.5547C12.7874 20.8228 12.7627 21.103 12.7627 21.3867C12.7627 21.6704 12.7872 21.9519 12.832 22.2256L12.877 22.498L12.6689 22.6816L11.6797 23.5518L11.6191 23.6123C11.496 23.7565 11.4718 23.9359 11.5332 24.0801C11.6298 24.2993 11.7336 24.512 11.8486 24.7188H11.8477L11.9746 24.9346L12.167 25.2344L12.3809 25.5264L12.3848 25.5303C12.4928 25.672 12.7046 25.7441 12.9307 25.6699L12.9326 25.6689L14.1895 25.2607L14.4473 25.1758L14.6592 25.3477C15.04 25.6567 15.4702 25.9163 15.9297 26.1074L16.1289 26.1855L16.3887 26.2803L16.4463 26.5508L16.7178 27.8301L16.7188 27.833C16.7645 28.0536 16.9284 28.1996 17.1104 28.2207H17.1113C17.3899 28.2535 17.6737 28.2695 17.9619 28.2695C18.3985 28.2695 18.5282 28.2542 18.8125 28.2207H18.8135C18.9935 28.1999 19.1601 28.0513 19.2061 27.832V27.8301H19.207L19.4785 26.5508L19.5352 26.2812L19.7939 26.1855C20.3351 25.9847 20.8312 25.7002 21.2656 25.3477L21.4766 25.1758L21.7354 25.2607L22.9922 25.6689L22.9932 25.6699C23.2194 25.7443 23.432 25.6722 23.54 25.5303C23.6882 25.3339 23.8237 25.1385 23.9453 24.9346L24.0811 24.7012C24.1944 24.501 24.297 24.2897 24.3936 24.0703C24.4591 23.9141 24.4208 23.7055 24.2451 23.5479L23.2559 22.6768L23.0479 22.4941L23.0928 22.2207C23.1376 21.9471 23.1621 21.6664 23.1621 21.3828C23.1621 21.0992 23.1376 20.8185 23.0928 20.5449L23.0479 20.2715L23.2559 20.0879L24.2451 19.2178L24.3223 19.1484C24.4355 19.008 24.4595 18.8386 24.4023 18.6992C24.305 18.478 24.2014 18.2651 24.0869 18.0635V18.0625L23.9561 17.8389C23.8319 17.6347 23.6947 17.4337 23.5488 17.2402L23.5039 17.1904C23.3879 17.0822 23.2002 17.0344 23.002 17.0996L23.001 17.1006L21.7441 17.5098L21.4854 17.5938L21.2744 17.4219C20.8391 17.0687 20.3389 16.7807 19.8047 16.585L19.5449 16.4893L19.4873 16.2188L19.2158 14.9443L19.2148 14.9414C19.1692 14.7208 19.0052 14.5749 18.8232 14.5537L18.8135 14.5527C18.6789 14.5346 18.5424 14.5213 18.4043 14.5127L17.9844 14.5H17.9531ZM17.9668 18.7764C18.6645 18.7764 19.3347 19.0503 19.8301 19.5391C20.3256 20.028 20.6054 20.6923 20.6055 21.3867C20.6055 22.0813 20.3257 22.7463 19.8301 23.2354C19.3347 23.724 18.6644 23.998 17.9668 23.998C17.2691 23.998 16.5979 23.7241 16.1025 23.2354C15.6071 22.7463 15.3271 22.0811 15.3271 21.3867C15.3272 20.6925 15.6073 20.028 16.1025 19.5391C16.5979 19.0503 17.2691 18.7764 17.9668 18.7764ZM17.9668 19.7764C17.53 19.7764 17.1125 19.9482 16.8057 20.251C16.4992 20.5535 16.3272 20.9619 16.3271 21.3867C16.3271 21.8117 16.4991 22.2209 16.8057 22.5234C17.1125 22.8261 17.5301 22.998 17.9668 22.998C18.4035 22.998 18.8211 22.8261 19.1279 22.5234C19.4345 22.2209 19.6055 21.8117 19.6055 21.3867C19.6054 20.962 19.4344 20.5534 19.1279 20.251C18.8211 19.9483 18.4035 19.7764 17.9668 19.7764Z" fill="#C40D3C"/>
</svg>
