<svg width="50" height="50" viewBox="0 0 50 50" fill="none" xmlns="http://www.w3.org/2000/svg">
<path d="M32.2559 15.5127C33.5164 15.6408 34.5 16.7057 34.5 18V33C34.5 34.3807 33.3807 35.5 32 35.5H18C16.6193 35.5 15.5 34.3807 15.5 33V18C15.5 16.6193 16.6193 15.5 18 15.5H32L32.2559 15.5127ZM18 16.5C17.1716 16.5 16.5 17.1716 16.5 18V33C16.5 33.8284 17.1716 34.5 18 34.5H32C32.8284 34.5 33.5 33.8284 33.5 33V18C33.5 17.2233 32.9097 16.5846 32.1533 16.5078L32 16.5H18Z" fill="#1A1919"/>
<path d="M34 21.5H16V20.5H34V21.5Z" fill="#1A1919"/>
<path d="M25 22.5C28.0376 22.5 30.5 24.9624 30.5 28C30.5 31.0376 28.0376 33.5 25 33.5C21.9624 33.5 19.5 31.0376 19.5 28C19.5 24.9624 21.9624 22.5 25 22.5ZM25 23.5C22.5147 23.5 20.5 25.5147 20.5 28C20.5 30.4853 22.5147 32.5 25 32.5C27.4853 32.5 29.5 30.4853 29.5 28C29.5 25.5147 27.4853 23.5 25 23.5Z" fill="#1A1919"/>
<path d="M25 24C27.2091 24 29 25.7909 29 28C29 30.2091 27.2091 32 25 32C22.7909 32 21 30.2091 21 28C21 25.7909 22.7909 24 25 24ZM25 25C23.3431 25 22 26.3431 22 28C22 29.6569 23.3431 31 25 31C26.6569 31 28 29.6569 28 28C28 26.3431 26.6569 25 25 25Z" fill="#1A1919"/>
<path d="M31.5 18.5C31.7761 18.5 32 18.7239 32 19C32 19.2761 31.7761 19.5 31.5 19.5H31C30.7239 19.5 30.5 19.2761 30.5 19C30.5 18.7239 30.7239 18.5 31 18.5H31.5Z" fill="#1A1919"/>
<path d="M29.5 18.5C29.7761 18.5 30 18.7239 30 19C30 19.2761 29.7761 19.5 29.5 19.5H29C28.7239 19.5 28.5 19.2761 28.5 19C28.5 18.7239 28.7239 18.5 29 18.5H29.5Z" fill="#1A1919"/>
<path d="M21.5 18.5C21.7761 18.5 22 18.7239 22 19C22 19.2761 21.7761 19.5 21.5 19.5H19C18.7239 19.5 18.5 19.2761 18.5 19C18.5 18.7239 18.7239 18.5 19 18.5H21.5Z" fill="#1A1919"/>
</svg>
