<svg width="93" height="18" viewBox="0 0 93 18" fill="none" xmlns="http://www.w3.org/2000/svg">
<path d="M5.01562 1.44141C4.69531 1.44141 4.42188 1.46094 4.19531 1.5C3.97656 1.53906 3.78516 1.58203 3.62109 1.62891C3.44141 1.69141 3.28125 1.75 3.14062 1.80469C3.07812 2.36719 2.98438 2.87109 2.85938 3.31641C2.74219 3.76172 2.62109 4.14453 2.49609 4.46484C2.33984 4.83203 2.17969 5.16016 2.01562 5.44922H0.84375C0.796875 4.68359 0.746094 3.92969 0.691406 3.1875C0.644531 2.4375 0.589844 1.67969 0.527344 0.914062C0.894531 0.757813 1.32812 0.605469 1.82812 0.457031C2.24219 0.347656 2.74609 0.246094 3.33984 0.152344C3.94141 0.0507812 4.62109 0 5.37891 0C7.26953 0 8.67188 0.414062 9.58594 1.24219C10.5078 2.0625 10.9688 3.16797 10.9688 4.55859C10.9688 5.48828 10.7422 6.37891 10.2891 7.23047C9.84375 8.07422 9.28516 8.87109 8.61328 9.62109C7.94141 10.3711 7.19922 11.0664 6.38672 11.707C5.58203 12.3477 4.82031 12.918 4.10156 13.418L2.29688 14.6367V14.7539H9.02344C9.10156 14.4023 9.21484 14.082 9.36328 13.793C9.51953 13.4961 9.66016 13.2344 9.78516 13.0078C9.94141 12.75 10.1016 12.5078 10.2656 12.2812L11.4258 12.4102L11.0625 17.0391H0V14.7539C0.398438 14.4492 0.789062 14.1562 1.17188 13.875C1.49219 13.6172 1.83203 13.3516 2.19141 13.0781C2.55078 12.8047 2.86719 12.5586 3.14062 12.3398C3.76562 11.8477 4.35938 11.3086 4.92188 10.7227C5.49219 10.1367 5.99219 9.51172 6.42188 8.84766C6.85938 8.18359 7.20703 7.47656 7.46484 6.72656C7.72266 5.96875 7.85156 5.16797 7.85156 4.32422C7.85156 3.41016 7.60547 2.70312 7.11328 2.20312C6.62891 1.69531 5.92969 1.44141 5.01562 1.44141ZM34.4217 0C35.2889 0 36.1092 0.183594 36.8827 0.550781C37.6561 0.917969 38.3397 1.45703 38.9334 2.16797C39.5272 2.87891 39.9959 3.76172 40.3397 4.81641C40.6834 5.86328 40.8553 7.05859 40.8553 8.40234C40.8553 9.87109 40.6795 11.1602 40.328 12.2695C39.9764 13.3711 39.5037 14.293 38.91 15.0352C38.3162 15.7773 37.6287 16.3359 36.8475 16.7109C36.0741 17.0859 35.2655 17.2734 34.4217 17.2734C33.5545 17.2734 32.7264 17.0898 31.9373 16.7227C31.1561 16.3555 30.4725 15.8203 29.8866 15.1172C29.3084 14.4141 28.8436 13.5391 28.492 12.4922C28.1405 11.4453 27.9647 10.25 27.9647 8.90625C27.9647 7.45312 28.1405 6.17188 28.492 5.0625C28.8436 3.94531 29.3162 3.01172 29.91 2.26172C30.5037 1.50391 31.1912 0.9375 31.9725 0.5625C32.7537 0.1875 33.5702 0 34.4217 0ZM34.4217 15.8438C34.867 15.8438 35.2928 15.7266 35.6991 15.4922C36.1131 15.2578 36.4803 14.8672 36.8006 14.3203C37.1209 13.7656 37.3748 13.0273 37.5623 12.1055C37.7577 11.1836 37.8553 10.0273 37.8553 8.63672C37.8553 7.26172 37.7577 6.11328 37.5623 5.19141C37.3748 4.26172 37.1209 3.51953 36.8006 2.96484C36.4803 2.41016 36.1131 2.01953 35.6991 1.79297C35.2928 1.55859 34.867 1.44141 34.4217 1.44141C33.9764 1.44141 33.5428 1.55859 33.1209 1.79297C32.7069 2.01953 32.3397 2.41406 32.0194 2.97656C31.6991 3.53906 31.4412 4.28125 31.2459 5.20312C31.0584 6.11719 30.9647 7.26953 30.9647 8.66016C30.9647 10.0352 31.0584 11.1836 31.2459 12.1055C31.4412 13.0273 31.6991 13.7656 32.0194 14.3203C32.3397 14.8672 32.7069 15.2578 33.1209 15.4922C33.5428 15.7266 33.9764 15.8438 34.4217 15.8438ZM57.4645 2.20312L57.3005 1.26562C57.6364 1.03906 58.0114 0.839844 58.4255 0.667969C58.777 0.527344 59.1716 0.394531 59.6091 0.269531C60.0544 0.136719 60.5153 0.0703125 60.9919 0.0703125C61.2809 0.0703125 61.5348 0.0898438 61.7536 0.128906C61.9802 0.167969 62.1833 0.203125 62.363 0.234375C62.5427 0.296875 62.7106 0.355469 62.8669 0.410156V15.3867C63.1403 15.4492 63.3825 15.5195 63.5934 15.5977C63.8122 15.6758 63.9997 15.7578 64.1559 15.8438C64.3356 15.9219 64.5036 16.0078 64.6598 16.1016L64.4958 17.0391H58.1794L58.0153 16.1016C58.1716 16.0078 58.3552 15.9219 58.5661 15.8438C58.7458 15.7656 58.9528 15.6875 59.1872 15.6094C59.4294 15.5234 59.695 15.4492 59.9841 15.3867V2.20312H57.4645ZM91.4527 1.85156C91.2573 1.80469 91.0464 1.75391 90.8198 1.69922C90.6245 1.66797 90.3902 1.63672 90.1167 1.60547C89.8511 1.57422 89.5659 1.55859 89.2612 1.55859C88.5894 1.55859 87.9644 1.68359 87.3862 1.93359C86.8159 2.18359 86.3042 2.57812 85.8511 3.11719C85.4058 3.64844 85.0347 4.34766 84.7378 5.21484C84.4409 6.07422 84.23 7.12109 84.105 8.35547H84.2222C84.4487 7.98828 84.7222 7.66016 85.0425 7.37109C85.3159 7.12891 85.6597 6.90625 86.0737 6.70312C86.4878 6.49219 86.9917 6.38672 87.5855 6.38672C88.3511 6.38672 89.0503 6.51172 89.6831 6.76172C90.3159 7.00391 90.8511 7.35547 91.2886 7.81641C91.7339 8.26953 92.0777 8.82422 92.3198 9.48047C92.5698 10.1367 92.6948 10.8711 92.6948 11.6836C92.6948 12.5117 92.5581 13.2734 92.2847 13.9688C92.0112 14.6562 91.6245 15.2461 91.1245 15.7383C90.6323 16.2227 90.0464 16.6016 89.3667 16.875C88.687 17.1406 87.9331 17.2734 87.105 17.2734C86.2378 17.2734 85.437 17.1211 84.7027 16.8164C83.9683 16.5039 83.3316 16.0391 82.7925 15.4219C82.2612 14.8047 81.8472 14.0312 81.5503 13.1016C81.2534 12.1719 81.105 11.0938 81.105 9.86719C81.105 8.26562 81.3081 6.84766 81.7144 5.61328C82.1206 4.37891 82.6792 3.34766 83.3902 2.51953C84.1089 1.68359 84.9487 1.05469 85.9097 0.632812C86.8784 0.210938 87.9253 0 89.0503 0C89.4175 0 89.7691 0.0195313 90.105 0.0585938C90.4409 0.0976562 90.73 0.132812 90.9722 0.164062C91.2612 0.226562 91.5152 0.285156 91.7339 0.339844L91.4527 1.85156ZM84.2222 10.0547C84.2222 11.1562 84.2964 12.082 84.4448 12.832C84.6011 13.5742 84.812 14.1641 85.0777 14.6016C85.3433 15.0391 85.6519 15.3555 86.0034 15.5508C86.355 15.7461 86.7222 15.8438 87.105 15.8438C87.4566 15.8438 87.7886 15.7695 88.1011 15.6211C88.4136 15.4648 88.687 15.2227 88.9214 14.8945C89.1636 14.5664 89.3511 14.1562 89.4839 13.6641C89.6245 13.1641 89.6948 12.5703 89.6948 11.8828C89.6948 10.5078 89.437 9.50781 88.9214 8.88281C88.4136 8.25781 87.7925 7.94531 87.0581 7.94531C86.5425 7.94531 86.105 8.05469 85.7456 8.27344C85.3862 8.48438 85.0933 8.72656 84.8667 9C84.5933 9.30469 84.3784 9.65625 84.2222 10.0547Z" fill="#C40D3C"/>
</svg>
