<svg width="260" height="240" viewBox="0 0 260 240" fill="none" xmlns="http://www.w3.org/2000/svg">
<path d="M105.757 112.947C106.236 102.02 117.178 89.0202 118.982 79.2914C120.787 69.5626 117.967 56.7178 119.137 47.0173C119.518 43.8307 121.351 41.1518 124.608 40.5032C129.67 39.488 138.877 39.4598 140.146 45.7906C142.049 55.2656 138.539 69.8869 140.47 79.3055C142.543 89.4432 153.964 101.216 155.106 114.019C156.854 133.716 153.428 155.669 155.853 175.31L155.148 197.785C154.951 198.631 152.751 198.885 151.947 198.955C145.758 199.505 138.228 198.927 131.855 198.955V197.545H130.812L130.445 198.955C123.649 198.941 115.528 199.548 108.943 198.955C108.154 198.885 105.926 198.617 105.743 197.785C106.278 194.655 105.08 191.751 105.024 188.761C104.572 165.06 103.783 139.483 105.771 115.767C106.659 115.091 106.955 113.356 105.771 112.947H105.757ZM136.776 52.3187C136.861 47.7222 137.693 44.3665 132.236 43.8166C125.017 43.0834 121.492 44.3524 122.676 52.3187H136.776ZM136.776 55.8436H122.676V76.2882H136.776V55.8436ZM109.282 110.832L108.704 111.368C108.619 111.862 109.296 112.186 109.282 112.242C108.168 119.292 108.647 126.257 108.577 133.392C108.661 134.28 109.366 134.04 109.987 134.097C123.41 135.352 138.665 133.166 152.286 134.097V114.71C152.286 113.695 149.522 106.278 148.888 104.713C145.673 96.8173 140.428 89.0766 137.411 80.9411C137.058 80.1656 136.522 79.9541 135.719 79.8131C133.9 79.4747 123.099 79.5593 122.31 80.5181L109.268 110.832H109.282ZM151.581 137.622H109.282V174.986H151.933L151.581 137.622ZM152.286 178.511H108.577V194.373L109.634 195.431H151.228L152.286 194.373V178.511Z" fill="#1A1919"/>
<path d="M207.276 116.473C207.276 116.571 206.303 117.178 206.571 117.883H207.981C208.065 118.954 208.065 120.336 207.981 121.408C207.981 121.605 206.839 122.522 207.276 123.523H208.686C210.194 141.006 208.94 156.008 188.241 158.772V194.726H201.284C203.356 194.726 205.147 198.195 201.269 198.942C196.983 199.76 178.625 199.492 173.747 198.998C168.079 198.434 170.109 194.726 172.379 194.726H184.011V158.772C167.501 156.53 162.129 145.039 162.862 129.529C163.031 126.089 165.513 109.014 166.753 106.631C166.993 106.166 167.317 105.799 167.783 105.545L203.962 105.334C205.979 105.94 207.375 114.442 207.276 116.473ZM167.092 127.752H205.161C205.528 121.295 203.286 115.091 202.27 108.788L169.869 109.169L167.092 127.752ZM205.866 131.277H166.387C165.724 143.854 172.069 155.078 185.76 155.303C199.451 155.529 206.994 144.291 205.866 131.277Z" fill="#1A1919"/>
<path d="M75.4444 158.771V194.372L76.5019 195.43H89.8966L90.9541 197.178C89.8684 198.842 88.8814 198.814 87.1189 198.997C82.2405 199.491 63.8827 199.759 59.5964 198.941C58.412 198.715 57.8198 198.081 57.1148 197.192L58.1723 195.444H71.2145V158.785C54.7038 156.543 49.3318 145.052 50.065 129.542C50.2624 125.326 52.3209 110.705 53.7591 107.152C54.027 106.475 54.2949 105.897 54.9858 105.559H91.659C92.1243 105.812 92.4486 106.179 92.6883 106.644C93.633 108.463 95.4519 119.813 95.7902 122.577C97.9616 140.202 95.9172 155.782 75.4303 158.799L75.4444 158.771ZM54.2949 127.751H92.364L89.4736 108.787L57.5519 108.675L54.2949 127.751ZM53.5899 131.276C53.463 137.734 54.4782 145.193 59.3144 149.888C68.4651 158.771 86.6114 156.317 91.2925 143.952C92.1243 141.752 94.5777 131.558 91.9128 130.67L53.5899 131.276Z" fill="#1A1919"/>
<path d="M105.76 115.767C105.76 115.767 104.886 115.81 105.013 114.653L105.76 112.947C106.944 113.356 106.648 115.09 105.76 115.767Z" fill="#5C6730"/>
<path d="M208.687 123.522H207.277C206.826 122.521 207.968 121.605 207.982 121.407C208.927 121.732 208.617 122.761 208.687 123.522Z" fill="#1A1919"/>
<path d="M207.983 117.882H206.573C206.305 117.177 207.263 116.57 207.278 116.472C207.968 116.655 207.94 117.289 207.983 117.882Z" fill="#1A1919"/>
<path d="M130.434 198.955L130.8 197.545H131.844V198.955C131.378 198.955 130.899 198.955 130.434 198.955Z" fill="#5C6730"/>
<path d="M109.283 110.832L122.326 80.5176C123.115 79.5588 133.902 79.4742 135.734 79.8126C136.524 79.9536 137.074 80.1651 137.426 80.9405C140.444 89.0761 145.703 96.8168 148.904 104.713C149.538 106.278 152.302 113.694 152.302 114.709V134.096C138.681 133.166 123.425 135.351 110.003 134.096L108.593 133.391C108.663 126.257 108.184 119.292 109.298 112.242V110.832H109.283Z" fill="#C40D3C"/>
<path d="M151.582 137.622L151.935 174.986H109.283V137.622H151.582ZM122.325 148.197C120.69 148.831 121.254 151.722 122.325 151.722H142.065L143.122 149.973C142.685 149.635 141.571 148.197 141.36 148.197H122.325ZM128.318 159.477L128.402 161.859C129.121 164.031 141.191 163.833 136.312 159.589L128.318 159.477Z" fill="#E3BF35"/>
<path d="M152.287 178.51V194.372L151.23 195.429H109.636L108.578 194.372V178.51H152.287Z" fill="#C40D3C"/>
<path d="M136.779 55.8428H122.68V76.2873H136.779V55.8428Z" fill="#FAFAFA"/>
<path d="M136.778 52.3199H122.678C121.508 44.3536 125.019 43.0846 132.238 43.8178C137.695 44.3677 136.863 47.7234 136.778 52.3199Z" fill="#493931"/>
<path d="M109.988 134.097C109.368 134.04 108.663 134.28 108.578 133.392L109.988 134.097Z" fill="#5C6730"/>
<path d="M109.283 112.242C109.283 112.242 108.62 111.861 108.705 111.368L109.283 110.832V112.242Z" fill="#5C6730"/>
<path d="M205.867 131.277C206.995 144.277 199.678 155.515 185.761 155.303C171.845 155.092 165.711 143.868 166.388 131.277H205.867Z" fill="#C40D3C"/>
<path d="M167.092 127.752L169.869 109.169L202.271 108.788C203.286 115.091 205.528 121.295 205.161 127.752H167.092Z" fill="#F4F4F4"/>
<path d="M53.5902 131.276L91.9132 130.67C94.5639 131.544 92.1247 141.752 91.2928 143.952C86.6117 156.317 68.4654 158.771 59.3147 149.888C54.4785 145.193 53.4633 137.734 53.5902 131.276Z" fill="#C40D3C"/>
<path d="M54.2949 127.753L57.5519 108.676L89.4736 108.789L92.3641 127.753H54.2949Z" fill="#F4F4F4"/>
<path d="M122.325 148.196H141.359C141.571 148.196 142.685 149.634 143.122 149.973L142.064 151.721H122.325C121.253 151.721 120.689 148.831 122.325 148.196Z" fill="#F4F4F4"/>
<path d="M128.318 159.476L136.313 159.588C141.191 163.832 129.122 164.03 128.403 161.858L128.318 159.476Z" fill="#F4F4F4"/>
</svg>
