<svg width="170" height="56" viewBox="0 0 170 56" fill="none" xmlns="http://www.w3.org/2000/svg">
<path d="M13.3793 16.1356C14.8901 15.4968 19.4167 13.529 19.4167 7.96227C19.4167 0.33081 12.4706 0.0114073 9.38087 0H8.85267C7.16583 0.0114073 0.497975 0.211034 0.435499 0.211034H0.202636V30.6969H4.45666L4.4169 3.37085C5.2234 3.34803 7.94393 3.28529 8.88107 3.28529C13.1976 3.28529 15.0434 4.77964 15.0434 8.25886C15.0434 11.3959 12.6864 13.7229 9.00602 14.1735L8.88107 14.1963L8.13704 15.9017L18.0423 31.273L21.9725 29.4992L13.2771 16.1812C13.3168 16.1584 13.3396 16.1584 13.385 16.1356H13.3793ZM35.8705 6.53066L25.8574 30.6969H29.7877L32.7013 23.459H41.3968L44.2877 30.6741H48.3884L38.5229 6.53066H35.8649H35.8705ZM33.9792 20.2593L37.0633 12.5537L40.1018 20.2593H33.9792ZM77.0022 6.99836L68.8179 24.9078L60.5711 6.99836H57.8733L55.0051 30.6741H58.6401L60.3383 15.3656L67.415 30.6741H69.7948L76.9795 15.0462L78.5925 30.6741H82.4603L79.7171 6.99836H76.9965H77.0022ZM155.102 6.53066L145.089 30.6741H149.02L151.933 23.4362H160.629L163.497 30.6741H167.598L157.755 6.53066H155.097H155.102ZM153.188 20.2593L156.272 12.5537L159.311 20.2593H153.188ZM169.052 7.79686C169.052 7.40331 168.813 7.2208 168.336 7.2208H167.569V9.23418H167.882V8.35582H168.228L168.762 9.23418H169.103L168.529 8.35012C168.83 8.31019 169.057 8.15619 169.057 7.79686H169.052ZM167.876 8.10486V7.47176H168.29C168.643 7.47176 168.733 7.58012 168.733 7.77405C168.733 7.99649 168.614 8.10486 168.239 8.10486H167.876ZM125.659 6.9185C124.807 6.9185 123.109 6.94132 121.343 7.0668L119.514 7.15235V30.5486L119.895 30.5886C121.871 30.7369 123.126 30.8224 124.887 30.8224C128.351 30.8224 130.777 30.4802 133.026 29.6931C137.064 28.1988 139.785 23.8868 139.785 18.9589C139.785 15.588 138.512 12.4054 136.257 10.2722C133.9 8.07634 130.243 6.9185 125.654 6.9185H125.659ZM133.696 24.9135C132.208 26.6645 129.891 27.4345 126.148 27.4345C125.233 27.4345 124.489 27.3945 123.382 27.2405H123.405V10.3578C124.024 10.3122 124.404 10.3122 124.915 10.3122C127.38 10.3122 129.487 10.7171 131.163 11.527C133.906 12.8275 135.667 15.8846 135.667 19.3182C135.667 21.4742 134.968 23.459 133.69 24.9135H133.696ZM99.1299 6.53066L89.1168 30.6741H93.0471L95.9778 23.4362H104.673L107.541 30.6741H111.642L101.76 6.53066H99.1243H99.1299ZM97.2386 20.2593L100.323 12.5537L103.361 20.2593H97.2386ZM168.245 6.47932C167.291 6.47932 166.479 7.2208 166.479 8.21893C166.479 9.21707 167.291 9.96995 168.245 9.96995C169.199 9.96995 170 9.22847 170 8.21893C170 7.20939 169.188 6.47932 168.245 6.47932ZM168.245 9.69047C167.439 9.69047 166.814 9.07448 166.814 8.22464C166.814 7.37479 167.439 6.76451 168.245 6.76451C169.052 6.76451 169.665 7.3919 169.665 8.22464C169.665 9.05737 169.04 9.69047 168.245 9.69047Z" fill="#C40D3C"/>
<path d="M3.46002 39.5856H4.62778V44.6528H3.46002V39.5856ZM1.16776 44.6528H0V39.5856H1.16776V44.6528ZM3.54652 42.5752H1.08126V41.5835H3.54652V42.5752Z" fill="#C40D3C"/>
<path d="M10.435 44.7396C10.0361 44.7396 9.66608 44.6745 9.32488 44.5442C8.98849 44.4139 8.69535 44.2305 8.44546 43.994C8.20038 43.7575 8.00815 43.4801 7.86879 43.1616C7.73423 42.843 7.66696 42.4956 7.66696 42.1192C7.66696 41.7427 7.73423 41.3953 7.86879 41.0768C8.00815 40.7583 8.20278 40.4808 8.45267 40.2443C8.70256 40.0078 8.9957 39.8245 9.33209 39.6942C9.66848 39.5639 10.0337 39.4987 10.4278 39.4987C10.8266 39.4987 11.1919 39.5639 11.5234 39.6942C11.8598 39.8245 12.1506 40.0078 12.3957 40.2443C12.6455 40.4808 12.8402 40.7583 12.9795 41.0768C13.1189 41.3905 13.1886 41.7379 13.1886 42.1192C13.1886 42.4956 13.1189 42.8455 12.9795 43.1688C12.8402 43.4873 12.6455 43.7648 12.3957 44.0013C12.1506 44.2329 11.8598 44.4139 11.5234 44.5442C11.1919 44.6745 10.829 44.7396 10.435 44.7396ZM10.4278 43.7407C10.6536 43.7407 10.8603 43.7021 11.0477 43.6248C11.2399 43.5476 11.4081 43.4366 11.5523 43.2919C11.6964 43.1471 11.807 42.9758 11.8839 42.7779C11.9656 42.58 12.0064 42.3605 12.0064 42.1192C12.0064 41.8779 11.9656 41.6583 11.8839 41.4604C11.807 41.2626 11.6964 41.0913 11.5523 40.9465C11.4129 40.8017 11.2471 40.6907 11.0549 40.6135C10.8627 40.5363 10.6536 40.4977 10.4278 40.4977C10.2019 40.4977 9.99286 40.5363 9.80064 40.6135C9.61322 40.6907 9.44742 40.8017 9.30326 40.9465C9.15909 41.0913 9.04616 41.2626 8.96446 41.4604C8.88757 41.6583 8.84913 41.8779 8.84913 42.1192C8.84913 42.3556 8.88757 42.5752 8.96446 42.7779C9.04616 42.9758 9.15669 43.1471 9.29605 43.2919C9.44022 43.4366 9.60841 43.5476 9.80064 43.6248C9.99286 43.7021 10.2019 43.7407 10.4278 43.7407Z" fill="#C40D3C"/>
<path d="M17.2035 44.6528V40.5411H15.5889V39.5856H19.986V40.5411H18.3713V44.6528H17.2035Z" fill="#C40D3C"/>
<path d="M23.8508 41.6269H26.2801V42.539H23.8508V41.6269ZM23.9373 43.7117H26.6837V44.6528H22.7768V39.5856H26.59V40.5266H23.9373V43.7117Z" fill="#C40D3C"/>
<path d="M29.7754 44.6528V39.5856H30.9431V43.6972H33.4733V44.6528H29.7754Z" fill="#C40D3C"/>
<path d="M42.0781 44.7396C41.708 44.7396 41.3789 44.6793 41.0905 44.5586C40.8022 44.438 40.5739 44.2739 40.4057 44.0664C40.2375 43.8589 40.1534 43.62 40.1534 43.3498C40.1534 43.0988 40.2087 42.8744 40.3192 42.6766C40.4298 42.4739 40.6052 42.2857 40.8454 42.1119C41.0857 41.9334 41.3909 41.7596 41.7609 41.5907C42.03 41.4653 42.2415 41.3543 42.3952 41.2577C42.549 41.1612 42.6571 41.0695 42.7196 40.9827C42.7821 40.891 42.8133 40.7993 42.8133 40.7076C42.8133 40.5821 42.7701 40.4808 42.6836 40.4036C42.6019 40.3264 42.4793 40.2877 42.3159 40.2877C42.1429 40.2877 42.0084 40.3312 41.9123 40.418C41.8162 40.5049 41.7681 40.6159 41.7681 40.751C41.7681 40.8234 41.7825 40.8958 41.8114 40.9682C41.8402 41.0358 41.8955 41.1154 41.9771 41.2071C42.0588 41.2939 42.1742 41.4073 42.3232 41.5473L44.983 44.023L44.3703 44.7396L41.4365 42.0033C41.2683 41.8489 41.1338 41.7041 41.0329 41.569C40.9319 41.4339 40.8574 41.3012 40.8094 41.1709C40.7661 41.0406 40.7445 40.9055 40.7445 40.7655C40.7445 40.5194 40.8094 40.3022 40.9391 40.114C41.0689 39.9258 41.2515 39.781 41.487 39.6797C41.7225 39.5735 41.9988 39.5204 42.3159 39.5204C42.6091 39.5204 42.8614 39.5687 43.0728 39.6652C43.2891 39.7569 43.4573 39.8896 43.5774 40.0633C43.7024 40.2371 43.7648 40.4446 43.7648 40.6859C43.7648 40.8982 43.712 41.0937 43.6062 41.2722C43.5005 41.446 43.3347 41.61 43.1089 41.7645C42.8878 41.9189 42.5971 42.0757 42.2367 42.235C41.9916 42.346 41.7969 42.4546 41.6528 42.5607C41.5134 42.6621 41.4125 42.7658 41.35 42.872C41.2875 42.9782 41.2563 43.0964 41.2563 43.2267C41.2563 43.3474 41.2924 43.4559 41.3644 43.5525C41.4413 43.649 41.5471 43.7238 41.6816 43.7769C41.8162 43.8299 41.9747 43.8565 42.1574 43.8565C42.4505 43.8565 42.7196 43.7889 42.9647 43.6538C43.2098 43.5138 43.4164 43.3087 43.5846 43.0385C43.7576 42.7634 43.8802 42.4304 43.9522 42.0395L44.8533 42.3218C44.7524 42.8141 44.5722 43.2412 44.3127 43.6031C44.0532 43.9651 43.7336 44.245 43.354 44.4428C42.9743 44.6407 42.549 44.7396 42.0781 44.7396Z" fill="#C40D3C"/>
<path d="M53.761 44.7396C53.3573 44.7396 52.9705 44.6865 52.6004 44.5804C52.2304 44.4694 51.9325 44.327 51.7066 44.1533L52.1031 43.2701C52.3193 43.4246 52.574 43.5525 52.8672 43.6538C53.1651 43.7503 53.4654 43.7986 53.7682 43.7986C53.9989 43.7986 54.1839 43.7769 54.3232 43.7334C54.4674 43.6852 54.5731 43.62 54.6404 43.538C54.7077 43.4559 54.7413 43.3618 54.7413 43.2557C54.7413 43.1205 54.6885 43.0144 54.5827 42.9371C54.477 42.8551 54.3377 42.79 54.1647 42.7417C53.9917 42.6886 53.7994 42.6404 53.588 42.5969C53.3813 42.5487 53.1723 42.4908 52.9609 42.4232C52.7542 42.3556 52.5644 42.2688 52.3914 42.1626C52.2184 42.0564 52.0766 41.9165 51.9661 41.7427C51.8604 41.569 51.8075 41.347 51.8075 41.0768C51.8075 40.7872 51.8844 40.5242 52.0382 40.2877C52.1968 40.0465 52.4322 39.8558 52.7446 39.7159C53.0618 39.5711 53.4582 39.4987 53.934 39.4987C54.2512 39.4987 54.5635 39.5373 54.8711 39.6145C55.1786 39.6869 55.4502 39.7979 55.6856 39.9475L55.3252 40.8379C55.0897 40.7028 54.8543 40.6038 54.6188 40.5411C54.3833 40.4735 54.1526 40.4398 53.9268 40.4398C53.7009 40.4398 53.5159 40.4663 53.3717 40.5194C53.2276 40.5725 53.1242 40.6424 53.0618 40.7293C52.9993 40.8114 52.9681 40.9079 52.9681 41.0189C52.9681 41.1492 53.0209 41.2553 53.1267 41.3374C53.2324 41.4146 53.3717 41.4773 53.5447 41.5256C53.7177 41.5738 53.9076 41.6221 54.1142 41.6704C54.3256 41.7186 54.5347 41.7741 54.7413 41.8368C54.9528 41.8996 55.145 41.984 55.318 42.0902C55.491 42.1964 55.6304 42.3363 55.7361 42.5101C55.8466 42.6838 55.9019 42.9034 55.9019 43.1688C55.9019 43.4535 55.8226 43.7141 55.664 43.9506C55.5054 44.1871 55.2675 44.3777 54.9504 44.5224C54.638 44.6672 54.2415 44.7396 53.761 44.7396Z" fill="#C40D3C"/>
<path d="M61.1041 44.7396C60.3881 44.7396 59.8283 44.5393 59.4246 44.1388C59.0209 43.7382 58.8191 43.1664 58.8191 42.4232V39.5856H59.9868V42.3798C59.9868 42.8624 60.0854 43.2098 60.2824 43.4221C60.4794 43.6345 60.7557 43.7407 61.1113 43.7407C61.467 43.7407 61.7433 43.6345 61.9403 43.4221C62.1373 43.2098 62.2358 42.8624 62.2358 42.3798V39.5856H63.3892V42.4232C63.3892 43.1664 63.1874 43.7382 62.7837 44.1388C62.38 44.5393 61.8202 44.7396 61.1041 44.7396Z" fill="#C40D3C"/>
<path d="M66.7057 44.6528V39.5856H67.8734V44.6528H66.7057Z" fill="#C40D3C"/>
<path d="M72.2786 44.6528V40.5411H70.664V39.5856H75.0611V40.5411H73.4464V44.6528H72.2786Z" fill="#C40D3C"/>
<path d="M78.9259 41.6269H81.3552V42.539H78.9259V41.6269ZM79.0124 43.7117H81.7588V44.6528H77.8519V39.5856H81.6651V40.5266H79.0124V43.7117Z" fill="#C40D3C"/>
<path d="M86.5084 44.7396C86.1048 44.7396 85.7179 44.6865 85.3479 44.5804C84.9779 44.4694 84.6799 44.327 84.454 44.1533L84.8505 43.2701C85.0667 43.4246 85.3214 43.5525 85.6146 43.6538C85.9125 43.7503 86.2129 43.7986 86.5156 43.7986C86.7463 43.7986 86.9313 43.7769 87.0707 43.7334C87.2149 43.6852 87.3206 43.62 87.3878 43.538C87.4551 43.4559 87.4888 43.3618 87.4888 43.2557C87.4888 43.1205 87.4359 43.0144 87.3302 42.9371C87.2245 42.8551 87.0851 42.79 86.9121 42.7417C86.7391 42.6886 86.5469 42.6404 86.3354 42.5969C86.1288 42.5487 85.9197 42.4908 85.7083 42.4232C85.5017 42.3556 85.3118 42.2688 85.1388 42.1626C84.9658 42.0564 84.8241 41.9165 84.7135 41.7427C84.6078 41.569 84.555 41.347 84.555 41.0768C84.555 40.7872 84.6318 40.5242 84.7856 40.2877C84.9442 40.0465 85.1797 39.8558 85.4921 39.7159C85.8092 39.5711 86.2057 39.4987 86.6814 39.4987C86.9986 39.4987 87.311 39.5373 87.6185 39.6145C87.9261 39.6869 88.1976 39.7979 88.4331 39.9475L88.0726 40.8379C87.8372 40.7028 87.6017 40.6038 87.3662 40.5411C87.1308 40.4735 86.9001 40.4398 86.6742 40.4398C86.4484 40.4398 86.2633 40.4663 86.1192 40.5194C85.975 40.5725 85.8717 40.6424 85.8092 40.7293C85.7467 40.8114 85.7155 40.9079 85.7155 41.0189C85.7155 41.1492 85.7684 41.2553 85.8741 41.3374C85.9798 41.4146 86.1192 41.4773 86.2922 41.5256C86.4652 41.5738 86.655 41.6221 86.8616 41.6704C87.0731 41.7186 87.2821 41.7741 87.4888 41.8368C87.7002 41.8996 87.8924 41.984 88.0654 42.0902C88.2384 42.1964 88.3778 42.3363 88.4835 42.5101C88.5941 42.6838 88.6493 42.9034 88.6493 43.1688C88.6493 43.4535 88.57 43.7141 88.4114 43.9506C88.2529 44.1871 88.015 44.3777 87.6978 44.5224C87.3854 44.6672 86.989 44.7396 86.5084 44.7396Z" fill="#C40D3C"/>
<path d="M95.8137 44.6528V39.5856H98.279C98.9133 39.5856 99.3891 39.7062 99.7062 39.9475C100.028 40.1888 100.189 40.5073 100.189 40.903C100.189 41.1685 100.124 41.4001 99.9946 41.598C99.8648 41.791 99.687 41.9406 99.4612 42.0468C99.2353 42.1529 98.9758 42.206 98.6826 42.206L98.8196 41.9092C99.1368 41.9092 99.4179 41.9623 99.663 42.0685C99.9081 42.1698 100.098 42.3219 100.232 42.5245C100.372 42.7272 100.441 42.9758 100.441 43.2701C100.441 43.7045 100.271 44.0447 99.9297 44.2908C99.5885 44.5321 99.0863 44.6528 98.4231 44.6528H95.8137ZM96.9743 43.7696H98.3366C98.6394 43.7696 98.8677 43.7214 99.0214 43.6248C99.18 43.5235 99.2593 43.3642 99.2593 43.1471C99.2593 42.9347 99.18 42.7779 99.0214 42.6766C98.8677 42.5704 98.6394 42.5173 98.3366 42.5173H96.8878V41.6631H98.1348C98.4183 41.6631 98.6346 41.6149 98.7836 41.5183C98.9373 41.417 99.0142 41.265 99.0142 41.0623C99.0142 40.8644 98.9373 40.7172 98.7836 40.6207C98.6346 40.5194 98.4183 40.4687 98.1348 40.4687H96.9743V43.7696Z" fill="#C40D3C"/>
<path d="M104.637 44.6528V42.5825L104.903 43.2919L102.683 39.5856H103.923L105.624 42.4304H104.911L106.619 39.5856H107.765L105.545 43.2919L105.805 42.5825V44.6528H104.637Z" fill="#C40D3C"/>
<path d="M115.831 44.6528L114.181 39.5856H115.392L116.826 44.0736H116.221L117.72 39.5856H118.801L120.243 44.0736H119.659L121.129 39.5856H122.247L120.596 44.6528H119.342L118.066 40.7148H118.397L117.086 44.6528H115.831Z" fill="#C40D3C"/>
<path d="M126.245 44.6528V42.5825L126.512 43.2919L124.292 39.5856H125.531L127.233 42.4304H126.519L128.227 39.5856H129.373L127.153 43.2919L127.413 42.5825V44.6528H126.245Z" fill="#C40D3C"/>
<path d="M131.982 44.6528V39.5856H132.948L135.925 43.2339H135.457V39.5856H136.61V44.6528H135.651L132.667 41.0044H133.136V44.6528H131.982Z" fill="#C40D3C"/>
<path d="M139.966 44.6528V39.5856H142.259C142.807 39.5856 143.29 39.6917 143.708 39.9041C144.126 40.1116 144.452 40.4036 144.688 40.78C144.923 41.1564 145.041 41.6028 145.041 42.1192C145.041 42.6307 144.923 43.0771 144.688 43.4583C144.452 43.8348 144.126 44.1291 143.708 44.3415C143.29 44.549 142.807 44.6528 142.259 44.6528H139.966ZM141.134 43.69H142.201C142.537 43.69 142.828 43.6273 143.073 43.5018C143.323 43.3715 143.515 43.1881 143.65 42.9516C143.789 42.7152 143.859 42.4377 143.859 42.1192C143.859 41.7958 143.789 41.5183 143.65 41.2867C143.515 41.0502 143.323 40.8693 143.073 40.7438C142.828 40.6135 142.537 40.5483 142.201 40.5483H141.134V43.69Z" fill="#C40D3C"/>
<path d="M151.544 39.5856H152.712V44.6528H151.544V39.5856ZM149.252 44.6528H148.084V39.5856H149.252V44.6528ZM151.631 42.5752H149.166V41.5835H151.631V42.5752Z" fill="#C40D3C"/>
<path d="M155.405 44.6528L157.654 39.5856H158.808L161.064 44.6528H159.838L157.993 40.1792H158.454L156.602 44.6528H155.405ZM156.53 43.5669L156.84 42.6766H159.435L159.752 43.5669H156.53Z" fill="#C40D3C"/>
<path d="M163.75 44.6528V39.5856H164.716L166.864 43.1616H166.352L168.464 39.5856H169.423L169.437 44.6528H168.342L168.334 41.2722H168.536L166.849 44.1171H166.323L164.6 41.2722H164.846V44.6528H163.75Z" fill="#C40D3C"/>
<path d="M0 55.9131V50.846H0.965923L3.94298 54.4943H3.47444V50.846H4.62778V55.9131H3.66906L0.684796 52.2648H1.15334V55.9131H0Z" fill="#C40D3C"/>
<path d="M12.0208 56C11.622 56 11.2519 55.9348 10.9107 55.8045C10.5743 55.6742 10.2812 55.4909 10.0313 55.2544C9.78622 55.0179 9.594 54.7404 9.45463 54.4219C9.32008 54.1034 9.2528 53.756 9.2528 53.3795C9.2528 53.0031 9.32008 52.6557 9.45463 52.3372C9.594 52.0187 9.78862 51.7412 10.0385 51.5047C10.2884 51.2682 10.5815 51.0848 10.9179 50.9545C11.2543 50.8242 11.6196 50.7591 12.0136 50.7591C12.4125 50.7591 12.7777 50.8242 13.1093 50.9545C13.4457 51.0848 13.7364 51.2682 13.9815 51.5047C14.2314 51.7412 14.426 52.0187 14.5654 52.3372C14.7047 52.6508 14.7744 52.9983 14.7744 53.3795C14.7744 53.756 14.7047 54.1058 14.5654 54.4292C14.426 54.7477 14.2314 55.0252 13.9815 55.2616C13.7364 55.4933 13.4457 55.6742 13.1093 55.8045C12.7777 55.9348 12.4149 56 12.0208 56ZM12.0136 55.001C12.2395 55.001 12.4461 54.9624 12.6335 54.8852C12.8258 54.808 12.9939 54.697 13.1381 54.5522C13.2823 54.4075 13.3928 54.2361 13.4697 54.0383C13.5514 53.8404 13.5922 53.6208 13.5922 53.3795C13.5922 53.1383 13.5514 52.9187 13.4697 52.7208C13.3928 52.5229 13.2823 52.3516 13.1381 52.2069C12.9988 52.0621 12.833 51.9511 12.6407 51.8739C12.4485 51.7967 12.2395 51.758 12.0136 51.758C11.7877 51.758 11.5787 51.7967 11.3865 51.8739C11.1991 51.9511 11.0333 52.0621 10.8891 52.2069C10.7449 52.3516 10.632 52.5229 10.5503 52.7208C10.4734 52.9187 10.435 53.1383 10.435 53.3795C10.435 53.616 10.4734 53.8356 10.5503 54.0383C10.632 54.2361 10.7425 54.4075 10.8819 54.5522C11.0261 54.697 11.1943 54.808 11.3865 54.8852C11.5787 54.9624 11.7877 55.001 12.0136 55.001Z" fill="#C40D3C"/>
<path d="M20.7522 55.9131L18.5753 50.846H19.8368L21.7398 55.334H20.9973L22.9292 50.846H24.0897L21.9056 55.9131H20.7522Z" fill="#C40D3C"/>
<path d="M30.6539 56C30.2551 56 29.885 55.9348 29.5438 55.8045C29.2074 55.6742 28.9143 55.4909 28.6644 55.2544C28.4193 55.0179 28.2271 54.7404 28.0877 54.4219C27.9532 54.1034 27.8859 53.756 27.8859 53.3795C27.8859 53.0031 27.9532 52.6557 28.0877 52.3372C28.2271 52.0187 28.4217 51.7412 28.6716 51.5047C28.9215 51.2682 29.2146 51.0848 29.551 50.9545C29.8874 50.8242 30.2526 50.7591 30.6467 50.7591C31.0456 50.7591 31.4108 50.8242 31.7424 50.9545C32.0788 51.0848 32.3695 51.2682 32.6146 51.5047C32.8645 51.7412 33.0591 52.0187 33.1985 52.3372C33.3378 52.6508 33.4075 52.9983 33.4075 53.3795C33.4075 53.756 33.3378 54.1058 33.1985 54.4292C33.0591 54.7477 32.8645 55.0252 32.6146 55.2616C32.3695 55.4933 32.0788 55.6742 31.7424 55.8045C31.4108 55.9348 31.048 56 30.6539 56ZM30.6467 55.001C30.8726 55.001 31.0792 54.9624 31.2666 54.8852C31.4588 54.808 31.627 54.697 31.7712 54.5522C31.9154 54.4075 32.0259 54.2361 32.1028 54.0383C32.1845 53.8404 32.2253 53.6208 32.2253 53.3795C32.2253 53.1383 32.1845 52.9187 32.1028 52.7208C32.0259 52.5229 31.9154 52.3516 31.7712 52.2069C31.6319 52.0621 31.4661 51.9511 31.2738 51.8739C31.0816 51.7967 30.8726 51.758 30.6467 51.758C30.4208 51.758 30.2118 51.7967 30.0196 51.8739C29.8322 51.9511 29.6664 52.0621 29.5222 52.2069C29.378 52.3516 29.2651 52.5229 29.1834 52.7208C29.1065 52.9187 29.0681 53.1383 29.0681 53.3795C29.0681 53.616 29.1065 53.8356 29.1834 54.0383C29.2651 54.2361 29.3756 54.4075 29.515 54.5522C29.6592 54.697 29.8274 54.808 30.0196 54.8852C30.2118 54.9624 30.4208 55.001 30.6467 55.001Z" fill="#C40D3C"/>
<path d="M39.6914 56C39.2878 56 38.9009 55.9469 38.5309 55.8407C38.1608 55.7297 37.8629 55.5874 37.637 55.4137L38.0335 54.5305C38.2497 54.6849 38.5044 54.8128 38.7976 54.9142C39.0955 55.0107 39.3959 55.0589 39.6986 55.0589C39.9293 55.0589 40.1143 55.0372 40.2537 54.9938C40.3978 54.9455 40.5036 54.8804 40.5708 54.7984C40.6381 54.7163 40.6718 54.6222 40.6718 54.516C40.6718 54.3809 40.6189 54.2747 40.5132 54.1975C40.4075 54.1155 40.2681 54.0503 40.0951 54.0021C39.9221 53.949 39.7299 53.9007 39.5184 53.8573C39.3118 53.809 39.1027 53.7511 38.8913 53.6836C38.6846 53.616 38.4948 53.5291 38.3218 53.423C38.1488 53.3168 38.0071 53.1769 37.8965 53.0031C37.7908 52.8294 37.7379 52.6074 37.7379 52.3372C37.7379 52.0476 37.8148 51.7846 37.9686 51.5481C38.1272 51.3068 38.3627 51.1162 38.675 50.9763C38.9922 50.8315 39.3887 50.7591 39.8644 50.7591C40.1816 50.7591 40.494 50.7977 40.8015 50.8749C41.1091 50.9473 41.3806 51.0583 41.6161 51.2079L41.2556 52.0983C41.0202 51.9631 40.7847 51.8642 40.5492 51.8015C40.3137 51.7339 40.0831 51.7001 39.8572 51.7001C39.6313 51.7001 39.4463 51.7267 39.3022 51.7798C39.158 51.8329 39.0547 51.9028 38.9922 51.9897C38.9297 52.0717 38.8985 52.1682 38.8985 52.2792C38.8985 52.4095 38.9514 52.5157 39.0571 52.5978C39.1628 52.675 39.3022 52.7377 39.4752 52.786C39.6482 52.8342 39.838 52.8825 40.0446 52.9307C40.2561 52.979 40.4651 53.0345 40.6718 53.0972C40.8832 53.16 41.0754 53.2444 41.2484 53.3506C41.4214 53.4568 41.5608 53.5967 41.6665 53.7704C41.777 53.9442 41.8323 54.1637 41.8323 54.4292C41.8323 54.7139 41.753 54.9745 41.5944 55.211C41.4358 55.4474 41.198 55.6381 40.8808 55.7828C40.5684 55.9276 40.172 56 39.6914 56Z" fill="#C40D3C"/>
<path d="M46.3786 55.9131V50.846H47.5464V55.9131H46.3786Z" fill="#C40D3C"/>
<path d="M52.4922 55.9131V50.846H54.9575C55.5918 50.846 56.0676 50.9666 56.3847 51.2079C56.7067 51.4492 56.8677 51.7677 56.8677 52.1634C56.8677 52.4288 56.8028 52.6605 56.6731 52.8583C56.5433 53.0514 56.3655 53.201 56.1396 53.3072C55.9138 53.4133 55.6543 53.4664 55.3611 53.4664L55.4981 53.1696C55.8153 53.1696 56.0964 53.2227 56.3415 53.3289C56.5866 53.4302 56.7764 53.5822 56.9109 53.7849C57.0503 53.9876 57.12 54.2361 57.12 54.5305C57.12 54.9648 56.9494 55.3051 56.6082 55.5512C56.267 55.7925 55.7648 55.9131 55.1016 55.9131H52.4922ZM53.6528 55.03H55.0151C55.3179 55.03 55.5462 54.9817 55.6999 54.8852C55.8585 54.7839 55.9378 54.6246 55.9378 54.4075C55.9378 54.1951 55.8585 54.0383 55.6999 53.9369C55.5462 53.8308 55.3179 53.7777 55.0151 53.7777H53.5663V52.9235H54.8133C55.0968 52.9235 55.3131 52.8752 55.4621 52.7787C55.6158 52.6774 55.6927 52.5254 55.6927 52.3227C55.6927 52.1248 55.6158 51.9776 55.4621 51.8811C55.3131 51.7798 55.0968 51.7291 54.8133 51.7291H53.6528V55.03Z" fill="#C40D3C"/>
<path d="M61.7524 55.9131V50.846H62.9202V55.9131H61.7524Z" fill="#C40D3C"/>
<path d="M67.866 55.9131V50.846H70.0502C70.5019 50.846 70.8912 50.9208 71.2179 51.0704C71.5447 51.2151 71.797 51.4251 71.9748 51.7001C72.1526 51.9752 72.2415 52.3034 72.2415 52.6846C72.2415 53.061 72.1526 53.3868 71.9748 53.6619C71.797 53.9321 71.5447 54.1396 71.2179 54.2844C70.8912 54.4292 70.5019 54.5016 70.0502 54.5016H68.5148L69.0338 53.9876V55.9131H67.866ZM71.0738 55.9131L69.8123 54.0745H71.0594L72.3352 55.9131H71.0738ZM69.0338 54.1179L68.5148 53.5678H69.9853C70.3457 53.5678 70.6148 53.4905 70.7926 53.3361C70.9705 53.1769 71.0594 52.9597 71.0594 52.6846C71.0594 52.4047 70.9705 52.1875 70.7926 52.0331C70.6148 51.8787 70.3457 51.8015 69.9853 51.8015H68.5148L69.0338 51.2441V54.1179Z" fill="#C40D3C"/>
<path d="M78.573 56C78.1693 56 77.7825 55.9469 77.4125 55.8407C77.0424 55.7297 76.7445 55.5874 76.5186 55.4137L76.9151 54.5305C77.1313 54.6849 77.386 54.8128 77.6792 54.9142C77.9771 55.0107 78.2775 55.0589 78.5802 55.0589C78.8109 55.0589 78.9959 55.0372 79.1353 54.9938C79.2794 54.9455 79.3852 54.8804 79.4524 54.7984C79.5197 54.7163 79.5534 54.6222 79.5534 54.516C79.5534 54.3809 79.5005 54.2747 79.3948 54.1975C79.289 54.1155 79.1497 54.0503 78.9767 54.0021C78.8037 53.949 78.6115 53.9007 78.4 53.8573C78.1934 53.809 77.9843 53.7511 77.7729 53.6836C77.5662 53.616 77.3764 53.5291 77.2034 53.423C77.0304 53.3168 76.8887 53.1769 76.7781 53.0031C76.6724 52.8294 76.6195 52.6074 76.6195 52.3372C76.6195 52.0476 76.6964 51.7846 76.8502 51.5481C77.0088 51.3068 77.2443 51.1162 77.5566 50.9763C77.8738 50.8315 78.2703 50.7591 78.746 50.7591C79.0632 50.7591 79.3755 50.7977 79.6831 50.8749C79.9907 50.9473 80.2622 51.0583 80.4977 51.2079L80.1372 52.0983C79.9018 51.9631 79.6663 51.8642 79.4308 51.8015C79.1953 51.7339 78.9647 51.7001 78.7388 51.7001C78.5129 51.7001 78.3279 51.7267 78.1838 51.7798C78.0396 51.8329 77.9363 51.9028 77.8738 51.9897C77.8113 52.0717 77.7801 52.1682 77.7801 52.2792C77.7801 52.4095 77.833 52.5157 77.9387 52.5978C78.0444 52.675 78.1838 52.7377 78.3568 52.786C78.5298 52.8342 78.7196 52.8825 78.9262 52.9307C79.1377 52.979 79.3467 53.0345 79.5534 53.0972C79.7648 53.16 79.957 53.2444 80.13 53.3506C80.303 53.4568 80.4424 53.5967 80.5481 53.7704C80.6586 53.9442 80.7139 54.1637 80.7139 54.4292C80.7139 54.7139 80.6346 54.9745 80.476 55.211C80.3174 55.4474 80.0796 55.6381 79.7624 55.7828C79.45 55.9276 79.0536 56 78.573 56Z" fill="#C40D3C"/>
<path d="M86.3054 54.7549L86.2405 53.4013L88.6553 50.846H89.9529L87.7759 53.1986L87.1272 53.8935L86.3054 54.7549ZM85.2602 55.9131V50.846H86.4207V55.9131H85.2602ZM88.713 55.9131L86.9181 53.7053L87.6822 52.8728L90.0754 55.9131H88.713Z" fill="#C40D3C"/>
<path d="M99.8099 55.9131V55.1531L102.931 51.3744L103.075 51.8015H99.8675V50.846H104.113V51.606L100.999 55.3847L100.855 54.9576H104.221V55.9131H99.8099Z" fill="#C40D3C"/>
<path d="M112.179 50.846H113.346V55.9131H112.179V50.846ZM109.886 55.9131H108.719V50.846H109.886V55.9131ZM112.265 53.8356H109.8V52.8439H112.265V53.8356Z" fill="#C40D3C"/>
<path d="M120.53 56C119.814 56 119.255 55.7997 118.851 55.3992C118.447 54.9986 118.245 54.4268 118.245 53.6836V50.846H119.413V53.6401C119.413 54.1227 119.512 54.4702 119.709 54.6825C119.906 54.8949 120.182 55.001 120.538 55.001C120.893 55.001 121.17 54.8949 121.367 54.6825C121.564 54.4702 121.662 54.1227 121.662 53.6401V50.846H122.816V53.6836C122.816 54.4268 122.614 54.9986 122.21 55.3992C121.806 55.7997 121.246 56 120.53 56Z" fill="#C40D3C"/>
<path d="M128.763 54.7549L128.698 53.4013L131.113 50.846H132.41L130.234 53.1986L129.585 53.8935L128.763 54.7549ZM127.718 55.9131V50.846H128.878V55.9131H127.718ZM131.171 55.9131L129.376 53.7053L130.14 52.8728L132.533 55.9131H131.171Z" fill="#C40D3C"/>
<path d="M139.07 56C138.671 56 138.301 55.9348 137.96 55.8045C137.623 55.6742 137.33 55.4909 137.08 55.2544C136.835 55.0179 136.643 54.7404 136.504 54.4219C136.369 54.1034 136.302 53.756 136.302 53.3795C136.302 53.0031 136.369 52.6557 136.504 52.3372C136.643 52.0187 136.838 51.7412 137.088 51.5047C137.337 51.2682 137.631 51.0848 137.967 50.9545C138.303 50.8242 138.669 50.7591 139.063 50.7591C139.462 50.7591 139.827 50.8242 140.158 50.9545C140.495 51.0848 140.785 51.2682 141.031 51.5047C141.28 51.7412 141.475 52.0187 141.614 52.3372C141.754 52.6508 141.824 52.9983 141.824 53.3795C141.824 53.756 141.754 54.1058 141.614 54.4292C141.475 54.7477 141.28 55.0252 141.031 55.2616C140.785 55.4933 140.495 55.6742 140.158 55.8045C139.827 55.9348 139.464 56 139.07 56ZM139.063 55.001C139.289 55.001 139.495 54.9624 139.683 54.8852C139.875 54.808 140.043 54.697 140.187 54.5522C140.331 54.4075 140.442 54.2361 140.519 54.0383C140.6 53.8404 140.641 53.6208 140.641 53.3795C140.641 53.1383 140.6 52.9187 140.519 52.7208C140.442 52.5229 140.331 52.3516 140.187 52.2069C140.048 52.0621 139.882 51.9511 139.69 51.8739C139.498 51.7967 139.289 51.758 139.063 51.758C138.837 51.758 138.628 51.7967 138.436 51.8739C138.248 51.9511 138.082 52.0621 137.938 52.2069C137.794 52.3516 137.681 52.5229 137.599 52.7208C137.523 52.9187 137.484 53.1383 137.484 53.3795C137.484 53.616 137.523 53.8356 137.599 54.0383C137.681 54.2361 137.792 54.4075 137.931 54.5522C138.075 54.697 138.243 54.808 138.436 54.8852C138.628 54.9624 138.837 55.001 139.063 55.001Z" fill="#C40D3C"/>
<path d="M147.801 55.9131L145.624 50.846H146.886L148.789 55.334H148.046L149.978 50.846H151.139L148.955 55.9131H147.801Z" fill="#C40D3C"/>
<path d="M156.354 54.7549L156.289 53.4013L158.704 50.846H160.001L157.824 53.1986L157.175 53.8935L156.354 54.7549ZM155.308 55.9131V50.846H156.469V55.9131H155.308ZM158.761 55.9131L156.966 53.7053L157.73 52.8728L160.124 55.9131H158.761Z" fill="#C40D3C"/>
<path d="M163.497 55.9131L165.746 50.846H166.9L169.156 55.9131H167.93L166.085 51.4395H166.546L164.694 55.9131H163.497ZM164.622 54.8273L164.932 53.9369H167.527L167.844 54.8273H164.622Z" fill="#C40D3C"/>
</svg>
