<svg width="94" height="18" viewBox="0 0 94 18" fill="none" xmlns="http://www.w3.org/2000/svg">
<path d="M5.01562 1.44141C4.69531 1.44141 4.42188 1.46094 4.19531 1.5C3.97656 1.53906 3.78516 1.58203 3.62109 1.62891C3.44141 1.69141 3.28125 1.75 3.14062 1.80469C3.07812 2.36719 2.98438 2.87109 2.85938 3.31641C2.74219 3.76172 2.62109 4.14453 2.49609 4.46484C2.33984 4.83203 2.17969 5.16016 2.01562 5.44922H0.84375C0.796875 4.68359 0.746094 3.92969 0.691406 3.1875C0.644531 2.4375 0.589844 1.67969 0.527344 0.914062C0.894531 0.757813 1.32812 0.605469 1.82812 0.457031C2.24219 0.347656 2.74609 0.246094 3.33984 0.152344C3.94141 0.0507812 4.62109 0 5.37891 0C7.26953 0 8.67188 0.414062 9.58594 1.24219C10.5078 2.0625 10.9688 3.16797 10.9688 4.55859C10.9688 5.48828 10.7422 6.37891 10.2891 7.23047C9.84375 8.07422 9.28516 8.87109 8.61328 9.62109C7.94141 10.3711 7.19922 11.0664 6.38672 11.707C5.58203 12.3477 4.82031 12.918 4.10156 13.418L2.29688 14.6367V14.7539H9.02344C9.10156 14.4023 9.21484 14.082 9.36328 13.793C9.51953 13.4961 9.66016 13.2344 9.78516 13.0078C9.94141 12.75 10.1016 12.5078 10.2656 12.2812L11.4258 12.4102L11.0625 17.0391H0V14.7539C0.398438 14.4492 0.789062 14.1562 1.17188 13.875C1.49219 13.6172 1.83203 13.3516 2.19141 13.0781C2.55078 12.8047 2.86719 12.5586 3.14062 12.3398C3.76562 11.8477 4.35938 11.3086 4.92188 10.7227C5.49219 10.1367 5.99219 9.51172 6.42188 8.84766C6.85938 8.18359 7.20703 7.47656 7.46484 6.72656C7.72266 5.96875 7.85156 5.16797 7.85156 4.32422C7.85156 3.41016 7.60547 2.70312 7.11328 2.20312C6.62891 1.69531 5.92969 1.44141 5.01562 1.44141ZM34.4217 0C35.2889 0 36.1092 0.183594 36.8827 0.550781C37.6561 0.917969 38.3397 1.45703 38.9334 2.16797C39.5272 2.87891 39.9959 3.76172 40.3397 4.81641C40.6834 5.86328 40.8553 7.05859 40.8553 8.40234C40.8553 9.87109 40.6795 11.1602 40.328 12.2695C39.9764 13.3711 39.5037 14.293 38.91 15.0352C38.3162 15.7773 37.6287 16.3359 36.8475 16.7109C36.0741 17.0859 35.2655 17.2734 34.4217 17.2734C33.5545 17.2734 32.7264 17.0898 31.9373 16.7227C31.1561 16.3555 30.4725 15.8203 29.8866 15.1172C29.3084 14.4141 28.8436 13.5391 28.492 12.4922C28.1405 11.4453 27.9647 10.25 27.9647 8.90625C27.9647 7.45312 28.1405 6.17188 28.492 5.0625C28.8436 3.94531 29.3162 3.01172 29.91 2.26172C30.5037 1.50391 31.1912 0.9375 31.9725 0.5625C32.7537 0.1875 33.5702 0 34.4217 0ZM34.4217 15.8438C34.867 15.8438 35.2928 15.7266 35.6991 15.4922C36.1131 15.2578 36.4803 14.8672 36.8006 14.3203C37.1209 13.7656 37.3748 13.0273 37.5623 12.1055C37.7577 11.1836 37.8553 10.0273 37.8553 8.63672C37.8553 7.26172 37.7577 6.11328 37.5623 5.19141C37.3748 4.26172 37.1209 3.51953 36.8006 2.96484C36.4803 2.41016 36.1131 2.01953 35.6991 1.79297C35.2928 1.55859 34.867 1.44141 34.4217 1.44141C33.9764 1.44141 33.5428 1.55859 33.1209 1.79297C32.7069 2.01953 32.3397 2.41406 32.0194 2.97656C31.6991 3.53906 31.4412 4.28125 31.2459 5.20312C31.0584 6.11719 30.9647 7.26953 30.9647 8.66016C30.9647 10.0352 31.0584 11.1836 31.2459 12.1055C31.4412 13.0273 31.6991 13.7656 32.0194 14.3203C32.3397 14.8672 32.7069 15.2578 33.1209 15.4922C33.5428 15.7266 33.9764 15.8438 34.4217 15.8438ZM57.4645 2.20312L57.3005 1.26562C57.6364 1.03906 58.0114 0.839844 58.4255 0.667969C58.777 0.527344 59.1716 0.394531 59.6091 0.269531C60.0544 0.136719 60.5153 0.0703125 60.9919 0.0703125C61.2809 0.0703125 61.5348 0.0898438 61.7536 0.128906C61.9802 0.167969 62.1833 0.203125 62.363 0.234375C62.5427 0.296875 62.7106 0.355469 62.8669 0.410156V15.3867C63.1403 15.4492 63.3825 15.5195 63.5934 15.5977C63.8122 15.6758 63.9997 15.7578 64.1559 15.8438C64.3356 15.9219 64.5036 16.0078 64.6598 16.1016L64.4958 17.0391H58.1794L58.0153 16.1016C58.1716 16.0078 58.3552 15.9219 58.5661 15.8438C58.7458 15.7656 58.9528 15.6875 59.1872 15.6094C59.4294 15.5234 59.695 15.4492 59.9841 15.3867V2.20312H57.4645ZM80.9878 12.7969C80.9878 12.4141 81.0386 12.0586 81.1402 11.7305C81.2417 11.3945 81.3784 11.0938 81.5503 10.8281C81.73 10.5547 81.9331 10.3047 82.1597 10.0781C82.3862 9.85156 82.6167 9.65234 82.8511 9.48047C83.398 9.06641 84.023 8.73047 84.7261 8.47266V8.35547C84.148 8.09766 83.6441 7.76953 83.2144 7.37109C82.8316 7.03516 82.4839 6.61328 82.1714 6.10547C81.8589 5.58984 81.7027 4.96875 81.7027 4.24219C81.7027 3.66406 81.8159 3.11719 82.0425 2.60156C82.2769 2.08594 82.6167 1.63672 83.062 1.25391C83.5152 0.863281 84.0737 0.558594 84.7378 0.339844C85.4019 0.113281 86.1597 0 87.0112 0C87.8784 0 88.6362 0.105469 89.2847 0.316406C89.9409 0.519531 90.4878 0.792969 90.9253 1.13672C91.3706 1.48047 91.7027 1.87891 91.9214 2.33203C92.148 2.77734 92.2612 3.23828 92.2612 3.71484C92.2612 4.43359 92.0972 5.03516 91.7691 5.51953C91.4409 5.99609 91.0855 6.38672 90.7027 6.69141C90.2417 7.04297 89.7222 7.33203 89.1441 7.55859V7.67578C89.8784 7.94922 90.5347 8.30078 91.1128 8.73047C91.355 8.92578 91.5933 9.14062 91.8277 9.375C92.0698 9.60156 92.2847 9.86328 92.4722 10.1602C92.6675 10.457 92.8198 10.7852 92.9292 11.1445C93.0464 11.5039 93.105 11.8945 93.105 12.3164C93.105 12.9883 92.9644 13.6289 92.6831 14.2383C92.4019 14.8398 91.9956 15.3672 91.4644 15.8203C90.9409 16.2656 90.2925 16.6211 89.5191 16.8867C88.7534 17.1445 87.8823 17.2734 86.9058 17.2734C85.9448 17.2734 85.0933 17.1562 84.3511 16.9219C83.6089 16.6797 82.9878 16.3516 82.4878 15.9375C81.9956 15.5234 81.6206 15.0508 81.3628 14.5195C81.1128 13.9805 80.9878 13.4062 80.9878 12.7969ZM86.812 15.8438C87.8198 15.8438 88.6206 15.5547 89.2144 14.9766C89.8081 14.3984 90.105 13.6797 90.105 12.8203C90.105 12.3438 89.9644 11.9141 89.6831 11.5312C89.4019 11.1406 89.0503 10.7969 88.6284 10.5C88.2066 10.2031 87.7573 9.94141 87.2808 9.71484C86.812 9.48047 86.3862 9.27344 86.0034 9.09375C85.5425 9.30469 85.1245 9.57812 84.7495 9.91406C84.4292 10.2031 84.1402 10.5742 83.8823 11.0273C83.6323 11.4805 83.5073 12.0273 83.5073 12.668C83.5073 13.6133 83.7964 14.3789 84.3745 14.9648C84.9605 15.5508 85.773 15.8438 86.812 15.8438ZM84.4683 3.84375C84.4683 4.22656 84.5698 4.57031 84.773 4.875C84.9839 5.17969 85.2534 5.45703 85.5816 5.70703C85.9097 5.94922 86.273 6.17578 86.6714 6.38672C87.0698 6.58984 87.4605 6.77344 87.8433 6.9375C88.2261 6.74219 88.562 6.5 88.8511 6.21094C89.1089 5.96875 89.3394 5.65625 89.5425 5.27344C89.7534 4.89062 89.8589 4.42969 89.8589 3.89062C89.8589 3.57031 89.7925 3.26172 89.6597 2.96484C89.5269 2.66797 89.3355 2.41016 89.0855 2.19141C88.8355 1.96484 88.5425 1.78516 88.2066 1.65234C87.8706 1.51172 87.5034 1.44141 87.105 1.44141C86.7222 1.44141 86.3706 1.50781 86.0503 1.64062C85.73 1.76563 85.4487 1.94141 85.2066 2.16797C84.9644 2.38672 84.7808 2.64062 84.6558 2.92969C84.5308 3.21875 84.4683 3.52344 84.4683 3.84375Z" fill="#636463"/>
</svg>
