<svg width="50" height="50" viewBox="0 0 50 50" fill="none" xmlns="http://www.w3.org/2000/svg">
<path d="M16.7334 21.9043C16.9469 21.9104 17.1379 22.0538 17.1992 22.2656L19.125 28.9316L21.0508 22.2656C21.1208 22.0236 21.3605 21.8719 21.6094 21.9111C22.4847 22.0491 23.17 22.2368 23.6406 22.3926C23.8758 22.4704 24.0575 22.5404 24.1826 22.5918C24.2452 22.6175 24.2942 22.6391 24.3281 22.6543C24.3449 22.6618 24.3586 22.6684 24.3682 22.6729C24.3725 22.6749 24.3761 22.6764 24.3789 22.6777L24.3848 22.6807H24.3857L24.4854 22.7451C24.5159 22.7704 24.5435 22.7991 24.5674 22.8311L27.9404 27.3506L30.0928 25.8057C30.1115 25.7922 30.1315 25.781 30.1514 25.7705C30.533 25.5132 30.9863 25.3691 31.457 25.3691H33.333C33.5182 25.3674 33.7021 25.4019 33.874 25.4707C34.0479 25.5403 34.2061 25.6442 34.3398 25.7754C34.4736 25.9067 34.5807 26.0635 34.6533 26.2363C34.7259 26.4091 34.7626 26.5948 34.7627 26.7822C34.7627 26.9698 34.7259 27.1562 34.6533 27.3291C34.5807 27.5019 34.4736 27.6587 34.3398 27.79C34.2062 27.9212 34.0478 28.0242 33.874 28.0938C33.7021 28.1626 33.5182 28.1961 33.333 28.1943V28.1953H31.6836L28.8984 31.3662H28.8975C28.7622 31.5197 28.5953 31.6418 28.4082 31.7246C28.2211 31.8074 28.0181 31.8496 27.8135 31.8467C27.609 31.8438 27.4073 31.796 27.2227 31.708C27.0504 31.6259 26.8976 31.5091 26.7715 31.3662L24.667 29.3369V35C24.667 35.276 24.443 35.4998 24.167 35.5H15C14.7239 35.5 14.5 35.2761 14.5 35V22.7949L14.5068 22.7139C14.5373 22.5288 14.6699 22.3737 14.8535 22.3174C15.3068 22.1787 15.9019 22.0283 16.6406 21.9111L16.7334 21.9043ZM16.3623 22.9746C16.0377 23.0369 15.7504 23.1046 15.5 23.1719V34.5H23.667V28.1592C23.667 27.9588 23.7864 27.7777 23.9707 27.6992C24.1553 27.6208 24.3693 27.6605 24.5137 27.7998L27.4746 30.6562C27.4877 30.6689 27.5011 30.6823 27.5127 30.6963C27.551 30.7422 27.5989 30.7797 27.6533 30.8057C27.7078 30.8316 27.7676 30.8458 27.8281 30.8467C27.8886 30.8475 27.9488 30.8349 28.0039 30.8105C28.059 30.7861 28.1079 30.75 28.1475 30.7051L31.0811 27.3652C31.176 27.2572 31.3132 27.1953 31.457 27.1953H33.3408C33.396 27.196 33.4508 27.1864 33.502 27.166C33.5533 27.1454 33.6004 27.1147 33.6396 27.0762C33.6789 27.0376 33.7103 26.9918 33.7314 26.9414C33.7526 26.8911 33.7627 26.8366 33.7627 26.7822C33.7626 26.728 33.7525 26.6742 33.7314 26.624C33.7103 26.5737 33.6788 26.5278 33.6396 26.4893C33.6004 26.4507 33.5533 26.42 33.502 26.3994C33.4508 26.379 33.396 26.3684 33.3408 26.3691H31.457C31.1747 26.3691 30.9009 26.4599 30.6738 26.624C30.6618 26.6327 30.6483 26.639 30.6357 26.6465L28.125 28.4492C27.9037 28.6081 27.5957 28.561 27.4326 28.3428L23.8428 23.5342C23.8304 23.529 23.8172 23.5225 23.8027 23.5166C23.6981 23.4736 23.538 23.412 23.3262 23.3418C22.9803 23.2273 22.4956 23.0921 21.8857 22.9756L19.6055 30.873C19.5437 31.087 19.3477 31.2344 19.125 31.2344C18.9023 31.2344 18.7063 31.087 18.6445 30.873L16.3623 22.9746ZM36.083 21.7178C36.8633 21.7178 37.5 22.3489 37.5 23.1309C37.4998 23.9127 36.8631 24.5439 36.083 24.5439H28.75C27.9699 24.5439 27.3332 23.9127 27.333 23.1309C27.333 22.3489 27.9697 21.7178 28.75 21.7178H36.083ZM28.75 22.7178C28.5183 22.7178 28.333 22.9049 28.333 23.1309C28.3332 23.3567 28.5184 23.5439 28.75 23.5439H36.083C36.3146 23.5439 36.4998 23.3567 36.5 23.1309C36.5 22.9049 36.3147 22.7178 36.083 22.7178H28.75ZM19.125 13.5C20.1079 13.5 21.0505 13.8892 21.7461 14.582C22.4417 15.2749 22.8329 16.2146 22.833 17.1953C22.833 18.1761 22.4418 19.1167 21.7461 19.8096C21.094 20.459 20.2246 20.8415 19.3086 20.8867L19.125 20.8916C18.1422 20.8916 17.1995 20.5023 16.5039 19.8096C15.8082 19.1167 15.417 18.1761 15.417 17.1953C15.4171 16.2146 15.8083 15.2749 16.5039 14.582C17.1995 13.8892 18.1421 13.5 19.125 13.5ZM35.083 14.4131C35.3592 14.4131 35.583 14.6369 35.583 14.9131V19.4785C35.5829 20.2603 34.947 20.8914 34.167 20.8916H30.5C29.7198 20.8916 29.0831 20.2604 29.083 19.4785V18.9717C28.5489 18.7699 28.1671 18.2576 28.167 17.6523V16.7393C28.167 16.1338 28.5486 15.6196 29.083 15.418V14.9131C29.083 14.6371 29.307 14.4133 29.583 14.4131H35.083ZM19.125 14.5C18.4061 14.5 17.7167 14.7843 17.209 15.29C16.7014 15.7956 16.4171 16.4812 16.417 17.1953C16.417 17.9094 16.7015 18.5949 17.209 19.1006C17.7167 19.6063 18.4061 19.8916 19.125 19.8916L19.3926 19.8779C20.0132 19.8166 20.5967 19.5432 21.041 19.1006C21.5485 18.5949 21.833 17.9094 21.833 17.1953C21.8329 16.4812 21.5486 15.7956 21.041 15.29C20.5333 14.7843 19.8439 14.5 19.125 14.5ZM30.083 15.8262C30.083 16.1023 29.8591 16.3262 29.583 16.3262C29.3514 16.3263 29.167 16.5134 29.167 16.7393V17.6523C29.1671 17.8782 29.3515 18.0653 29.583 18.0654C29.8592 18.0654 30.083 18.2893 30.083 18.5654V19.4785C30.0831 19.7044 30.2684 19.8916 30.5 19.8916H34.167C34.3985 19.8914 34.5829 19.7043 34.583 19.4785V15.4131H30.083V15.8262Z" fill="#C40D3C"/>
</svg>
