<svg width="50" height="50" viewBox="0 0 50 50" fill="none" xmlns="http://www.w3.org/2000/svg">
<path d="M34 14.5C34.8284 14.5 35.5 15.1716 35.5 16V34C35.5 34.8284 34.8284 35.5 34 35.5H16C15.1716 35.5 14.5 34.8284 14.5 34V16C14.5 15.1716 15.1716 14.5 16 14.5H34ZM16 15.5C15.7239 15.5 15.5 15.7239 15.5 16V34C15.5 34.2761 15.7239 34.5 16 34.5H34C34.2761 34.5 34.5 34.2761 34.5 34V16C34.5 15.7239 34.2761 15.5 34 15.5H16Z" fill="#1A1919"/>
<path d="M20.5 16.5C22.7091 16.5 24.5 18.2909 24.5 20.5C24.5 22.7091 22.7091 24.5 20.5 24.5C18.2909 24.5 16.5 22.7091 16.5 20.5C16.5 18.2909 18.2909 16.5 20.5 16.5ZM20.5 17.5C18.8431 17.5 17.5 18.8431 17.5 20.5C17.5 22.1569 18.8431 23.5 20.5 23.5C22.1569 23.5 23.5 22.1569 23.5 20.5C23.5 18.8431 22.1569 17.5 20.5 17.5Z" fill="#1A1919"/>
<path d="M29.5 24.5C31.7091 24.5 33.5 26.2909 33.5 28.5C33.5 30.7091 31.7091 32.5 29.5 32.5C27.2909 32.5 25.5 30.7091 25.5 28.5C25.5 26.2909 27.2909 24.5 29.5 24.5ZM29.5 25.5C27.8431 25.5 26.5 26.8431 26.5 28.5C26.5 30.1569 27.8431 31.5 29.5 31.5C31.1569 31.5 32.5 30.1569 32.5 28.5C32.5 26.8431 31.1569 25.5 29.5 25.5Z" fill="#1A1919"/>
<path d="M29.5 17.5C31.1569 17.5 32.5 18.8431 32.5 20.5C32.5 22.1569 31.1569 23.5 29.5 23.5C27.8431 23.5 26.5 22.1569 26.5 20.5C26.5 18.8431 27.8431 17.5 29.5 17.5ZM29.5 18.5C28.3954 18.5 27.5 19.3954 27.5 20.5C27.5 21.6046 28.3954 22.5 29.5 22.5C30.6046 22.5 31.5 21.6046 31.5 20.5C31.5 19.3954 30.6046 18.5 29.5 18.5Z" fill="#1A1919"/>
<path d="M20.5 25.5C22.1569 25.5 23.5 26.8431 23.5 28.5C23.5 30.1569 22.1569 31.5 20.5 31.5C18.8431 31.5 17.5 30.1569 17.5 28.5C17.5 26.8431 18.8431 25.5 20.5 25.5ZM20.5 26.5C19.3954 26.5 18.5 27.3954 18.5 28.5C18.5 29.6046 19.3954 30.5 20.5 30.5C21.6046 30.5 22.5 29.6046 22.5 28.5C22.5 27.3954 21.6046 26.5 20.5 26.5Z" fill="#1A1919"/>
<path d="M18.5 33C18.7761 33 19 33.2239 19 33.5C19 33.7761 18.7761 34 18.5 34C18.2239 34 18 33.7761 18 33.5C18 33.2239 18.2239 33 18.5 33Z" fill="#1A1919"/>
<path d="M22.5 33C22.7761 33 23 33.2239 23 33.5C23 33.7761 22.7761 34 22.5 34C22.2239 34 22 33.7761 22 33.5C22 33.2239 22.2239 33 22.5 33Z" fill="#1A1919"/>
<path d="M26.5 33C26.7761 33 27 33.2239 27 33.5C27 33.7761 26.7761 34 26.5 34C26.2239 34 26 33.7761 26 33.5C26 33.2239 26.2239 33 26.5 33Z" fill="#1A1919"/>
<path d="M30.5 33C30.7761 33 31 33.2239 31 33.5C31 33.7761 30.7761 34 30.5 34C30.2239 34 30 33.7761 30 33.5C30 33.2239 30.2239 33 30.5 33Z" fill="#1A1919"/>
</svg>
