<svg width="50" height="50" viewBox="0 0 50 50" fill="none" xmlns="http://www.w3.org/2000/svg">
<path d="M25 9.5C29.0848 9.50008 32.4824 12.7155 32.4824 16.7861C32.4823 19.6438 30.797 22.0896 28.3896 23.2822C27.5173 23.7144 26.9481 24.2416 26.6797 24.7461L41.4775 35.1348C43.3874 36.4756 42.4534 39.4999 40.1006 39.5H9.89941C7.54647 39.5 6.61243 36.4757 8.52246 35.1348L23.582 24.5615C23.975 22.5768 25.7092 21.2618 27.0576 20.5938C28.5191 19.8697 29.4823 18.4212 29.4824 16.7861C29.4824 14.4662 27.5233 12.5001 25 12.5C22.4766 12.5 20.5176 14.4662 20.5176 16.7861C20.5173 17.6143 19.8457 18.286 19.0176 18.2861C18.1893 18.2861 17.5178 17.6144 17.5176 16.7861C17.5176 12.7155 20.9152 9.5 25 9.5ZM11.7998 36.5H38.2002L25 27.2324L11.7998 36.5Z" fill="#C40D3C"/>
</svg>
