<svg width="50" height="50" viewBox="0 0 50 50" fill="none" xmlns="http://www.w3.org/2000/svg">
<path d="M15.2858 12C12.6034 12 10.4287 14.1307 10.4287 16.7587V19.138C13.111 19.138 15.2858 21.2687 15.2858 23.8967V26.276H34.7142V23.8967C34.7142 21.2687 36.889 19.138 39.5713 19.138V16.7587C39.5713 14.1307 37.3966 12 34.7142 12H15.2858ZM10.4287 21.5174C9.0869 21.5174 8.00012 22.5821 8.00012 23.8967V31.0347V34.6037V35.7934C7.99785 35.951 8.02757 36.1075 8.08757 36.2538C8.14758 36.4001 8.23666 36.5333 8.34964 36.6456C8.46262 36.7578 8.59725 36.847 8.7457 36.9078C8.89416 36.9687 9.05348 37 9.2144 37C9.37532 37 9.53464 36.9687 9.68309 36.9078C9.83155 36.847 9.96618 36.7578 10.0792 36.6456C10.1921 36.5333 10.2812 36.4001 10.3412 36.2538C10.4012 36.1075 10.431 35.951 10.4287 35.7934V34.6037H39.5713V35.7934C39.569 35.951 39.5988 36.1075 39.6588 36.2538C39.7188 36.4001 39.8079 36.5333 39.9208 36.6456C40.0338 36.7578 40.1685 36.847 40.3169 36.9078C40.4654 36.9687 40.6247 37 40.7856 37C40.9465 37 41.1058 36.9687 41.2543 36.9078C41.4027 36.847 41.5374 36.7578 41.6504 36.6456C41.7633 36.5333 41.8524 36.4001 41.9124 36.2538C41.9724 36.1075 42.0022 35.951 41.9999 35.7934V31.0347V23.8967C41.9999 22.5821 40.9131 21.5174 39.5713 21.5174C38.2295 21.5174 37.1428 22.5821 37.1428 23.8967V28.6554H12.8572V23.8967C12.8572 22.5821 11.7705 21.5174 10.4287 21.5174Z" fill="#C40D3C"/>
</svg>
