<svg width="50" height="50" viewBox="0 0 50 50" fill="none" xmlns="http://www.w3.org/2000/svg">
<path d="M42.0625 14.4566C41.7716 14.2502 41.4325 14.1084 41.0718 14.0423C40.7111 13.9762 40.3386 13.9877 39.9835 14.0758L39.4615 14.205C36.6415 14.9021 31.3915 16.2001 25 16.2001C18.6085 16.2001 13.3585 14.9021 10.5385 14.205L10.0165 14.0758C9.66128 13.9892 9.28911 13.9786 8.92871 14.0448C8.56831 14.1109 8.22931 14.2521 7.93784 14.4573C7.64637 14.6626 7.41023 14.9265 7.24762 15.2287C7.08502 15.5308 7.0003 15.8632 7 16.2001V33.8C7 34.3835 7.25286 34.9431 7.70294 35.3556C8.15303 35.7682 8.76348 36 9.4 36C9.6117 35.9999 9.82249 35.9745 10.027 35.9244L10.504 35.8061C13.3195 35.1049 18.5755 33.8 25 33.8C31.4245 33.8 36.6805 35.1049 39.5035 35.8061L39.9805 35.9244C40.3359 36.0114 40.7084 36.0224 41.0692 35.9565C41.43 35.8905 41.7694 35.7495 42.0612 35.5442C42.3531 35.3388 42.5895 35.0748 42.7523 34.7723C42.9151 34.4699 42.9998 34.1372 43 33.8V16.2001C43.001 15.8629 42.9169 15.5301 42.7542 15.2276C42.5916 14.9252 42.3549 14.6613 42.0625 14.4566ZM36.4 20.6001C36.756 20.6001 37.104 20.6969 37.4 20.8782C37.696 21.0595 37.9267 21.3172 38.063 21.6187C38.1992 21.9202 38.2349 22.2519 38.1654 22.572C38.096 22.892 37.9245 23.186 37.6728 23.4168C37.421 23.6476 37.1003 23.8047 36.7512 23.8684C36.402 23.932 36.0401 23.8994 35.7112 23.7745C35.3823 23.6496 35.1011 23.4381 34.9033 23.1668C34.7056 22.8954 34.6 22.5764 34.6 22.2501C34.6 21.8125 34.7896 21.3928 35.1272 21.0834C35.4648 20.7739 35.9226 20.6001 36.4 20.6001ZM25 31.6C18.25 31.6 12.592 33.0066 9.8695 33.6818L9.4 33.8V28.3963L16.351 22.0232C16.4624 21.9209 16.5948 21.8398 16.7405 21.7844C16.8861 21.7291 17.0423 21.7006 17.2 21.7006C17.3577 21.7006 17.5138 21.7291 17.6595 21.7844C17.8052 21.8398 17.9376 21.9209 18.049 22.0232L28.642 31.7375C27.4735 31.6481 26.2555 31.6 25 31.6ZM40.1305 33.6818C37.6152 33.0328 35.0609 32.5186 32.4805 32.1418L27.1915 27.2935L29.35 25.3218C29.575 25.1157 29.8801 24.9999 30.1982 24.9999C30.5164 24.9999 30.8215 25.1157 31.0465 25.3218L40.18 33.6928L40.1305 33.6818Z" fill="#C40D3C"/>
</svg>
