<svg width="50" height="50" viewBox="0 0 50 50" fill="none" xmlns="http://www.w3.org/2000/svg">
<path d="M38 38H12V12H38V38ZM16.5879 25.0156C16.1737 25.0156 15.8379 25.3514 15.8379 25.7656V33.4131C15.8381 33.8271 16.1738 34.1631 16.5879 34.1631H24.2354C24.6492 34.1629 24.9851 33.827 24.9854 33.4131C24.9854 32.999 24.6494 32.6633 24.2354 32.6631H18.3965L22.9297 28.1299C23.2224 27.837 23.2223 27.3622 22.9297 27.0693C22.6368 26.7765 22.162 26.7765 21.8691 27.0693L17.3379 31.6006V25.7656C17.3379 25.3514 17.0021 25.0156 16.5879 25.0156ZM25.7646 15.8369C25.3508 15.8371 25.0149 16.173 25.0146 16.5869C25.0146 17.001 25.3506 17.3367 25.7646 17.3369H31.6016L27.0693 21.8691C26.7765 22.162 26.7765 22.6368 27.0693 22.9297C27.3622 23.2223 27.837 23.2224 28.1299 22.9297L32.6621 18.3975V24.2344C32.6621 24.6486 32.9979 24.9844 33.4121 24.9844C33.8263 24.9844 34.1621 24.6486 34.1621 24.2344V16.5869C34.162 16.3881 34.0829 16.1972 33.9424 16.0566C33.8017 15.9161 33.6109 15.8369 33.4121 15.8369H25.7646Z" fill="#C40D3C"/>
</svg>
