<svg width="50" height="50" viewBox="0 0 50 50" fill="none" xmlns="http://www.w3.org/2000/svg">
<path d="M25.009 11C23.113 11 21.5513 12.6013 21.5513 14.5454C21.5513 15.1025 21.6929 15.6231 21.9204 16.0943C15.7712 17.5349 11.178 23.1674 11.178 29.909V32.2726H38.84V29.909C38.84 23.1674 34.2468 17.5349 28.0976 16.0943C28.3251 15.6231 28.4668 15.1025 28.4668 14.5454C28.4668 12.6013 26.905 11 25.009 11ZM25.009 13.3636C25.6592 13.3636 26.1616 13.8787 26.1616 14.5454C26.1616 15.2121 25.6592 15.7273 25.009 15.7273C24.3588 15.7273 23.8564 15.2121 23.8564 14.5454C23.8564 13.8787 24.3588 13.3636 25.009 13.3636ZM11.169 34.6363C11.0163 34.634 10.8646 34.663 10.7229 34.7214C10.5812 34.7798 10.4522 34.8665 10.3434 34.9764C10.2346 35.0864 10.1483 35.2174 10.0893 35.3619C10.0304 35.5064 10 35.6615 10 35.8181C10 35.9747 10.0304 36.1297 10.0893 36.2742C10.1483 36.4187 10.2346 36.5497 10.3434 36.6597C10.4522 36.7697 10.5812 36.8564 10.7229 36.9148C10.8646 36.9732 11.0163 37.0021 11.169 36.9999H38.831C38.9837 37.0021 39.1354 36.9732 39.2771 36.9148C39.4188 36.8564 39.5478 36.7697 39.6566 36.6597C39.7654 36.5497 39.8517 36.4187 39.9107 36.2742C39.9696 36.1297 40 35.9747 40 35.8181C40 35.6615 39.9696 35.5064 39.9107 35.3619C39.8517 35.2174 39.7654 35.0864 39.6566 34.9764C39.5478 34.8665 39.4188 34.7798 39.2771 34.7214C39.1354 34.663 38.9837 34.634 38.831 34.6363H11.169Z" fill="#C40D3C"/>
</svg>
