<svg width="50" height="50" viewBox="0 0 50 50" fill="none" xmlns="http://www.w3.org/2000/svg">
<path d="M10.6154 11C9.17038 11 8 12.1391 8 13.5455V33.9091C8 35.3155 9.17038 36.4545 10.6154 36.4545H21.0769C22.5219 36.4545 23.6923 37.5936 23.6923 39V13.5455C23.6923 12.1391 22.5219 11 21.0769 11H10.6154ZM28.9231 11C27.4781 11 26.3077 12.1391 26.3077 13.5455V39C26.3077 37.5936 27.4781 36.4545 28.9231 36.4545H39.3846C40.8296 36.4545 42 35.3155 42 33.9091V13.5455C42 12.1391 40.8296 11 39.3846 11H28.9231ZM15.8462 13.5455C17.5788 13.5455 19.7692 15.8369 19.7692 18.5096C19.7692 21.946 16.6303 21.9182 16.6303 23.3793C16.6303 24.6316 17.1538 32.2253 17.1538 32.6364C17.1538 33.3389 16.568 33.9091 15.8462 33.9091C15.1243 33.9091 14.5385 33.3389 14.5385 32.6364C14.5385 32.2253 15.062 24.6316 15.062 23.3793C15.062 21.9182 11.9231 21.946 11.9231 18.5096C11.9231 15.8369 14.1135 13.5455 15.8462 13.5455ZM30.2308 17.3636H38.0769C38.7988 17.3636 39.3846 17.9338 39.3846 18.6364C39.3846 19.3389 38.7988 19.9091 38.0769 19.9091H30.2308C29.5089 19.9091 28.9231 19.3389 28.9231 18.6364C28.9231 17.9338 29.5089 17.3636 30.2308 17.3636ZM30.2308 22.4545H35.4615C36.1834 22.4545 36.7692 23.0247 36.7692 23.7273C36.7692 24.4298 36.1834 25 35.4615 25H30.2308C29.5089 25 28.9231 24.4298 28.9231 23.7273C28.9231 23.0247 29.5089 22.4545 30.2308 22.4545ZM30.2308 27.5455H38.0769C38.7988 27.5455 39.3846 28.1156 39.3846 28.8182C39.3846 29.5207 38.7988 30.0909 38.0769 30.0909H30.2308C29.5089 30.0909 28.9231 29.5207 28.9231 28.8182C28.9231 28.1156 29.5089 27.5455 30.2308 27.5455Z" fill="#C40D3C"/>
</svg>
