<svg width="50" height="50" viewBox="0 0 50 50" fill="none" xmlns="http://www.w3.org/2000/svg">
<path d="M27 16.5C27.2761 16.5 27.5 16.7239 27.5 17C27.5 17.2761 27.2761 17.5 27 17.5H25C19.7533 17.5 15.5 21.7533 15.5 27V31C15.5 31.8284 16.1716 32.5 17 32.5H27C31.1421 32.5 34.5 29.1421 34.5 25C34.5 23.6808 34.1595 22.4421 33.5625 21.3662C33.4288 21.1248 33.5165 20.8204 33.7578 20.6865C33.9992 20.5529 34.3036 20.6405 34.4375 20.8818C35.1146 22.1023 35.5 23.5069 35.5 25C35.5 29.6944 31.6944 33.5 27 33.5H17C15.6193 33.5 14.5 32.3807 14.5 31V27C14.5 21.201 19.201 16.5 25 16.5H27ZM32.6465 16.6465C32.8417 16.4512 33.1583 16.4512 33.3535 16.6465C33.5488 16.8417 33.5488 17.1583 33.3535 17.3535L30.6641 20.042C31.1146 20.7713 31.1017 21.718 30.585 22.4414L29.1914 24.3926C28.8672 24.8465 28.6433 25.377 28.4033 25.9697C28.1707 26.5441 27.9201 27.1852 27.5469 27.7578C26.8638 28.8056 25.6793 29.5 24.333 29.5C22.2162 29.4998 20.5002 27.7838 20.5 25.667C20.5 24.3207 21.1944 23.1362 22.2422 22.4531C22.8148 22.0799 23.4559 21.8293 24.0303 21.5967C24.623 21.3567 25.1535 21.1328 25.6074 20.8086L27.5586 19.415C28.2817 18.8986 29.2279 18.8852 29.957 19.335L32.6465 16.6465ZM29.6465 20.3535C29.2423 19.9493 28.6048 19.8963 28.1396 20.2285L26.1885 21.623C25.6249 22.0255 24.9875 22.2887 24.4053 22.5244C23.8048 22.7676 23.263 22.9814 22.7881 23.291C22.0115 23.7974 21.5 24.6729 21.5 25.667C21.5002 27.2315 22.7685 28.4998 24.333 28.5C25.3271 28.5 26.2026 27.9885 26.709 27.2119C27.0186 26.737 27.2324 26.1952 27.4756 25.5947C27.7113 25.0125 27.9745 24.3751 28.377 23.8115L29.7715 21.8604C30.1037 21.3952 30.0507 20.7577 29.6465 20.3535Z" fill="#C40D3C"/>
</svg>
