<svg width="50" height="50" viewBox="0 0 50 50" fill="none" xmlns="http://www.w3.org/2000/svg">
<path d="M25.0713 15.501C26.3224 15.4924 27.563 15.73 28.7217 16.2021C29.8825 16.6752 30.9384 17.3739 31.8281 18.2568C32.7179 19.1398 33.4243 20.1905 33.9062 21.3477C34.3882 22.5049 34.6367 23.7464 34.6367 25V30.25C34.6367 30.7804 34.4258 31.289 34.0508 31.6641C33.6758 32.0391 33.1671 32.2499 32.6367 32.25H31.1367C30.6063 32.25 30.0977 32.0391 29.7227 31.6641C29.3476 31.289 29.1367 30.7804 29.1367 30.25V26.5C29.1367 25.9696 29.3476 25.461 29.7227 25.0859C30.0977 24.7109 30.6063 24.5 31.1367 24.5H33.6201C33.5641 23.5494 33.3504 22.6137 32.9834 21.7324C32.5522 20.697 31.9202 19.7569 31.124 18.9668C30.328 18.1768 29.3833 17.5522 28.3447 17.1289C27.3061 16.7056 26.1938 16.4915 25.0723 16.5H25.0645C23.9428 16.4915 22.8307 16.7056 21.792 17.1289C20.7534 17.5522 19.8088 18.1768 19.0127 18.9668C18.2166 19.7569 17.5845 20.697 17.1533 21.7324C16.7863 22.6137 16.5726 23.5494 16.5166 24.5H19C19.5304 24.5 20.039 24.7109 20.4141 25.0859C20.7891 25.461 21 25.9696 21 26.5V30.25C21 30.7804 20.7891 31.289 20.4141 31.6641C20.039 32.0391 19.5304 32.25 19 32.25H17.5C16.9696 32.25 16.461 32.0391 16.0859 31.6641C15.7109 31.289 15.5 30.7804 15.5 30.25V25C15.5 23.7464 15.7485 22.5049 16.2305 21.3477C16.7124 20.1905 17.4179 19.1398 18.3076 18.2568C19.1974 17.3738 20.2532 16.6753 21.4141 16.2021C22.5726 15.73 23.8134 15.4925 25.0645 15.501V15.5C25.0658 15.5 25.0671 15.501 25.0684 15.501C25.0696 15.501 25.071 15.5 25.0723 15.5L25.0713 15.501ZM16.5 30.25C16.5 30.5152 16.6054 30.7695 16.793 30.957C16.9805 31.1446 17.2348 31.25 17.5 31.25H19C19.2652 31.25 19.5195 31.1446 19.707 30.957C19.8946 30.7695 20 30.5152 20 30.25V26.5C20 26.2348 19.8946 25.9805 19.707 25.793C19.5195 25.6054 19.2652 25.5 19 25.5H16.5V30.25ZM31.1367 25.5C30.8716 25.5 30.6172 25.6055 30.4297 25.793C30.2422 25.9805 30.1367 26.2348 30.1367 26.5V30.25C30.1367 30.5152 30.2422 30.7695 30.4297 30.957C30.6172 31.1445 30.8716 31.25 31.1367 31.25H32.6367C32.9019 31.2499 33.1563 31.1445 33.3438 30.957C33.5312 30.7695 33.6367 30.5152 33.6367 30.25V25.5H31.1367Z" fill="#C40D3C"/>
<path d="M34.1367 29.75C34.4128 29.7501 34.6367 29.9739 34.6367 30.25V32.5C34.6367 33.4282 34.2676 34.3182 33.6113 34.9746C32.955 35.6309 32.0649 35.9999 31.1367 36H25.75C25.4739 36 25.25 35.7761 25.25 35.5C25.25 35.2239 25.4739 35 25.75 35H31.1367C31.7997 34.9999 32.4355 34.7364 32.9043 34.2676C33.3731 33.7987 33.6367 33.163 33.6367 32.5V30.25C33.6367 29.9739 33.8606 29.75 34.1367 29.75Z" fill="#C40D3C"/>
</svg>
