<svg width="50" height="50" viewBox="0 0 50 50" fill="none" xmlns="http://www.w3.org/2000/svg">
<path fill-rule="evenodd" clip-rule="evenodd" d="M25.7041 34.9458C23.8395 34.9458 22.973 34.6724 21.4668 33.5788C20.5141 34.8091 17.4971 35.7705 17.3656 34.1256C17.3656 32.8908 17.0934 31.8474 16.7849 30.7083C16.4174 29.3049 16 27.742 16 25.4774C16 20.0689 20.4188 16 25.6542 16C30.8942 16 34.9999 20.2694 34.9999 25.5276C35.0175 30.7044 30.8585 34.9182 25.7041 34.9458ZM25.7813 20.6749C23.2316 20.5428 21.2445 22.3153 20.8044 25.0947C20.4415 27.3957 21.0857 30.1979 21.6347 30.3438C21.8978 30.4075 22.5602 29.8699 22.973 29.4552C23.6557 29.9289 24.4506 30.2134 25.2777 30.28C27.9195 30.4076 30.1769 28.3876 30.3543 25.7372C30.4576 23.0811 28.4235 20.8315 25.7812 20.6795L25.7813 20.6749Z" fill="#1A1919"/>
</svg>
