<svg width="50" height="50" viewBox="0 0 50 50" fill="none" xmlns="http://www.w3.org/2000/svg">
<path d="M28.7344 14.5C30.4583 14.5 32.1121 15.1843 33.3311 16.4033C34.55 17.6223 35.2344 19.2761 35.2344 21C35.2344 22.7239 34.55 24.3777 33.3311 25.5967C32.1121 26.8157 30.4583 27.5 28.7344 27.5C27.0105 27.5 25.3567 26.8157 24.1377 25.5967C22.9187 24.3777 22.2344 22.7239 22.2344 21C22.2344 19.2761 22.9187 17.6223 24.1377 16.4033C25.3567 15.1843 27.0105 14.5 28.7344 14.5ZM28.7344 15.5C27.2757 15.5 25.8772 16.0799 24.8457 17.1113C23.8143 18.1428 23.2344 19.5413 23.2344 21C23.2344 22.4587 23.8143 23.8572 24.8457 24.8887C25.8772 25.9201 27.2757 26.5 28.7344 26.5C30.1931 26.5 31.5916 25.9201 32.623 24.8887C33.6545 23.8572 34.2344 22.4587 34.2344 21C34.2344 19.5413 33.6545 18.1428 32.623 17.1113C31.5916 16.0799 30.1931 15.5 28.7344 15.5Z" fill="#C40D3C"/>
<path d="M22.3418 20.6904C22.4737 20.5234 22.6974 20.4576 22.8984 20.5273C23.0995 20.5972 23.2343 20.7872 23.2344 21C23.2344 22.4586 23.8144 23.8572 24.8457 24.8887C25.8771 25.9201 27.2757 26.5 28.7344 26.5C28.9472 26.5 29.1371 26.6349 29.207 26.8359C29.2768 27.0371 29.211 27.2606 29.0439 27.3926L19.5576 34.8809C19.5516 34.8861 19.5445 34.8927 19.5361 34.8994C19.5191 34.9131 19.4965 34.9298 19.4697 34.9482C19.4163 34.9852 19.343 35.0304 19.25 35.0732C19.0625 35.1596 18.7977 35.237 18.4629 35.2334C17.7848 35.226 16.9172 34.8893 15.8809 33.8535C14.8445 32.8176 14.5071 31.9498 14.5 31.2715C14.4966 30.9366 14.5747 30.6719 14.6611 30.4844C14.704 30.3914 14.7492 30.318 14.7861 30.2646C14.8046 30.2379 14.8213 30.2152 14.835 30.1982C14.8416 30.19 14.8474 30.1827 14.8525 30.1768L14.8535 30.1758L22.3418 20.6904ZM15.627 30.8096C15.6195 30.8191 15.6107 30.828 15.6025 30.8369H15.6035L15.6055 30.8359C15.6062 30.8351 15.6068 30.8337 15.6074 30.833C15.6086 30.8317 15.6095 30.83 15.6104 30.8291C15.6117 30.8276 15.6129 30.8267 15.6133 30.8262C15.6126 30.827 15.6109 30.8294 15.6084 30.833C15.6006 30.8442 15.5856 30.8681 15.5693 30.9033C15.5375 30.9724 15.4983 31.0909 15.5 31.2607C15.5035 31.5931 15.6667 32.2257 16.5879 33.1465C17.5089 34.067 18.1412 34.2307 18.4736 34.2344C18.6438 34.2362 18.763 34.1969 18.832 34.165C18.8671 34.1489 18.8902 34.1337 18.9014 34.126C18.9089 34.1196 18.9171 34.1135 18.9248 34.1074L27.4551 27.3721C26.2078 27.1216 25.0506 26.5096 24.1377 25.5967C23.2246 24.6835 22.6116 23.526 22.3613 22.2783L15.627 30.8096Z" fill="#C40D3C"/>
<path d="M26.2471 14.9951C27.4346 14.5032 28.7412 14.3743 30.002 14.625C31.2628 14.8758 32.421 15.4953 33.3301 16.4043C34.239 17.3132 34.8585 18.4708 35.1094 19.7314C35.3601 20.9923 35.2312 22.2997 34.7393 23.4873C34.2473 24.6748 33.4144 25.6901 32.3457 26.4043C31.3262 27.0855 30.1354 27.4626 28.9121 27.4961L19.5576 34.8809C19.5516 34.886 19.5444 34.8927 19.5361 34.8994C19.5191 34.9131 19.4964 34.9298 19.4697 34.9482C19.4163 34.9852 19.3429 35.0304 19.25 35.0732C19.0625 35.1596 18.7976 35.237 18.4629 35.2334C17.7849 35.226 16.9172 34.8893 15.8809 33.8535C14.8444 32.8176 14.5072 31.9498 14.5 31.2715C14.4965 30.9366 14.5747 30.6719 14.6611 30.4844C14.704 30.3915 14.7492 30.3181 14.7861 30.2646C14.8046 30.238 14.8213 30.2152 14.835 30.1982C14.8415 30.1901 14.8474 30.1827 14.8525 30.1768L14.8535 30.1758L22.2373 20.8213C22.2709 19.5983 22.6491 18.408 23.3301 17.3887C24.0443 16.3199 25.0595 15.4871 26.2471 14.9951ZM15.627 30.8096C15.6195 30.819 15.6107 30.828 15.6025 30.8369H15.6035L15.6055 30.8359C15.6061 30.8352 15.6068 30.8338 15.6074 30.833C15.6085 30.8318 15.6096 30.8301 15.6104 30.8291C15.6116 30.8277 15.6128 30.8267 15.6133 30.8262C15.6125 30.8272 15.6108 30.8296 15.6084 30.833C15.6006 30.8443 15.5855 30.8683 15.5693 30.9033C15.5375 30.9725 15.4983 31.091 15.5 31.2607C15.5035 31.5932 15.6668 32.2258 16.5879 33.1465C17.5089 34.0669 18.1412 34.2307 18.4736 34.2344C18.6437 34.2362 18.763 34.1968 18.832 34.165L18.9014 34.126C18.9089 34.1196 18.9171 34.1135 18.9248 34.1074L27.4551 27.3721C26.2078 27.1216 25.0506 26.5095 24.1377 25.5967C23.2246 24.6835 22.6116 23.526 22.3613 22.2783L15.627 30.8096ZM29.8076 15.6055C28.7408 15.3933 27.6348 15.5027 26.6299 15.9189C25.625 16.3352 24.7654 17.0399 24.1611 17.9443C23.5569 18.8488 23.2344 19.9123 23.2344 21C23.2344 22.4586 23.8143 23.8573 24.8457 24.8887C25.8771 25.92 27.2758 26.5 28.7344 26.5C29.8221 26.5 30.8856 26.1775 31.79 25.5732C32.6944 24.9689 33.3991 24.1094 33.8154 23.1045C34.2316 22.0996 34.3411 20.9935 34.1289 19.9268C33.9167 18.86 33.3921 17.8805 32.623 17.1113C31.8539 16.3422 30.8744 15.8177 29.8076 15.6055Z" fill="#C40D3C"/>
<path d="M21.3809 27.6465C21.5761 27.4512 21.8926 27.4512 22.0879 27.6465C22.2831 27.8417 22.2831 28.1583 22.0879 28.3535L21.0879 29.3535C20.8926 29.5488 20.5761 29.5487 20.3809 29.3535C20.1856 29.1583 20.1856 28.8417 20.3809 28.6465L21.3809 27.6465Z" fill="#C40D3C"/>
</svg>
