<svg width="50" height="50" viewBox="0 0 50 50" fill="none" xmlns="http://www.w3.org/2000/svg">
<path d="M20 30.5C20.2761 30.5 20.5 30.7239 20.5 31C20.5 31.2761 20.2761 31.5 20 31.5H16C15.7239 31.5 15.5 31.2761 15.5 31C15.5 30.7239 15.7239 30.5 16 30.5H20ZM20 26.5C20.2761 26.5 20.5 26.7239 20.5 27C20.5 27.2761 20.2761 27.5 20 27.5H16C15.7239 27.5 15.5 27.2761 15.5 27C15.5 26.7239 15.7239 26.5 16 26.5H20ZM20 22.5C20.2761 22.5 20.5 22.7239 20.5 23C20.5 23.2761 20.2761 23.5 20 23.5H16C15.7239 23.5 15.5 23.2761 15.5 23C15.5 22.7239 15.7239 22.5 16 22.5H20ZM20 18.5C20.2761 18.5 20.5 18.7239 20.5 19C20.5 19.2761 20.2761 19.5 20 19.5H16C15.7239 19.5 15.5 19.2761 15.5 19C15.5 18.7239 15.7239 18.5 16 18.5H20Z" fill="#C40D3C"/>
<path d="M32 14.5C33.3807 14.5 34.5 15.6193 34.5 17V33C34.5 34.3807 33.3807 35.5 32 35.5H20C18.6193 35.5 17.5 34.3807 17.5 33V17C17.5 15.6193 18.6193 14.5 20 14.5H32ZM20 15.5C19.1716 15.5 18.5 16.1716 18.5 17V33C18.5 33.8284 19.1716 34.5 20 34.5H32C32.8284 34.5 33.5 33.8284 33.5 33V17C33.5 16.1716 32.8284 15.5 32 15.5H20Z" fill="#C40D3C"/>
<path d="M30 14.5C30.2761 14.5 30.5 14.7239 30.5 15V35C30.5 35.2761 30.2761 35.5 30 35.5C29.7239 35.5 29.5 35.2761 29.5 35V15C29.5 14.7239 29.7239 14.5 30 14.5Z" fill="#C40D3C"/>
</svg>
