<svg width="50" height="50" viewBox="0 0 50 50" fill="none" xmlns="http://www.w3.org/2000/svg">
<path d="M27.5 13.5C27.8757 13.5 28.2364 13.573 28.5771 13.7207L28.8223 13.8418C29.0566 13.9728 29.2653 14.1376 29.4463 14.3359L31.1211 16.125H34.8477C35.5832 16.125 36.225 16.3727 36.7363 16.876C37.2482 17.3798 37.5018 18.0153 37.5 18.7461V32.8799C37.5 33.6105 37.2461 34.2461 36.7354 34.75C36.2246 35.2538 35.5828 35.5009 34.8467 35.5H15.1543C14.4186 35.4999 13.7773 35.2527 13.2666 34.75C12.7554 34.2468 12.5011 33.6115 12.5 32.8799V18.7461C12.5 18.0146 12.7544 17.3791 13.2666 16.876C13.7776 16.3741 14.4181 16.1261 15.1523 16.125H18.8799L20.5488 14.3389C20.7915 14.0725 21.0849 13.8663 21.4219 13.7197H21.4238C21.7645 13.5731 22.1246 13.5 22.5 13.5H27.5ZM22.5 14.5C22.2568 14.5 22.0315 14.5464 21.8193 14.6377L21.8184 14.6367C21.6051 14.7298 21.4307 14.8561 21.2881 15.0127L21.2842 15.0176L19.4629 16.9668C19.3684 17.0678 19.236 17.1249 19.0977 17.125H15.1543L14.9746 17.1328C14.5685 17.1676 14.2407 17.3217 13.9678 17.5898C13.6571 17.8951 13.5 18.2685 13.5 18.7461V32.8779L13.5078 33.0527C13.5425 33.4498 13.6965 33.77 13.9678 34.0371C14.2782 34.3427 14.6619 34.4999 15.1543 34.5H34.8477C35.3395 34.5006 35.7229 34.3442 36.0332 34.0381C36.3438 33.7317 36.5 33.3568 36.5 32.8799V18.7441C36.5013 18.2682 36.345 17.8949 36.0342 17.5889C35.7224 17.2821 35.3386 17.125 34.8477 17.125H30.9043C30.766 17.125 30.6336 17.0677 30.5391 16.9668L28.7158 15.0186L28.7109 15.0137C28.5682 14.8563 28.3937 14.7307 28.1807 14.6387H28.1797C27.9677 14.5468 27.7428 14.5 27.5 14.5H22.5ZM25 21.7285C26.158 21.7285 27.1526 22.1162 27.9482 22.8994C28.7442 23.683 29.1416 24.6657 29.1416 25.8125C29.1416 26.9593 28.7442 27.942 27.9482 28.7256C27.1526 29.5088 26.158 29.8965 25 29.8965C23.842 29.8965 22.8474 29.5088 22.0518 28.7256C21.2558 27.942 20.8584 26.9593 20.8584 25.8125C20.8584 24.6657 21.2558 23.683 22.0518 22.8994C22.8474 22.1162 23.842 21.7285 25 21.7285ZM25 22.7285C24.087 22.7285 23.3503 23.0253 22.7539 23.6123C22.158 24.1989 21.8584 24.9205 21.8584 25.8125C21.8584 26.7045 22.158 27.4261 22.7539 28.0127C23.3503 28.5997 24.087 28.8965 25 28.8965C25.913 28.8965 26.6497 28.5997 27.2461 28.0127C27.842 27.4261 28.1416 26.7045 28.1416 25.8125C28.1416 24.9205 27.842 24.1989 27.2461 23.6123C26.6497 23.0253 25.913 22.7285 25 22.7285Z" fill="#C40D3C"/>
<path d="M25 19.5C28.4518 19.5 31.25 22.2982 31.25 25.75C31.25 29.2018 28.4518 32 25 32C21.5482 32 18.75 29.2018 18.75 25.75C18.75 22.2982 21.5482 19.5 25 19.5ZM25 20.5C22.1005 20.5 19.75 22.8505 19.75 25.75C19.75 28.6495 22.1005 31 25 31C27.8995 31 30.25 28.6495 30.25 25.75C30.25 22.8505 27.8995 20.5 25 20.5Z" fill="#C40D3C"/>
</svg>
