<svg width="50" height="50" viewBox="0 0 50 50" fill="none" xmlns="http://www.w3.org/2000/svg">
<path d="M14.7461 15.8467C14.9414 15.6515 15.2579 15.6514 15.4531 15.8467L17.6533 18.0469C17.8482 18.2421 17.8484 18.5588 17.6533 18.7539C17.4582 18.949 17.1415 18.9488 16.9463 18.7539L14.7461 16.5537C14.5509 16.3585 14.5509 16.0419 14.7461 15.8467ZM27.9463 15.8467C28.1416 15.6515 28.4581 15.6514 28.6533 15.8467C28.8483 16.0419 28.8485 16.3585 28.6533 16.5537L26.4531 18.7539C26.2579 18.9489 25.9413 18.9489 25.7461 18.7539C25.5509 18.5587 25.551 18.2422 25.7461 18.0469L27.9463 15.8467ZM21.6992 13.5C21.9753 13.5 22.1992 13.7239 22.1992 14V17.2998C22.1992 17.5759 21.9753 17.7998 21.6992 17.7998C21.4233 17.7996 21.1992 17.5758 21.1992 17.2998V14C21.1992 13.724 21.4233 13.5002 21.6992 13.5Z" fill="#C40D3C"/>
<path d="M21.7002 21.1992C23.7988 21.1992 25.4999 22.9004 25.5 24.999C25.5 27.0977 23.7989 28.7988 21.7002 28.7988C19.6016 28.7987 17.9004 27.0976 17.9004 24.999C17.9005 22.9005 19.6017 21.1993 21.7002 21.1992ZM21.7002 22.1992C20.154 22.1993 18.9005 23.4528 18.9004 24.999C18.9004 26.5454 20.1539 27.7987 21.7002 27.7988C23.2466 27.7988 24.5 26.5454 24.5 24.999C24.4999 23.4527 23.2465 22.1992 21.7002 22.1992Z" fill="#C40D3C"/>
<path d="M18.5869 23.3984C18.8631 23.3984 19.0869 23.6223 19.0869 23.8984C19.0869 24.1746 18.8631 24.3984 18.5869 24.3984H16.2002C15.7493 24.3984 15.3169 24.5777 14.998 24.8965C14.6792 25.2153 14.5 25.6478 14.5 26.0986V30.498C14.5 30.9489 14.6793 31.3814 14.998 31.7002C15.3169 32.019 15.7493 32.1982 16.2002 32.1982H33.7998C34.2507 32.1982 34.6831 32.019 35.002 31.7002C35.3207 31.3814 35.5 30.9489 35.5 30.498V26.0986C35.5 25.6478 35.3208 25.2153 35.002 24.8965C34.6831 24.5777 34.2507 24.3984 33.7998 24.3984H24.8135C24.5373 24.3984 24.3135 24.1746 24.3135 23.8984C24.3135 23.6223 24.5373 23.3984 24.8135 23.3984H33.7998C34.5159 23.3984 35.2026 23.6831 35.709 24.1895C36.2153 24.6958 36.5 25.3825 36.5 26.0986V30.498C36.5 31.2141 36.2153 31.9009 35.709 32.4072C35.2026 32.9136 34.5159 33.1982 33.7998 33.1982H16.2002C15.4841 33.1982 14.7974 32.9136 14.291 32.4072C13.7847 31.9009 13.5 31.2141 13.5 30.498V26.0986C13.5 25.3825 13.7847 24.6958 14.291 24.1895C14.7974 23.6831 15.4841 23.3984 16.2002 23.3984H18.5869ZM31.5996 27.7988C31.8758 27.7988 32.0996 28.0227 32.0996 28.2988C32.0994 28.5748 31.8756 28.7988 31.5996 28.7988H29.4004C29.1244 28.7988 28.9006 28.5748 28.9004 28.2988C28.9004 28.0227 29.1242 27.7988 29.4004 27.7988H31.5996Z" fill="#C40D3C"/>
</svg>
