<svg width="116" height="13" viewBox="0 0 116 13" fill="none" xmlns="http://www.w3.org/2000/svg">
<path d="M0.386 10V0.199999H1.506L5.076 5.548L8.646 0.199999H9.766V10H8.66V2.062L5.09 7.312H5.034L1.464 2.076V10H0.386ZM14.5143 10.154C13.1703 10.154 11.8123 9.398 11.8123 7.9V7.872C11.8123 6.36 13.0723 5.534 14.9063 5.534C15.8443 5.534 16.4743 5.66 17.1323 5.842V5.59C17.1323 4.288 16.3343 3.616 14.9763 3.616C14.1223 3.616 13.4503 3.826 12.7783 4.148L12.4563 3.266C13.2543 2.888 14.0243 2.664 15.0883 2.664C16.1103 2.664 16.8943 2.93 17.4263 3.462C17.9163 3.952 18.1683 4.666 18.1683 5.576V10H17.1323V8.908C16.6283 9.566 15.8023 10.154 14.5143 10.154ZM14.7243 9.3C16.0683 9.3 17.1463 8.488 17.1463 7.34V6.64C16.6003 6.486 15.9143 6.332 15.0183 6.332C13.6603 6.332 12.9043 6.92 12.9043 7.83V7.858C12.9043 8.768 13.7583 9.3 14.7243 9.3ZM23.7277 10.168C21.5997 10.168 20.0177 8.446 20.0177 6.416V6.388C20.0177 4.33 21.5997 2.608 23.7277 2.608C25.0997 2.608 25.9397 3.168 26.6257 3.896L25.9117 4.652C25.3377 4.05 24.7077 3.56 23.7137 3.56C22.2437 3.56 21.1237 4.792 21.1237 6.36V6.388C21.1237 7.956 22.2717 9.202 23.7837 9.202C24.7217 9.202 25.4217 8.74 25.9957 8.124L26.6817 8.768C25.9537 9.594 25.0857 10.168 23.7277 10.168ZM30.3587 10V3.728H27.4607V2.762H34.3487V3.728H31.4367V10H30.3587ZM38.6551 10.168C36.6811 10.168 35.0431 8.642 35.0431 6.402V6.374C35.0431 4.288 36.4991 2.608 38.5151 2.608C40.6571 2.608 41.8891 4.316 41.8891 6.43C41.8891 6.584 41.8891 6.654 41.8751 6.78H36.1351C36.2891 8.348 37.3951 9.23 38.6831 9.23C39.6911 9.23 40.3631 8.824 40.9651 8.208L41.6371 8.81C40.9091 9.636 40.0411 10.168 38.6551 10.168ZM36.1351 5.982H40.7971C40.6851 4.68 39.9431 3.518 38.4871 3.518C37.2131 3.518 36.2891 4.582 36.1351 5.982ZM43.7763 12.24V2.762H44.8543V4.218C45.4563 3.364 46.2823 2.608 47.6263 2.608C49.3623 2.608 51.0843 3.98 51.0843 6.36V6.388C51.0843 8.74 49.3763 10.154 47.6263 10.154C46.2823 10.154 45.4143 9.44 44.8543 8.614V12.24H43.7763ZM47.4303 9.188C48.8303 9.188 49.9783 8.152 49.9783 6.402V6.374C49.9783 4.652 48.8163 3.574 47.4303 3.574C46.0863 3.574 44.8123 4.722 44.8123 6.36V6.388C44.8123 8.068 46.0863 9.188 47.4303 9.188ZM52.7791 6.36V5.226H56.6711V6.36H52.7791ZM62.05 10.168C59.922 10.168 58.34 8.446 58.34 6.416V6.388C58.34 4.33 59.922 2.608 62.05 2.608C63.422 2.608 64.262 3.168 64.948 3.896L64.234 4.652C63.66 4.05 63.03 3.56 62.036 3.56C60.566 3.56 59.446 4.792 59.446 6.36V6.388C59.446 7.956 60.594 9.202 62.106 9.202C63.044 9.202 63.744 8.74 64.318 8.124L65.004 8.768C64.276 9.594 63.408 10.168 62.05 10.168ZM66.786 10V2.762H73.24V10H72.162V3.742H67.864V10H66.786ZM77.8014 10.154C76.4574 10.154 75.0994 9.398 75.0994 7.9V7.872C75.0994 6.36 76.3594 5.534 78.1934 5.534C79.1314 5.534 79.7614 5.66 80.4194 5.842V5.59C80.4194 4.288 79.6214 3.616 78.2634 3.616C77.4094 3.616 76.7374 3.826 76.0654 4.148L75.7434 3.266C76.5414 2.888 77.3114 2.664 78.3754 2.664C79.3974 2.664 80.1814 2.93 80.7134 3.462C81.2034 3.952 81.4554 4.666 81.4554 5.576V10H80.4194V8.908C79.9154 9.566 79.0894 10.154 77.8014 10.154ZM78.0114 9.3C79.3554 9.3 80.4334 8.488 80.4334 7.34V6.64C79.8874 6.486 79.2014 6.332 78.3054 6.332C76.9474 6.332 76.1914 6.92 76.1914 7.83V7.858C76.1914 8.768 77.0454 9.3 78.0114 9.3ZM87.3088 2.706L90.5988 10H89.3948L86.8048 4.036L84.2008 10H83.0388L86.3148 2.706H87.3088ZM92.2978 10V2.762H93.3758V5.254H95.5878C97.3658 5.254 98.4298 6.15 98.4298 7.606V7.634C98.4298 9.048 97.3938 10 95.5458 10H92.2978ZM93.3758 9.076H95.5318C96.7638 9.076 97.3378 8.53 97.3378 7.62V7.606C97.3378 6.752 96.7638 6.15 95.5458 6.164H93.3758V9.076ZM100.2 10V2.762H101.278V5.856H105.604V2.762H106.668V10H105.604V6.836H101.278V10H100.2ZM109.871 10H108.583L110.697 7.214C109.535 6.948 108.849 6.178 108.849 5.058V5.044C108.849 3.658 109.955 2.762 111.677 2.762H115.177V10H114.113V7.312H111.873L109.871 10ZM114.113 3.658H111.691C110.613 3.658 109.927 4.218 109.927 5.044V5.058C109.927 5.898 110.571 6.458 111.691 6.444H114.113V3.658Z" fill="#1A1919"/>
</svg>
