<svg width="60" height="60" viewBox="0 0 60 60" fill="none" xmlns="http://www.w3.org/2000/svg">
<path d="M39.5169 31.1859C39.7847 30.9496 39.9186 30.8315 39.9677 30.6909C40.0108 30.5675 40.0108 30.4325 39.9677 30.3091C39.9186 30.1685 39.7847 30.0504 39.5169 29.8141L30.2246 21.6153C29.7637 21.2085 29.5332 21.0052 29.338 21.0002C29.1684 20.9958 29.0064 21.0725 28.8992 21.2079C28.7759 21.3637 28.7759 21.6762 28.7759 22.3012V27.1514C26.4342 27.5732 24.291 28.7946 22.6983 30.6286C20.9619 32.628 20.0014 35.2156 20 37.8975V38.5886C21.1511 37.1611 22.5884 36.0067 24.2133 35.2042C25.6459 34.4968 27.1945 34.0777 28.7759 33.9673V38.6988C28.7759 39.3238 28.7759 39.6363 28.8992 39.7921C29.0064 39.9275 29.1684 40.0042 29.338 39.9998C29.5332 39.9948 29.7637 39.7915 30.2246 39.3847L39.5169 31.1859Z" fill="#C40D3C"/>
</svg>
