<svg width="50" height="50" viewBox="0 0 50 50" fill="none" xmlns="http://www.w3.org/2000/svg">
<path d="M18.9258 18.834C22.9404 18.3889 27.0596 18.3889 31.0742 18.834L31.9893 18.9355C32.5696 18.9999 33.0994 19.1839 33.498 19.4678C33.8928 19.7491 34.2098 20.1712 34.21 20.6973V23.7715C34.9571 23.9894 35.5 24.683 35.5 25.5V30.0498C35.4998 30.5656 35.1595 31.0045 34.6885 31.1484L34.1572 32.2227C34.0727 32.3926 33.8988 32.5 33.709 32.5H33.0635C32.7876 32.4998 32.5636 32.2759 32.5635 32V31.1992H27.2578L17.4355 31.2002V32C17.4354 32.2761 17.2116 32.5 16.9355 32.5H16.291C16.1013 32.5 15.9273 32.3925 15.8428 32.2227L15.3105 31.1494C14.8398 31.0051 14.5002 30.5651 14.5 30.0498V25.5C14.5 24.6827 15.0438 23.9893 15.791 23.7715V20.6973C15.7912 20.1712 16.1082 19.7491 16.5029 19.4678C16.9016 19.1839 17.4313 18.9999 18.0117 18.9355L18.9258 18.834ZM33.71 24.7002C33.2768 24.7003 32.9189 25.0549 32.9189 25.5V26.373C32.919 26.3772 32.9199 26.3816 32.9199 26.3857V27.4492C32.9198 28.0806 32.4111 28.5994 31.7754 28.5996H18.2256C17.6295 28.5995 17.1451 28.1438 17.0869 27.5664L17.0811 27.4492V25.5C17.0811 25.0545 16.7236 24.7003 16.291 24.7002C15.8578 24.7002 15.5 25.0549 15.5 25.5V30.0498C15.5002 30.1362 15.5692 30.2002 15.6455 30.2002L34.3545 30.1992C34.4311 30.1992 34.4998 30.1359 34.5 30.0498V25.5C34.5 25.0544 34.1427 24.7002 33.71 24.7002ZM25.001 26.1406C23.5095 26.1406 22.0205 26.1783 20.7588 26.2529C19.593 26.3219 18.652 26.421 18.0811 26.543V27.4492C18.0812 27.5354 18.15 27.5995 18.2266 27.5996H31.7744C31.851 27.5995 31.9189 27.5354 31.9189 27.4492V26.543C31.3479 26.4212 30.4077 26.3218 29.2432 26.2529C27.9815 26.1783 26.4925 26.1406 25.001 26.1406ZM30.9648 19.8281C27.0233 19.3911 22.9776 19.3911 19.0361 19.8281L18.1221 19.9287C17.6731 19.9785 17.3149 20.1171 17.083 20.2822C16.8477 20.4499 16.7912 20.604 16.791 20.6973V23.7725C17.5379 23.9906 18.0811 24.6833 18.0811 25.5V25.5244C18.7365 25.4048 19.6575 25.3156 20.7002 25.2539C21.9858 25.1779 23.4948 25.1406 25.001 25.1406C26.5072 25.1406 28.0161 25.1779 29.3018 25.2539C30.3436 25.3155 31.2636 25.405 31.9189 25.5244V25.5C31.9189 24.6829 32.463 23.9905 33.21 23.7725V20.6973C33.2098 20.604 33.1533 20.4499 32.918 20.2822C32.6861 20.1171 32.3279 19.9785 31.8789 19.9287L30.9648 19.8281Z" fill="#1A1919"/>
</svg>
