<svg width="50" height="50" viewBox="0 0 50 50" fill="none" xmlns="http://www.w3.org/2000/svg">
<path d="M29.5 22.25C30.4283 22.25 31.3182 22.619 31.9746 23.2754C32.631 23.9318 33 24.8217 33 25.75V33.25C33 33.5815 32.8682 33.8994 32.6338 34.1338C32.3994 34.3682 32.0815 34.5 31.75 34.5H18.25C17.9185 34.5 17.6006 34.3682 17.3662 34.1338C17.1318 33.8994 17 33.5815 17 33.25V25.75C17 24.8217 17.369 23.9318 18.0254 23.2754C18.6818 22.619 19.5717 22.25 20.5 22.25H29.5ZM20.5 23.25C19.837 23.25 19.2013 23.5136 18.7324 23.9824C18.2636 24.4513 18 25.087 18 25.75V33.25C18 33.3163 18.0264 33.3799 18.0732 33.4268C18.1201 33.4736 18.1837 33.5 18.25 33.5H31.75C31.8163 33.5 31.8799 33.4736 31.9268 33.4268C31.9736 33.3799 32 33.3163 32 33.25V25.75C32 25.087 31.7364 24.4513 31.2676 23.9824C30.7987 23.5136 30.163 23.25 29.5 23.25H20.5Z" fill="#1A1919"/>
<path d="M27.25 18.5C27.9793 18.5 28.6786 18.7899 29.1943 19.3057C29.7101 19.8214 30 20.5207 30 21.25V22.75C30 23.0261 29.7761 23.25 29.5 23.25C29.2239 23.25 29 23.0261 29 22.75V21.25C29 20.7859 28.8155 20.3409 28.4873 20.0127C28.1591 19.6845 27.7141 19.5 27.25 19.5H22.75C22.2859 19.5 21.8409 19.6845 21.5127 20.0127C21.1845 20.3409 21 20.7859 21 21.25V22.75C21 23.0261 20.7761 23.25 20.5 23.25C20.2239 23.25 20 23.0261 20 22.75V21.25C20 20.5207 20.2899 19.8214 20.8057 19.3057C21.3214 18.7899 22.0207 18.5 22.75 18.5H27.25Z" fill="#1A1919"/>
<path d="M28.75 14.75C29.2804 14.75 29.789 14.9609 30.1641 15.3359C30.5391 15.711 30.75 16.2196 30.75 16.75C30.75 17.0261 30.5261 17.25 30.25 17.25C29.9739 17.25 29.75 17.0261 29.75 16.75C29.75 16.4848 29.6446 16.2305 29.457 16.043C29.2695 15.8554 29.0152 15.75 28.75 15.75H22.75C22.4739 15.75 22.25 15.5261 22.25 15.25C22.25 14.9739 22.4739 14.75 22.75 14.75H28.75Z" fill="#1A1919"/>
<path d="M25 14.75C25.2761 14.75 25.5 14.9739 25.5 15.25V19C25.5 19.2761 25.2761 19.5 25 19.5C24.7239 19.5 24.5 19.2761 24.5 19V15.25C24.5 14.9739 24.7239 14.75 25 14.75Z" fill="#1A1919"/>
</svg>
