<svg width="50" height="50" viewBox="0 0 50 50" fill="none" xmlns="http://www.w3.org/2000/svg">
<path d="M15.2585 15.6514C15.4508 15.4533 15.7674 15.4495 15.9656 15.6416C16.1637 15.8339 16.1686 16.1505 15.9763 16.3486C11.3413 21.1251 11.3413 28.8749 15.9763 33.6514C16.1686 33.8495 16.1637 34.1661 15.9656 34.3584C15.7674 34.5505 15.4508 34.5467 15.2585 34.3486C10.2466 29.1841 10.2466 20.8159 15.2585 15.6514ZM35.0339 15.6416C35.232 15.4493 35.5486 15.4534 35.741 15.6514C40.7531 20.8159 40.7531 29.1841 35.741 34.3486C35.5486 34.5466 35.232 34.5506 35.0339 34.3584C34.836 34.1661 34.8311 33.8495 35.0232 33.6514C39.6585 28.8749 39.6585 21.1251 35.0232 16.3486C34.8311 16.1505 34.836 15.8339 35.0339 15.6416ZM19.1414 19.6523C19.3336 19.4542 19.6502 19.4494 19.8484 19.6416C20.0462 19.834 20.0504 20.1506 19.8582 20.3486C17.367 22.9161 17.3668 27.0851 19.8582 29.6523C20.0504 29.8505 20.0465 30.1671 19.8484 30.3594C19.6503 30.5514 19.3336 30.5464 19.1414 30.3486C16.2734 27.3933 16.2734 22.6077 19.1414 19.6523ZM31.1511 19.6416C31.3492 19.4493 31.6658 19.4543 31.8582 19.6523C34.7263 22.6078 34.7263 27.3932 31.8582 30.3486C31.6658 30.5462 31.3491 30.5515 31.1511 30.3594C30.9532 30.1671 30.9493 29.8505 31.1414 29.6523C33.6329 27.085 33.6327 22.9161 31.1414 20.3486C30.9494 20.1506 30.9536 19.8339 31.1511 19.6416ZM25.4998 23C26.6043 23 27.4998 23.8954 27.4998 25C27.4997 26.1046 26.6043 27 25.4998 27C24.3954 26.9998 23.4998 26.1044 23.4998 25C23.4998 23.8955 24.3953 23.0002 25.4998 23ZM25.4998 24C24.9476 24.0002 24.4998 24.4478 24.4998 25C24.4998 25.5522 24.9476 25.9998 25.4998 26C26.052 26 26.4997 25.5523 26.4998 25C26.4998 24.4477 26.052 24 25.4998 24Z" fill="#1A1919"/>
</svg>
